Fust&Schoeffer-Durandus-GoticoAntiqua118G-1.1.ufo
<glyph name="ampersand" format="1">
  <advance width="558"/>
  <unicode hex="0026"/>
  <outline>
    <contour>
      <point x="381" y="-17" type="curve"/>
      <point x="381" y="-17" type="line"/>
      <point x="426" y="0"/>
      <point x="481" y="40"/>
      <point x="563" y="97" type="curve"/>
      <point x="545" y="120" type="line"/>
      <point x="511" y="93"/>
      <point x="490" y="87"/>
      <point x="468" y="87" type="curve"/>
      <point x="446" y="87"/>
      <point x="380" y="118"/>
      <point x="380" y="214" type="curve"/>
      <point x="380" y="262"/>
      <point x="403" y="343"/>
      <point x="446" y="412" type="curve"/>
      <point x="366" y="432"/>
      <point x="259" y="440"/>
      <point x="185" y="440" type="curve"/>
      <point x="102" y="381"/>
      <point x="15" y="300"/>
      <point x="15" y="194" type="curve"/>
      <point x="15" y="120"/>
      <point x="55" y="82"/>
      <point x="89" y="80" type="curve"/>
      <point x="107" y="79"/>
      <point x="127" y="95"/>
      <point x="127" y="123" type="curve"/>
      <point x="127" y="171"/>
      <point x="54" y="162"/>
      <point x="54" y="217" type="curve"/>
      <point x="54" y="284"/>
      <point x="123" y="352"/>
      <point x="185" y="352" type="curve"/>
      <point x="229" y="352"/>
      <point x="288" y="338"/>
      <point x="339" y="311" type="curve"/>
      <point x="306" y="237"/>
      <point x="276" y="198"/>
      <point x="276" y="125" type="curve"/>
      <point x="276" y="60"/>
      <point x="327" y="-17"/>
    </contour>
  </outline>
</glyph>
<glyph name="parenleft" format="1">
  <advance width="509"/>
  <unicode hex="0028"/>
  <outline>
    <contour>
      <point x="499" y="-241" type="curve"/>
      <point x="499" y="-196" type="line"/>
      <point x="322" y="-196"/>
      <point x="87" y="-55"/>
      <point x="87" y="227" type="curve" smooth="yes"/>
      <point x="87" y="556"/>
      <point x="303" y="666"/>
      <point x="499" y="678" type="curve"/>
      <point x="499" y="721" type="line"/>
      <point x="264" y="721"/>
      <point x="35" y="552"/>
      <point x="35" y="230" type="curve" smooth="yes"/>
      <point x="35" y="-53"/>
      <point x="252" y="-241"/>
    </contour>
  </outline>
</glyph>
<glyph name="parenright" format="1">
  <advance width="509"/>
  <unicode hex="0029"/>
  <outline>
    <contour>
      <point x="10" y="-196" type="curve"/>
      <point x="10" y="-241" type="line"/>
      <point x="257" y="-241"/>
      <point x="474" y="-53"/>
      <point x="474" y="230" type="curve"/>
      <point x="474" y="552"/>
      <point x="245" y="721"/>
      <point x="10" y="721" type="curve"/>
      <point x="10" y="678" type="line"/>
      <point x="206" y="666"/>
      <point x="422" y="556"/>
      <point x="422" y="227" type="curve"/>
      <point x="422" y="-55"/>
      <point x="187" y="-196"/>
    </contour>
  </outline>
</glyph>
<glyph name="hyphen" format="1">
  <advance width="363"/>
  <unicode hex="002D"/>
  <outline>
    <contour>
      <point x="26" y="233" type="line"/>
      <point x="28" y="231" type="line"/>
      <point x="312" y="365" type="line"/>
      <point x="313" y="370" type="line"/>
      <point x="307" y="420" type="line"/>
      <point x="304" y="421" type="line"/>
      <point x="20" y="262" type="line"/>
      <point x="20" y="259" type="line"/>
    </contour>
    <contour>
      <point x="26" y="62" type="line"/>
      <point x="28" y="60" type="line"/>
      <point x="342" y="184" type="line"/>
      <point x="343" y="189" type="line"/>
      <point x="337" y="239" type="line"/>
      <point x="334" y="240" type="line"/>
      <point x="20" y="91" type="line"/>
      <point x="20" y="88" type="line"/>
    </contour>
  </outline>
</glyph>
<glyph name="period" format="1">
  <advance width="221"/>
  <unicode hex="002E"/>
  <outline>
    <contour>
      <point x="20" y="69" type="line"/>
      <point x="103" y="-22" type="line"/>
      <point x="106" y="-22" type="line"/>
      <point x="201" y="59" type="line"/>
      <point x="201" y="64" type="line"/>
      <point x="122" y="154" type="line"/>
      <point x="118" y="154" type="line"/>
      <point x="20" y="73" type="line"/>
    </contour>
  </outline>
</glyph>
<glyph name="colon" format="1">
  <advance width="221"/>
  <unicode hex="003A"/>
  <outline>
    <contour>
      <point x="103" y="274" type="line"/>
      <point x="106" y="274" type="line"/>
      <point x="201" y="355" type="line"/>
      <point x="201" y="360" type="line"/>
      <point x="122" y="450" type="line"/>
      <point x="118" y="450" type="line"/>
      <point x="20" y="369" type="line"/>
      <point x="20" y="365" type="line"/>
    </contour>
    <contour>
      <point x="103" y="-22" type="line"/>
      <point x="106" y="-22" type="line"/>
      <point x="201" y="59" type="line"/>
      <point x="201" y="64" type="line"/>
      <point x="122" y="154" type="line"/>
      <point x="118" y="154" type="line"/>
      <point x="20" y="73" type="line"/>
      <point x="20" y="69" type="line"/>
    </contour>
  </outline>
</glyph>
<glyph name="question" format="1">
  <advance width="357"/>
  <unicode hex="003F"/>
  <outline>
    <contour>
      <point x="132" y="187" type="curve" smooth="yes"/>
      <point x="144" y="187"/>
      <point x="261" y="244"/>
      <point x="303" y="272" type="curve"/>
      <point x="291" y="292" type="line"/>
      <point x="262" y="276"/>
      <point x="252" y="273"/>
      <point x="225" y="268" type="curve" smooth="yes"/>
      <point x="178" y="259"/>
      <point x="125" y="289"/>
      <point x="125" y="359" type="curve" smooth="yes"/>
      <point x="125" y="391"/>
      <point x="138" y="409"/>
      <point x="148" y="417" type="curve"/>
      <point x="169" y="399"/>
      <point x="215" y="375"/>
      <point x="250" y="375" type="curve"/>
      <point x="286" y="418"/>
      <point x="315" y="463"/>
      <point x="347" y="528" type="curve"/>
      <point x="323" y="538" type="line"/>
      <point x="303" y="514"/>
      <point x="270" y="474"/>
      <point x="251" y="474" type="curve" smooth="yes"/>
      <point x="238" y="474"/>
      <point x="217" y="489"/>
      <point x="205" y="498" type="curve"/>
      <point x="49" y="410" type="line" smooth="yes"/>
      <point x="42" y="406"/>
      <point x="15" y="375"/>
      <point x="15" y="316" type="curve" smooth="yes"/>
      <point x="15" y="218"/>
      <point x="122" y="187"/>
    </contour>
    <contour>
      <point x="186" y="-22" type="line"/>
      <point x="189" y="-22" type="line"/>
      <point x="284" y="59" type="line"/>
      <point x="284" y="64" type="line"/>
      <point x="205" y="154" type="line"/>
      <point x="201" y="154" type="line"/>
      <point x="103" y="73" type="line"/>
      <point x="103" y="69" type="line"/>
    </contour>
  </outline>
</glyph>
<glyph name="A" format="1">
  <advance width="675"/>
  <unicode hex="0041"/>
  <outline>
    <contour>
      <point x="5" y="-40" type="line"/>
      <point x="65" y="-40" type="line"/>
      <point x="94" y="45"/>
      <point x="136" y="150"/>
      <point x="168" y="225" type="curve"/>
      <point x="414" y="225" type="line"/>
      <point x="485" y="48" type="line" smooth="yes"/>
      <point x="505" y="-2"/>
      <point x="547" y="-22"/>
      <point x="568" y="-22" type="curve" smooth="yes"/>
      <point x="589" y="-22"/>
      <point x="627" y="27"/>
      <point x="670" y="81" type="curve"/>
      <point x="662" y="103" type="line"/>
      <point x="597" y="98"/>
      <point x="592" y="117"/>
      <point x="573" y="163" type="curve" smooth="yes"/>
      <point x="358" y="699" type="line"/>
      <point x="359" y="700" type="line"/>
      <point x="310" y="700" type="line"/>
      <point x="5" y="-32" type="line"/>
    </contour>
    <contour>
      <point x="207" y="316" type="line"/>
      <point x="290" y="552" type="line"/>
      <point x="380" y="316" type="line"/>
    </contour>
    <contour>
      <point x="343" y="0" type="move" name="bottom"/>
    </contour>
    <contour>
      <point x="608" y="10" type="move" name="ogonek"/>
    </contour>
    <contour>
      <point x="343" y="700" type="move" name="top"/>
    </contour>
  </outline>
</glyph>
<glyph name="B" format="1">
  <advance width="738"/>
  <unicode hex="0042"/>
  <outline>
    <contour>
      <point x="402" y="435" type="curve"/>
      <point x="421" y="471"/>
      <point x="449" y="486"/>
      <point x="449" y="545" type="curve" smooth="yes"/>
      <point x="449" y="620"/>
      <point x="374" y="689"/>
      <point x="318" y="720" type="curve"/>
      <point x="296" y="720"/>
      <point x="143" y="620"/>
      <point x="50" y="568" type="curve"/>
      <point x="59" y="543" type="line"/>
      <point x="86" y="549"/>
      <point x="106" y="553"/>
      <point x="105" y="489" type="curve" smooth="yes"/>
      <point x="102" y="166" type="line" smooth="yes"/>
      <point x="102" y="122"/>
      <point x="99" y="93"/>
      <point x="57" y="0" type="curve"/>
      <point x="76" y="-18" type="line"/>
      <point x="102" y="0"/>
      <point x="147" y="11"/>
      <point x="195" y="11" type="curve" smooth="yes"/>
      <point x="247" y="11"/>
      <point x="334" y="-9"/>
      <point x="400" y="-21" type="curve"/>
      <point x="458" y="4"/>
      <point x="647" y="104"/>
      <point x="683" y="158" type="curve"/>
      <point x="745" y="363"/>
      <point x="606" y="479"/>
    </contour>
    <contour>
      <point x="253" y="632" type="curve"/>
      <point x="282" y="608"/>
      <point x="345" y="565"/>
      <point x="342" y="486" type="curve" smooth="yes"/>
      <point x="340" y="434"/>
      <point x="279" y="356"/>
      <point x="218" y="321" type="curve"/>
      <point x="216" y="458" type="line" smooth="yes"/>
      <point x="215" y="502"/>
      <point x="208" y="602"/>
    </contour>
    <contour>
      <point x="595" y="147" type="curve"/>
      <point x="559" y="110"/>
      <point x="506" y="82"/>
      <point x="444" y="82" type="curve" smooth="yes"/>
      <point x="387" y="82"/>
      <point x="286" y="124"/>
      <point x="204" y="104" type="curve"/>
      <point x="204" y="162"/>
      <point x="207" y="231"/>
      <point x="216" y="256" type="curve"/>
      <point x="247" y="306"/>
      <point x="320" y="362"/>
      <point x="401" y="362" type="curve" smooth="yes"/>
      <point x="530" y="362"/>
      <point x="633" y="272"/>
    </contour>
    <contour>
      <point x="368" y="0" type="move" name="bottom"/>
    </contour>
    <contour>
      <point x="368" y="700" type="move" name="top"/>
    </contour>
  </outline>
</glyph>
<glyph name="C" format="1">
  <advance width="658"/>
  <unicode hex="0043"/>
  <outline>
    <contour>
      <point x="347" y="-19" type="curve"/>
      <point x="347" y="-19" type="line"/>
      <point x="434" y="14"/>
      <point x="537" y="64"/>
      <point x="638" y="116" type="curve"/>
      <point x="622" y="147" type="line"/>
      <point x="546" y="111"/>
      <point x="462" y="89"/>
      <point x="422" y="89" type="curve"/>
      <point x="234" y="89"/>
      <point x="172" y="227"/>
      <point x="172" y="374" type="curve"/>
      <point x="172" y="516"/>
      <point x="234" y="572"/>
      <point x="307" y="614" type="curve"/>
      <point x="323" y="614"/>
      <point x="384" y="579"/>
      <point x="421" y="566" type="curve"/>
      <point x="458" y="595"/>
      <point x="521" y="633"/>
      <point x="626" y="687" type="curve"/>
      <point x="611" y="711" type="line"/>
      <point x="569" y="697"/>
      <point x="509" y="678"/>
      <point x="489" y="678" type="curve"/>
      <point x="458" y="678"/>
      <point x="435" y="707"/>
      <point x="394" y="721" type="curve"/>
      <point x="352" y="701"/>
      <point x="231" y="624"/>
      <point x="118" y="541" type="curve"/>
      <point x="77" y="490"/>
      <point x="40" y="411"/>
      <point x="40" y="307" type="curve"/>
      <point x="40" y="122"/>
      <point x="179" y="-19"/>
    </contour>
    <contour>
      <point x="349" y="0" type="move" name="bottom"/>
    </contour>
    <contour>
      <point x="349" y="700" type="move" name="top"/>
    </contour>
  </outline>
</glyph>
<glyph name="D" format="1">
  <advance width="615"/>
  <unicode hex="0044"/>
  <outline>
    <contour>
      <point x="467" y="445" type="curve" smooth="yes"/>
      <point x="414" y="542"/>
      <point x="371" y="617"/>
      <point x="351" y="654" type="curve" smooth="yes"/>
      <point x="340" y="675"/>
      <point x="341" y="686"/>
      <point x="357" y="700" type="curve"/>
      <point x="339" y="721" type="line"/>
      <point x="47" y="520" type="line"/>
      <point x="62" y="496" type="line"/>
      <point x="82" y="514"/>
      <point x="114" y="524"/>
      <point x="116" y="486" type="curve" smooth="yes"/>
      <point x="119" y="437"/>
      <point x="128" y="256"/>
      <point x="104" y="184" type="curve" smooth="yes"/>
      <point x="86" y="130"/>
      <point x="57" y="59"/>
      <point x="15" y="-7" type="curve"/>
      <point x="36" y="-22" type="line"/>
      <point x="62" y="7"/>
      <point x="114" y="20"/>
      <point x="173" y="20" type="curve" smooth="yes"/>
      <point x="259" y="20"/>
      <point x="319" y="0"/>
      <point x="393" y="-20" type="curve"/>
      <point x="442" y="30"/>
      <point x="575" y="149"/>
      <point x="575" y="195" type="curve" smooth="yes"/>
      <point x="575" y="270"/>
      <point x="519" y="350"/>
    </contour>
    <contour>
      <point x="426" y="85" type="curve" smooth="yes"/>
      <point x="390" y="85"/>
      <point x="324" y="132"/>
      <point x="285" y="132" type="curve" smooth="yes"/>
      <point x="248" y="132"/>
      <point x="194" y="126"/>
      <point x="140" y="105" type="curve"/>
      <point x="214" y="217"/>
      <point x="243" y="255"/>
      <point x="243" y="313" type="curve" smooth="yes"/>
      <point x="243" y="377"/>
      <point x="222" y="459"/>
      <point x="222" y="509" type="curve" smooth="yes"/>
      <point x="222" y="550"/>
      <point x="229" y="574"/>
      <point x="248" y="599" type="curve"/>
      <point x="272" y="566"/>
      <point x="319" y="489"/>
      <point x="375" y="383" type="curve" smooth="yes"/>
      <point x="416" y="305"/>
      <point x="474" y="227"/>
      <point x="474" y="159" type="curve" smooth="yes"/>
      <point x="474" y="114"/>
      <point x="454" y="85"/>
    </contour>
    <contour>
      <point x="293" y="0" type="move" name="bottom"/>
    </contour>
    <contour>
      <point x="293" y="350" type="move" name="center"/>
    </contour>
    <contour>
      <point x="293" y="700" type="move" name="top"/>
    </contour>
  </outline>
</glyph>
<glyph name="E" format="1">
  <advance width="682"/>
  <unicode hex="0045"/>
  <outline>
    <contour>
      <point x="293" y="273" type="curve" smooth="yes"/>
      <point x="350" y="273"/>
      <point x="418" y="252"/>
      <point x="458" y="244" type="curve"/>
      <point x="509" y="270"/>
      <point x="562" y="303"/>
      <point x="645" y="350" type="curve"/>
      <point x="631" y="372" type="line"/>
      <point x="602" y="359"/>
      <point x="582" y="349"/>
      <point x="549" y="349" type="curve" smooth="yes"/>
      <point x="443" y="349"/>
      <point x="385" y="372"/>
      <point x="344" y="377" type="curve"/>
      <point x="319" y="363"/>
      <point x="263" y="322"/>
      <point x="185" y="266" type="curve"/>
      <point x="178" y="291"/>
      <point x="174" y="319"/>
      <point x="174" y="350" type="curve" smooth="yes"/>
      <point x="174" y="490"/>
      <point x="267" y="597"/>
      <point x="300" y="617" type="curve"/>
      <point x="317" y="617"/>
      <point x="392" y="577"/>
      <point x="421" y="557" type="curve"/>
      <point x="474" y="577"/>
      <point x="556" y="629"/>
      <point x="662" y="694" type="curve"/>
      <point x="642" y="722" type="line"/>
      <point x="590" y="687"/>
      <point x="540" y="663"/>
      <point x="513" y="663" type="curve" smooth="yes"/>
      <point x="463" y="663"/>
      <point x="442" y="694"/>
      <point x="416" y="720" type="curve"/>
      <point x="404" y="720"/>
      <point x="299" y="668"/>
      <point x="198" y="594" type="curve" smooth="yes"/>
      <point x="97" y="520"/>
      <point x="40" y="420"/>
      <point x="40" y="288" type="curve" smooth="yes"/>
      <point x="40" y="107"/>
      <point x="201" y="0"/>
      <point x="323" y="-20" type="curve"/>
      <point x="355" y="-20"/>
      <point x="530" y="44"/>
      <point x="641" y="90" type="curve"/>
      <point x="626" y="121" type="line"/>
      <point x="574" y="100"/>
      <point x="509" y="72"/>
      <point x="453" y="72" type="curve" smooth="yes"/>
      <point x="362" y="72"/>
      <point x="245" y="120"/>
      <point x="197" y="232" type="curve"/>
      <point x="233" y="271"/>
      <point x="259" y="273"/>
    </contour>
    <contour>
      <point x="343" y="0" type="move" name="bottom"/>
    </contour>
    <contour>
      <point x="614" y="10" type="move" name="ogonek"/>
    </contour>
    <contour>
      <point x="343" y="700" type="move" name="top"/>
    </contour>
    <contour>
      <point x="23" y="700" type="move" name="topleft"/>
    </contour>
  </outline>
</glyph>
<glyph name="F" format="1">
  <advance width="519"/>
  <unicode hex="0046"/>
  <outline>
    <contour>
      <point x="73" y="-241" type="line"/>
      <point x="125" y="-208"/>
      <point x="182" y="-142"/>
      <point x="220" y="-93" type="curve"/>
      <point x="214" y="100"/>
      <point x="212" y="337"/>
      <point x="219" y="530" type="curve" smooth="yes"/>
      <point x="220" y="557"/>
      <point x="223" y="585"/>
      <point x="248" y="607" type="curve"/>
      <point x="262" y="586"/>
      <point x="268" y="563"/>
      <point x="268" y="526" type="curve" smooth="yes"/>
      <point x="268" y="303"/>
      <point x="261" y="91"/>
      <point x="260" y="-132" type="curve"/>
      <point x="268" y="-135" type="line"/>
      <point x="303" y="-45" type="line"/>
      <point x="303" y="281" type="line"/>
      <point x="438" y="281" type="line"/>
      <point x="446" y="378" type="line"/>
      <point x="305" y="378" type="line"/>
      <point x="303" y="591" type="line"/>
      <point x="332" y="608"/>
      <point x="375" y="624"/>
      <point x="403" y="624" type="curve" smooth="yes"/>
      <point x="416" y="624"/>
      <point x="457" y="601"/>
      <point x="457" y="550" type="curve" smooth="yes"/>
      <point x="457" y="531"/>
      <point x="452" y="518"/>
      <point x="433" y="507" type="curve"/>
      <point x="436" y="492" type="line"/>
      <point x="486" y="513"/>
      <point x="509" y="576"/>
      <point x="509" y="649" type="curve" smooth="yes"/>
      <point x="509" y="692"/>
      <point x="497" y="723"/>
      <point x="486" y="723" type="curve" smooth="yes"/>
      <point x="472" y="723"/>
      <point x="361" y="688"/>
      <point x="261" y="651" type="curve" smooth="yes"/>
      <point x="181" y="622"/>
      <point x="107" y="596"/>
      <point x="39" y="560" type="curve"/>
      <point x="39" y="555" type="line"/>
      <point x="93" y="512"/>
      <point x="107" y="473"/>
      <point x="116" y="408" type="curve"/>
      <point x="35" y="390" type="line"/>
      <point x="35" y="385" type="line"/>
      <point x="87" y="351"/>
      <point x="114" y="316"/>
      <point x="124" y="239" type="curve"/>
      <point x="47" y="209" type="line"/>
      <point x="47" y="204" type="line"/>
      <point x="61" y="199"/>
      <point x="86" y="180"/>
      <point x="97" y="133" type="curve" smooth="yes"/>
      <point x="110" y="80"/>
      <point x="115" y="16"/>
      <point x="113" y="-58" type="curve" smooth="yes"/>
      <point x="112" y="-105"/>
      <point x="104" y="-181"/>
      <point x="47" y="-226" type="curve"/>
    </contour>
    <contour>
      <point x="260" y="0" type="move" name="bottom"/>
    </contour>
    <contour>
      <point x="260" y="700" type="move" name="top"/>
    </contour>
  </outline>
</glyph>
<glyph name="I" format="1">
  <advance width="445"/>
  <unicode hex="0049"/>
  <outline>
    <contour>
      <point x="31" y="-31" type="line"/>
      <point x="57" y="-10"/>
      <point x="85" y="0"/>
      <point x="101" y="0" type="curve" smooth="yes"/>
      <point x="129" y="0"/>
      <point x="161" y="-1"/>
      <point x="209" y="-9" type="curve"/>
      <point x="294" y="60"/>
      <point x="383" y="144"/>
      <point x="383" y="201" type="curve" smooth="yes"/>
      <point x="383" y="263"/>
      <point x="372" y="658"/>
      <point x="395" y="708" type="curve"/>
      <point x="380" y="721" type="line"/>
      <point x="322" y="716"/>
      <point x="182" y="716"/>
      <point x="124" y="720" type="curve"/>
      <point x="27" y="567" type="line"/>
      <point x="48" y="551" type="line"/>
      <point x="85" y="587"/>
      <point x="126" y="618"/>
      <point x="179" y="616" type="curve" smooth="yes"/>
      <point x="275" y="613" type="line"/>
      <point x="270" y="576"/>
      <point x="266" y="501"/>
      <point x="264" y="445" type="curve"/>
      <point x="187" y="399" type="line"/>
      <point x="192" y="391" type="line"/>
      <point x="257" y="360"/>
      <point x="260" y="310"/>
      <point x="260" y="256" type="curve" smooth="yes"/>
      <point x="260" y="223"/>
      <point x="268" y="148"/>
      <point x="245" y="92" type="curve"/>
      <point x="205" y="97"/>
      <point x="143" y="105"/>
      <point x="109" y="105" type="curve"/>
      <point x="10" y="-10" type="line"/>
    </contour>
    <contour>
      <point x="224" y="0" type="move" name="bottom"/>
    </contour>
    <contour>
      <point x="423" y="10" type="move" name="ogonek"/>
    </contour>
    <contour>
      <point x="224" y="700" type="move" name="top"/>
    </contour>
    <contour>
      <point x="-5" y="700" type="move" name="topleft"/>
    </contour>
  </outline>
</glyph>
<glyph name="J" format="1">
  <advance width="523"/>
  <unicode hex="004A"/>
  <outline>
    <contour>
      <point x="298" y="-240" type="line"/>
      <point x="369" y="-178"/>
      <point x="461" y="-123"/>
      <point x="461" y="-54" type="curve" smooth="yes"/>
      <point x="461" y="11"/>
      <point x="447" y="652"/>
      <point x="473" y="708" type="curve"/>
      <point x="458" y="725" type="line"/>
      <point x="400" y="710"/>
      <point x="190" y="720"/>
      <point x="132" y="720" type="curve"/>
      <point x="5" y="547" type="line"/>
      <point x="34" y="531" type="line"/>
      <point x="71" y="567"/>
      <point x="104" y="608"/>
      <point x="157" y="606" type="curve" smooth="yes"/>
      <point x="353" y="600" type="line"/>
      <point x="335" y="475"/>
      <point x="336" y="145"/>
      <point x="338" y="59" type="curve" smooth="yes"/>
      <point x="342" y="-96"/>
      <point x="322" y="-147"/>
      <point x="276" y="-221" type="curve"/>
    </contour>
  </outline>
</glyph>
<glyph name="K" format="1">
  <advance width="593"/>
  <unicode hex="004B"/>
  <outline>
    <contour>
      <point x="523" y="202" type="curve"/>
      <point x="523" y="202" type="line"/>
      <point x="505" y="292"/>
      <point x="484" y="368"/>
      <point x="394" y="434" type="curve"/>
      <point x="459" y="473"/>
      <point x="503" y="512"/>
      <point x="503" y="552" type="curve"/>
      <point x="503" y="603"/>
      <point x="436" y="665"/>
      <point x="374" y="685" type="curve"/>
      <point x="339" y="668"/>
      <point x="271" y="624"/>
      <point x="209" y="591" type="curve"/>
      <point x="213" y="613"/>
      <point x="225" y="634"/>
      <point x="234" y="652" type="curve"/>
      <point x="146" y="723" type="line"/>
      <point x="38" y="642" type="line"/>
      <point x="51" y="619" type="line"/>
      <point x="84" y="630"/>
      <point x="102" y="607"/>
      <point x="102" y="580" type="curve"/>
      <point x="102" y="543"/>
      <point x="103" y="498"/>
      <point x="101" y="467" type="curve"/>
      <point x="31" y="427" type="line"/>
      <point x="31" y="421" type="line"/>
      <point x="74" y="373"/>
      <point x="97" y="334"/>
      <point x="95" y="290" type="curve"/>
      <point x="30" y="250" type="line"/>
      <point x="30" y="246" type="line"/>
      <point x="95" y="216"/>
      <point x="97" y="176"/>
      <point x="97" y="126" type="curve"/>
      <point x="97" y="96"/>
      <point x="93" y="79"/>
      <point x="76" y="48" type="curve"/>
      <point x="213" y="-22" type="line"/>
      <point x="345" y="99" type="line"/>
      <point x="325" y="119" type="line"/>
      <point x="309" y="107"/>
      <point x="296" y="92"/>
      <point x="272" y="92" type="curve"/>
      <point x="252" y="92"/>
      <point x="237" y="104"/>
      <point x="209" y="129" type="curve"/>
      <point x="209" y="302" type="line"/>
      <point x="308" y="361" type="line"/>
      <point x="457" y="281"/>
      <point x="365" y="87"/>
      <point x="472" y="-18" type="curve"/>
      <point x="583" y="81" type="line"/>
      <point x="583" y="95" type="line"/>
      <point x="560" y="109"/>
      <point x="533" y="151"/>
    </contour>
    <contour>
      <point x="209" y="340" type="curve"/>
      <point x="208" y="555" type="line"/>
      <point x="235" y="576"/>
      <point x="262" y="589"/>
      <point x="290" y="590" type="curve"/>
      <point x="320" y="592"/>
      <point x="369" y="558"/>
      <point x="369" y="503" type="curve"/>
      <point x="369" y="450"/>
      <point x="278" y="389"/>
    </contour>
  </outline>
</glyph>
<glyph name="L" format="1">
  <advance width="541"/>
  <unicode hex="004C"/>
  <outline>
    <contour>
      <point x="523" y="109" type="line"/>
      <point x="502" y="101"/>
      <point x="475" y="77"/>
      <point x="443" y="77" type="curve" smooth="yes"/>
      <point x="400" y="77"/>
      <point x="330" y="130"/>
      <point x="280" y="130" type="curve" smooth="yes"/>
      <point x="254" y="130"/>
      <point x="203" y="109"/>
      <point x="141" y="84" type="curve"/>
      <point x="177" y="122"/>
      <point x="205" y="157"/>
      <point x="250" y="228" type="curve" smooth="yes"/>
      <point x="310" y="322"/>
      <point x="356" y="440"/>
      <point x="356" y="564" type="curve" smooth="yes"/>
      <point x="356" y="627"/>
      <point x="349" y="668"/>
      <point x="330" y="700" type="curve"/>
      <point x="269" y="700" type="line"/>
      <point x="269" y="694" type="line"/>
      <point x="309" y="669"/>
      <point x="319" y="610"/>
      <point x="319" y="554" type="curve" smooth="yes"/>
      <point x="319" y="486"/>
      <point x="304" y="419"/>
      <point x="275" y="358" type="curve"/>
      <point x="273" y="358" type="line"/>
      <point x="283" y="402"/>
      <point x="289" y="431"/>
      <point x="289" y="492" type="curve" smooth="yes"/>
      <point x="289" y="606"/>
      <point x="240" y="697"/>
      <point x="160" y="712" type="curve"/>
      <point x="142" y="712"/>
      <point x="51" y="700"/>
      <point x="35" y="694" type="curve"/>
      <point x="35" y="682" type="line"/>
      <point x="152" y="635"/>
      <point x="198" y="520"/>
      <point x="191" y="410" type="curve"/>
      <point x="167" y="435"/>
      <point x="120" y="475"/>
      <point x="64" y="481" type="curve"/>
      <point x="61" y="478" type="line"/>
      <point x="146" y="407"/>
      <point x="166" y="323"/>
      <point x="166" y="312" type="curve" smooth="yes"/>
      <point x="166" y="296"/>
      <point x="147" y="262"/>
      <point x="141" y="255" type="curve"/>
      <point x="124" y="276"/>
      <point x="99" y="298"/>
      <point x="36" y="298" type="curve"/>
      <point x="35" y="293" type="line"/>
      <point x="60" y="275"/>
      <point x="106" y="236"/>
      <point x="115" y="201" type="curve"/>
      <point x="94" y="104"/>
      <point x="73" y="48"/>
      <point x="30" y="-9" type="curve"/>
      <point x="42" y="-23" type="line"/>
      <point x="88" y="7"/>
      <point x="138" y="30"/>
      <point x="189" y="30" type="curve" smooth="yes"/>
      <point x="278" y="30"/>
      <point x="333" y="-1"/>
      <point x="374" y="-19" type="curve"/>
      <point x="419" y="-19"/>
      <point x="482" y="44"/>
      <point x="536" y="90" type="curve"/>
    </contour>
    <contour>
      <point x="272" y="0" type="move" name="bottom"/>
    </contour>
    <contour>
      <point x="272" y="350" type="move" name="center"/>
    </contour>
    <contour>
      <point x="272" y="700" type="move" name="top"/>
    </contour>
    <contour>
      <point x="526" y="700" type="move" name="topright"/>
    </contour>
  </outline>
</glyph>
<glyph name="M" format="1">
  <advance width="964"/>
  <unicode hex="004D"/>
  <outline>
    <contour>
      <point x="959" y="63" type="curve"/>
      <point x="957" y="89" type="line"/>
      <point x="904" y="82"/>
      <point x="900" y="88"/>
      <point x="887" y="126" type="curve"/>
      <point x="824" y="312"/>
      <point x="763" y="528"/>
      <point x="710" y="714" type="curve"/>
      <point x="696" y="720" type="line"/>
      <point x="688" y="720"/>
      <point x="611" y="657"/>
      <point x="592" y="632" type="curve"/>
      <point x="600" y="617"/>
      <point x="608" y="598"/>
      <point x="617" y="577" type="curve"/>
      <point x="585" y="485"/>
      <point x="536" y="341"/>
      <point x="500" y="230" type="curve"/>
      <point x="448" y="393"/>
      <point x="394" y="560"/>
      <point x="357" y="709" type="curve"/>
      <point x="321" y="714"/>
      <point x="269" y="699"/>
      <point x="242" y="688" type="curve"/>
      <point x="254" y="658"/>
      <point x="265" y="626"/>
      <point x="276" y="594" type="curve"/>
      <point x="122" y="115" type="line" smooth="yes"/>
      <point x="113" y="87"/>
      <point x="113" y="87"/>
      <point x="39" y="118" type="curve"/>
      <point x="28" y="91"/>
      <point x="5" y="40"/>
      <point x="5" y="22" type="curve"/>
      <point x="28" y="4"/>
      <point x="82" y="-13"/>
      <point x="116" y="-5" type="curve"/>
      <point x="140" y="40"/>
      <point x="241" y="347"/>
      <point x="300" y="522" type="curve"/>
      <point x="349" y="368"/>
      <point x="395" y="195"/>
      <point x="441" y="40" type="curve"/>
      <point x="449" y="13"/>
      <point x="480" y="-20"/>
      <point x="504" y="-20" type="curve"/>
      <point x="545" y="10"/>
      <point x="601" y="57"/>
      <point x="644" y="89" type="curve"/>
      <point x="637" y="112" type="line"/>
      <point x="581" y="85"/>
      <point x="552" y="68"/>
      <point x="542" y="100" type="curve"/>
      <point x="535" y="123"/>
      <point x="527" y="147"/>
      <point x="519" y="170" type="curve"/>
      <point x="639" y="520" type="line"/>
      <point x="700" y="356"/>
      <point x="769" y="113"/>
      <point x="793" y="39" type="curve"/>
      <point x="803" y="8"/>
      <point x="847" y="-20"/>
      <point x="865" y="-20" type="curve"/>
      <point x="893" y="7"/>
      <point x="923" y="38"/>
    </contour>
    <contour>
      <point x="480" y="0" type="move" name="bottom"/>
    </contour>
    <contour>
      <point x="480" y="700" type="move" name="top"/>
    </contour>
  </outline>
</glyph>
<glyph name="N" format="1">
  <advance width="758"/>
  <unicode hex="004E"/>
  <outline>
    <contour>
      <point x="719" y="112" type="line"/>
      <point x="688" y="95"/>
      <point x="651" y="86"/>
      <point x="630" y="86" type="curve" smooth="yes"/>
      <point x="580" y="86"/>
      <point x="529" y="136"/>
      <point x="502" y="169" type="curve"/>
      <point x="565" y="269"/>
      <point x="701" y="394"/>
      <point x="701" y="512" type="curve" smooth="yes"/>
      <point x="701" y="611"/>
      <point x="603" y="722"/>
      <point x="481" y="722" type="curve" smooth="yes"/>
      <point x="452" y="722"/>
      <point x="252" y="620"/>
      <point x="61" y="575" type="curve"/>
      <point x="71" y="375"/>
      <point x="80" y="148"/>
      <point x="78" y="-22" type="curve" smooth="yes"/>
      <point x="77" y="-100"/>
      <point x="71" y="-142"/>
      <point x="30" y="-224" type="curve"/>
      <point x="50" y="-239" type="line"/>
      <point x="102" y="-194"/>
      <point x="156" y="-114"/>
      <point x="180" y="-76" type="curve"/>
      <point x="195" y="66"/>
      <point x="196" y="308"/>
      <point x="196" y="543" type="curve"/>
      <point x="209" y="552"/>
      <point x="220" y="564"/>
      <point x="234" y="576" type="curve"/>
      <point x="241" y="416"/>
      <point x="246" y="148"/>
      <point x="214" y="-60" type="curve"/>
      <point x="222" y="-61" type="line"/>
      <point x="257" y="-19" type="line"/>
      <point x="285" y="189"/>
      <point x="277" y="451"/>
      <point x="278" y="610" type="curve"/>
      <point x="303" y="625"/>
      <point x="336" y="636"/>
      <point x="381" y="636" type="curve" smooth="yes"/>
      <point x="472" y="636"/>
      <point x="572" y="580"/>
      <point x="572" y="453" type="curve" smooth="yes"/>
      <point x="572" y="365"/>
      <point x="519" y="254"/>
      <point x="455" y="176" type="curve" smooth="yes"/>
      <point x="437" y="153"/>
      <point x="409" y="135"/>
      <point x="378" y="109" type="curve"/>
      <point x="425" y="67"/>
      <point x="476" y="18"/>
      <point x="524" y="-21" type="curve"/>
      <point x="540" y="-21"/>
      <point x="665" y="47"/>
      <point x="723" y="89" type="curve"/>
    </contour>
    <contour>
      <point x="377" y="0" type="move" name="bottom"/>
    </contour>
    <contour>
      <point x="377" y="700" type="move" name="top"/>
    </contour>
  </outline>
</glyph>
<glyph name="O" format="1">
  <advance width="818"/>
  <unicode hex="004F"/>
  <outline>
    <contour>
      <point x="378" y="-19" type="curve"/>
      <point x="378" y="-19" type="line"/>
      <point x="443" y="-9"/>
      <point x="778" y="151"/>
      <point x="778" y="390" type="curve"/>
      <point x="778" y="542"/>
      <point x="677" y="674"/>
      <point x="502" y="721" type="curve"/>
      <point x="343" y="700"/>
      <point x="205" y="622"/>
      <point x="125" y="567" type="curve"/>
      <point x="63" y="511"/>
      <point x="41" y="431"/>
      <point x="40" y="352" type="curve"/>
      <point x="37" y="146"/>
      <point x="178" y="8"/>
    </contour>
    <contour>
      <point x="412" y="72" type="curve"/>
      <point x="412" y="72" type="line"/>
      <point x="271" y="72"/>
      <point x="163" y="192"/>
      <point x="163" y="344" type="curve"/>
      <point x="163" y="488"/>
      <point x="247" y="643"/>
      <point x="414" y="643" type="curve"/>
      <point x="542" y="643"/>
      <point x="656" y="526"/>
      <point x="656" y="369" type="curve"/>
      <point x="656" y="190"/>
      <point x="542" y="72"/>
    </contour>
    <contour>
      <point x="402" y="0" type="move" name="bottom"/>
    </contour>
    <contour>
      <point x="402" y="350" type="move" name="center"/>
    </contour>
    <contour>
      <point x="723" y="10" type="move" name="ogonek"/>
    </contour>
    <contour>
      <point x="402" y="700" type="move" name="top"/>
    </contour>
    <contour>
      <point x="21" y="700" type="move" name="topleft"/>
    </contour>
    <contour>
      <point x="783" y="700" type="move" name="topright"/>
    </contour>
  </outline>
</glyph>
<glyph name="P" format="1">
  <advance width="925"/>
  <unicode hex="0050"/>
  <outline>
    <contour>
      <point x="467" y="723" type="curve"/>
      <point x="467" y="723" type="line"/>
      <point x="394" y="682"/>
      <point x="302" y="635"/>
      <point x="239" y="600" type="curve"/>
      <point x="241" y="634"/>
      <point x="248" y="676"/>
      <point x="250" y="715" type="curve"/>
      <point x="228" y="723" type="line"/>
      <point x="171" y="688"/>
      <point x="112" y="666"/>
      <point x="30" y="628" type="curve"/>
      <point x="37" y="603" type="line"/>
      <point x="93" y="601"/>
      <point x="103" y="551"/>
      <point x="104" y="496" type="curve"/>
      <point x="108" y="251"/>
      <point x="107" y="25"/>
      <point x="99" y="-221" type="curve"/>
      <point x="247" y="-221" type="line"/>
      <point x="244" y="-138"/>
      <point x="242" y="-45"/>
      <point x="241" y="51" type="curve"/>
      <point x="263" y="62"/>
      <point x="286" y="68"/>
      <point x="306" y="65" type="curve"/>
      <point x="359" y="60"/>
      <point x="401" y="18"/>
      <point x="434" y="-11" type="curve"/>
      <point x="525" y="23"/>
      <point x="653" y="84"/>
      <point x="731" y="118" type="curve"/>
      <point x="795" y="180"/>
      <point x="885" y="266"/>
      <point x="885" y="393" type="curve"/>
      <point x="885" y="616"/>
      <point x="688" y="723"/>
    </contour>
    <contour>
      <point x="533" y="77" type="curve"/>
      <point x="533" y="77" type="line"/>
      <point x="502" y="94"/>
      <point x="418" y="141"/>
      <point x="369" y="141" type="curve"/>
      <point x="364" y="141"/>
      <point x="354" y="138"/>
      <point x="342" y="133" type="curve"/>
      <point x="344" y="276"/>
      <point x="349" y="475"/>
      <point x="351" y="607" type="curve"/>
      <point x="394" y="620"/>
      <point x="428" y="624"/>
      <point x="457" y="624" type="curve"/>
      <point x="588" y="624"/>
      <point x="761" y="544"/>
      <point x="761" y="353" type="curve"/>
      <point x="761" y="213"/>
      <point x="688" y="127"/>
    </contour>
    <contour>
      <point x="240" y="85" type="curve"/>
      <point x="240" y="85" type="line"/>
      <point x="238" y="239"/>
      <point x="236" y="403"/>
      <point x="237" y="557" type="curve"/>
      <point x="262" y="571"/>
      <point x="286" y="582"/>
      <point x="307" y="591" type="curve"/>
      <point x="311" y="484"/>
      <point x="302" y="317"/>
      <point x="299" y="176" type="curve"/>
      <point x="324" y="125" type="line"/>
      <point x="299" y="114"/>
      <point x="268" y="98"/>
    </contour>
    <contour>
      <point x="428" y="0" type="move" name="bottom"/>
    </contour>
    <contour>
      <point x="428" y="700" type="move" name="top"/>
    </contour>
  </outline>
</glyph>
<glyph name="Q" format="1">
  <advance width="896"/>
  <unicode hex="0051"/>
  <outline>
    <contour>
      <point x="369" y="-20" type="curve"/>
      <point x="443" y="52"/>
      <point x="503" y="104"/>
      <point x="567" y="166" type="curve"/>
      <point x="545" y="184" type="line"/>
      <point x="482" y="129"/>
      <point x="427" y="102"/>
      <point x="379" y="102" type="curve" smooth="yes"/>
      <point x="244" y="102"/>
      <point x="171" y="217"/>
      <point x="171" y="336" type="curve" smooth="yes"/>
      <point x="171" y="513"/>
      <point x="316" y="630"/>
      <point x="416" y="630" type="curve" smooth="yes"/>
      <point x="580" y="630"/>
      <point x="710" y="537"/>
      <point x="710" y="384" type="curve" smooth="yes"/>
      <point x="710" y="228"/>
      <point x="628" y="150"/>
      <point x="574" y="74" type="curve"/>
      <point x="630" y="34"/>
      <point x="704" y="-20"/>
      <point x="715" y="-20" type="curve" smooth="yes"/>
      <point x="724" y="-20"/>
      <point x="820" y="70"/>
      <point x="881" y="111" type="curve"/>
      <point x="866" y="135" type="line"/>
      <point x="839" y="121"/>
      <point x="785" y="94"/>
      <point x="778" y="94" type="curve" smooth="yes"/>
      <point x="767" y="94"/>
      <point x="708" y="131"/>
      <point x="685" y="156" type="curve"/>
      <point x="708" y="191"/>
      <point x="842" y="284"/>
      <point x="847" y="430" type="curve" smooth="yes"/>
      <point x="853" y="600"/>
      <point x="732" y="680"/>
      <point x="614" y="720" type="curve"/>
      <point x="314" y="720"/>
      <point x="40" y="553"/>
      <point x="40" y="300" type="curve" smooth="yes"/>
      <point x="40" y="105"/>
      <point x="166" y="-20"/>
    </contour>
    <contour>
      <point x="444" y="0" type="move" name="bottom"/>
    </contour>
    <contour>
      <point x="444" y="700" type="move" name="top"/>
    </contour>
  </outline>
</glyph>
<glyph name="R" format="1">
  <advance width="596"/>
  <unicode hex="0052"/>
  <outline>
    <contour>
      <point x="70" y="-10" type="line"/>
      <point x="187" y="10" type="line"/>
      <point x="188" y="370" type="line" smooth="yes"/>
      <point x="188" y="391"/>
      <point x="216" y="395"/>
      <point x="236" y="395" type="curve" smooth="yes"/>
      <point x="365" y="395"/>
      <point x="432" y="184"/>
      <point x="443" y="-9" type="curve"/>
      <point x="456" y="-10" type="line"/>
      <point x="566" y="67" type="line"/>
      <point x="529" y="277"/>
      <point x="494" y="421"/>
      <point x="322" y="473" type="curve"/>
      <point x="413" y="537"/>
      <point x="457" y="546"/>
      <point x="457" y="612" type="curve" smooth="yes"/>
      <point x="457" y="688"/>
      <point x="391" y="720"/>
      <point x="321" y="719" type="curve" smooth="yes"/>
      <point x="247" y="718"/>
      <point x="166" y="670"/>
      <point x="81" y="601" type="curve"/>
    </contour>
    <contour>
      <point x="187" y="426" type="line"/>
      <point x="188" y="619" type="line"/>
      <point x="204" y="633"/>
      <point x="232" y="648"/>
      <point x="260" y="648" type="curve" smooth="yes"/>
      <point x="304" y="648"/>
      <point x="334" y="622"/>
      <point x="334" y="580" type="curve" smooth="yes"/>
      <point x="334" y="520"/>
      <point x="277" y="481"/>
      <point x="242" y="460" type="curve" smooth="yes"/>
    </contour>
    <contour>
      <point x="316" y="0" type="move" name="bottom"/>
    </contour>
    <contour>
      <point x="316" y="700" type="move" name="top"/>
    </contour>
  </outline>
</glyph>
<glyph name="S" format="1">
  <advance width="997"/>
  <unicode hex="0053"/>
  <outline>
    <contour>
      <point x="693" y="461" type="curve" smooth="yes"/>
      <point x="646" y="461"/>
      <point x="616" y="459"/>
      <point x="589" y="457" type="curve"/>
      <point x="649" y="510"/>
      <point x="706" y="545"/>
      <point x="709" y="615" type="curve" smooth="yes"/>
      <point x="710" y="640"/>
      <point x="696" y="701"/>
      <point x="653" y="721" type="curve"/>
      <point x="584" y="721"/>
      <point x="485" y="718"/>
      <point x="450" y="697" type="curve" smooth="yes"/>
      <point x="369" y="649"/>
      <point x="294" y="579"/>
      <point x="294" y="484" type="curve" smooth="yes"/>
      <point x="294" y="390"/>
      <point x="369" y="333"/>
      <point x="471" y="333" type="curve" smooth="yes"/>
      <point x="534" y="333"/>
      <point x="615" y="335"/>
      <point x="672" y="335" type="curve" smooth="yes"/>
      <point x="773" y="335"/>
      <point x="870" y="291"/>
      <point x="870" y="194" type="curve" smooth="yes"/>
      <point x="870" y="134"/>
      <point x="832" y="86"/>
      <point x="777" y="65" type="curve"/>
      <point x="716" y="62"/>
      <point x="493" y="182"/>
      <point x="399" y="182" type="curve" smooth="yes"/>
      <point x="312" y="182"/>
      <point x="143" y="54"/>
      <point x="10" y="-25" type="curve"/>
      <point x="30" y="-55" type="line"/>
      <point x="157" y="20"/>
      <point x="226" y="68"/>
      <point x="332" y="68" type="curve" smooth="yes"/>
      <point x="477" y="68"/>
      <point x="621" y="-10"/>
      <point x="689" y="-20" type="curve"/>
      <point x="718" y="-10"/>
      <point x="957" y="83"/>
      <point x="957" y="227" type="curve" smooth="yes"/>
      <point x="957" y="375"/>
      <point x="849" y="461"/>
    </contour>
    <contour>
      <point x="402" y="559" type="curve" smooth="yes"/>
      <point x="404" y="614"/>
      <point x="439" y="644"/>
      <point x="457" y="654" type="curve"/>
      <point x="548" y="664"/>
      <point x="595" y="624"/>
      <point x="595" y="565" type="curve" smooth="yes"/>
      <point x="595" y="535"/>
      <point x="584" y="492"/>
      <point x="536" y="455" type="curve"/>
      <point x="525" y="455" type="line" smooth="yes"/>
      <point x="441" y="455"/>
      <point x="400" y="501"/>
    </contour>
    <contour>
      <point x="514" y="0" type="move" name="bottom"/>
    </contour>
    <contour>
      <point x="514" y="700" type="move" name="top"/>
    </contour>
  </outline>
</glyph>
<glyph name="T" format="1">
  <advance width="719"/>
  <unicode hex="0054"/>
  <outline>
    <contour>
      <point x="384" y="-20" type="curve"/>
      <point x="477" y="10"/>
      <point x="620" y="99"/>
      <point x="650" y="117" type="curve"/>
      <point x="633" y="141" type="line"/>
      <point x="588" y="124"/>
      <point x="540" y="102"/>
      <point x="480" y="102" type="curve" smooth="yes"/>
      <point x="341" y="102"/>
      <point x="255" y="190"/>
      <point x="255" y="314" type="curve" smooth="yes"/>
      <point x="255" y="463"/>
      <point x="417" y="599"/>
      <point x="536" y="596" type="curve" smooth="yes"/>
      <point x="574" y="595"/>
      <point x="623" y="596"/>
      <point x="661" y="604" type="curve"/>
      <point x="704" y="705" type="line"/>
      <point x="688" y="716" type="line"/>
      <point x="675" y="702"/>
      <point x="585" y="702"/>
      <point x="524" y="702" type="curve" smooth="yes"/>
      <point x="443" y="702"/>
      <point x="336" y="710"/>
      <point x="262" y="710" type="curve"/>
      <point x="178" y="681"/>
      <point x="109" y="633"/>
      <point x="40" y="564" type="curve"/>
      <point x="62" y="550" type="line"/>
      <point x="183" y="624"/>
      <point x="286" y="626"/>
      <point x="421" y="604" type="curve"/>
      <point x="306" y="556"/>
      <point x="106" y="449"/>
      <point x="106" y="267" type="curve" smooth="yes"/>
      <point x="106" y="106"/>
      <point x="199" y="11"/>
    </contour>
    <contour>
      <point x="355" y="0" type="move" name="bottom"/>
    </contour>
    <contour>
      <point x="355" y="350" type="move" name="center"/>
    </contour>
    <contour>
      <point x="355" y="700" type="move" name="top"/>
    </contour>
  </outline>
</glyph>
<glyph name="U" format="1">
  <advance width="807"/>
  <unicode hex="0055"/>
  <outline>
    <contour>
      <point x="680" y="125" type="move"/>
    </contour>
    <contour>
      <point x="797" y="92" type="line"/>
      <point x="794" y="127" type="line"/>
      <point x="716" y="109"/>
      <point x="677" y="164"/>
      <point x="675" y="252" type="curve" smooth="yes"/>
      <point x="672" y="381"/>
      <point x="662" y="586"/>
      <point x="727" y="706" type="curve"/>
      <point x="716" y="728" type="line"/>
      <point x="560" y="659" type="line"/>
      <point x="561" y="163" type="line"/>
      <point x="548" y="155"/>
      <point x="532" y="146"/>
      <point x="514" y="136" type="curve"/>
      <point x="516" y="339"/>
      <point x="520" y="440"/>
      <point x="526" y="651" type="curve"/>
      <point x="478" y="633" type="line"/>
      <point x="476" y="115" type="line"/>
      <point x="433" y="93"/>
      <point x="389" y="73"/>
      <point x="365" y="73" type="curve" smooth="yes"/>
      <point x="305" y="73"/>
      <point x="181" y="102"/>
      <point x="181" y="249" type="curve" smooth="yes"/>
      <point x="181" y="337"/>
      <point x="264" y="480"/>
      <point x="305" y="532" type="curve" smooth="yes"/>
      <point x="323" y="555"/>
      <point x="375" y="588"/>
      <point x="375" y="592" type="curve" smooth="yes"/>
      <point x="375" y="601"/>
      <point x="233" y="723"/>
      <point x="223" y="723" type="curve" smooth="yes"/>
      <point x="207" y="723"/>
      <point x="88" y="640"/>
      <point x="40" y="598" type="curve"/>
      <point x="54" y="578" type="line"/>
      <point x="54" y="578"/>
      <point x="112" y="604"/>
      <point x="133" y="604" type="curve" smooth="yes"/>
      <point x="165" y="604"/>
      <point x="224" y="566"/>
      <point x="251" y="533" type="curve"/>
      <point x="148" y="413"/>
      <point x="44" y="288"/>
      <point x="44" y="190" type="curve" smooth="yes"/>
      <point x="44" y="71"/>
      <point x="161" y="-20"/>
      <point x="283" y="-20" type="curve"/>
      <point x="568" y="123" type="line"/>
      <point x="662" y="-19" type="line"/>
    </contour>
  </outline>
</glyph>
<glyph name="W" format="1">
  <advance width="1164"/>
  <unicode hex="0057"/>
  <outline>
    <contour>
      <point x="1159" y="702" type="curve"/>
      <point x="1136" y="720" type="line"/>
      <point x="1123" y="713"/>
      <point x="1068" y="702"/>
      <point x="1018" y="702" type="curve"/>
      <point x="966" y="702"/>
      <point x="898" y="733"/>
      <point x="872" y="720" type="curve"/>
      <point x="824" y="659"/>
      <point x="789" y="617"/>
      <point x="769" y="582" type="curve"/>
      <point x="789" y="542"/>
      <point x="814" y="538"/>
      <point x="856" y="538" type="curve"/>
      <point x="867" y="553" type="line"/>
      <point x="852" y="572"/>
      <point x="834" y="596"/>
      <point x="832" y="619" type="curve"/>
      <point x="873" y="642"/>
      <point x="932" y="585"/>
      <point x="986" y="585" type="curve"/>
      <point x="1010" y="585"/>
      <point x="1031" y="595"/>
      <point x="1062" y="605" type="curve"/>
      <point x="1024" y="525"/>
      <point x="953" y="343"/>
      <point x="875" y="107" type="curve"/>
      <point x="825" y="350"/>
      <point x="728" y="717"/>
      <point x="536" y="717" type="curve"/>
      <point x="506" y="717"/>
      <point x="487" y="711"/>
      <point x="472" y="702" type="curve"/>
      <point x="458" y="677"/>
      <point x="422" y="609"/>
      <point x="397" y="564" type="curve"/>
      <point x="328" y="652"/>
      <point x="249" y="712"/>
      <point x="170" y="712" type="curve"/>
      <point x="140" y="712"/>
      <point x="121" y="707"/>
      <point x="106" y="697" type="curve"/>
      <point x="87" y="663"/>
      <point x="32" y="580"/>
      <point x="12" y="550" type="curve"/>
      <point x="-10" y="499"/>
      <point x="25" y="422"/>
      <point x="75" y="422" type="curve"/>
      <point x="91" y="442"/>
      <point x="110" y="478"/>
      <point x="132" y="516" type="curve"/>
      <point x="55" y="570"/>
      <point x="84" y="616"/>
      <point x="118" y="616" type="curve"/>
      <point x="274" y="616"/>
      <point x="464" y="263"/>
      <point x="511" y="0" type="curve"/>
      <point x="616" y="0" type="line"/>
      <point x="650" y="125"/>
      <point x="678" y="205"/>
      <point x="715" y="296" type="curve"/>
      <point x="742" y="200"/>
      <point x="763" y="95"/>
      <point x="780" y="0" type="curve"/>
      <point x="890" y="0" type="line"/>
      <point x="960" y="244"/>
      <point x="1041" y="467"/>
    </contour>
    <contour>
      <point x="604" y="104" type="curve"/>
      <point x="604" y="104" type="line"/>
      <point x="579" y="237"/>
      <point x="509" y="408"/>
      <point x="419" y="534" type="curve"/>
      <point x="441" y="568"/>
      <point x="465" y="603"/>
      <point x="502" y="603" type="curve"/>
      <point x="587" y="603"/>
      <point x="648" y="500"/>
      <point x="694" y="364" type="curve"/>
      <point x="669" y="293"/>
      <point x="617" y="145"/>
    </contour>
  </outline>
</glyph>
<glyph name="X" format="1">
  <advance width="951"/>
  <unicode hex="0058"/>
  <outline>
    <contour>
      <point x="757" y="77" type="curve" smooth="yes"/>
      <point x="660" y="77"/>
      <point x="506" y="136"/>
      <point x="506" y="309" type="curve" smooth="yes"/>
      <point x="506" y="433"/>
      <point x="556" y="538"/>
      <point x="609" y="575" type="curve"/>
      <point x="638" y="555"/>
      <point x="670" y="527"/>
      <point x="727" y="512" type="curve"/>
      <point x="769" y="538"/>
      <point x="858" y="584"/>
      <point x="941" y="655" type="curve"/>
      <point x="921" y="687" type="line"/>
      <point x="883" y="660"/>
      <point x="843" y="630"/>
      <point x="798" y="630" type="curve" smooth="yes"/>
      <point x="754" y="630"/>
      <point x="727" y="698"/>
      <point x="714" y="718" type="curve"/>
      <point x="696" y="718"/>
      <point x="487" y="543"/>
      <point x="443" y="474" type="curve"/>
      <point x="419" y="554"/>
      <point x="340" y="649"/>
      <point x="226" y="651" type="curve" smooth="yes"/>
      <point x="147" y="652"/>
      <point x="67" y="600"/>
      <point x="20" y="538" type="curve"/>
      <point x="36" y="516" type="line"/>
      <point x="78" y="545"/>
      <point x="108" y="552"/>
      <point x="150" y="552" type="curve" smooth="yes"/>
      <point x="277" y="552"/>
      <point x="344" y="404"/>
      <point x="344" y="257" type="curve" smooth="yes"/>
      <point x="344" y="81"/>
      <point x="252" y="-62"/>
      <point x="128" y="-175" type="curve"/>
      <point x="145" y="-209" type="line"/>
      <point x="213" y="-147"/>
      <point x="359" y="-34"/>
      <point x="418" y="118" type="curve"/>
      <point x="456" y="39"/>
      <point x="567" y="-20"/>
      <point x="628" y="-20" type="curve"/>
      <point x="678" y="-2"/>
      <point x="872" y="55"/>
      <point x="920" y="81" type="curve"/>
      <point x="909" y="107" type="line"/>
      <point x="838" y="84"/>
      <point x="793" y="77"/>
    </contour>
    <contour>
      <point x="485" y="0" type="move" name="bottom"/>
    </contour>
    <contour>
      <point x="485" y="700" type="move" name="top"/>
    </contour>
  </outline>
</glyph>
<glyph name="Y" format="1">
  <advance width="663"/>
  <unicode hex="0059"/>
  <outline>
    <contour>
      <point x="523" y="720" type="curve" smooth="yes"/>
      <point x="478" y="721"/>
      <point x="456" y="713"/>
      <point x="435" y="702" type="curve"/>
      <point x="392" y="666"/>
      <point x="355" y="621"/>
      <point x="316" y="567" type="curve"/>
      <point x="304" y="659"/>
      <point x="253" y="721"/>
      <point x="150" y="721" type="curve"/>
      <point x="101" y="674"/>
      <point x="15" y="565"/>
      <point x="5" y="554" type="curve"/>
      <point x="28" y="536" type="line"/>
      <point x="45" y="557"/>
      <point x="78" y="591"/>
      <point x="120" y="591" type="curve" smooth="yes"/>
      <point x="165" y="591"/>
      <point x="190" y="563"/>
      <point x="189" y="517" type="curve" smooth="yes"/>
      <point x="183" y="-6" type="line" smooth="yes"/>
      <point x="183" y="-36"/>
      <point x="155" y="-129"/>
      <point x="114" y="-209" type="curve"/>
      <point x="146" y="-230" type="line"/>
      <point x="330" y="33"/>
      <point x="506" y="311"/>
      <point x="602" y="453" type="curve" smooth="yes"/>
      <point x="633" y="499"/>
      <point x="648" y="547"/>
      <point x="648" y="599" type="curve" smooth="yes"/>
      <point x="648" y="669"/>
      <point x="592" y="718"/>
    </contour>
    <contour>
      <point x="316" y="90" type="curve"/>
      <point x="319" y="517" type="line"/>
      <point x="319" y="528" type="line"/>
      <point x="354" y="571"/>
      <point x="393" y="591"/>
      <point x="433" y="591" type="curve" smooth="yes"/>
      <point x="485" y="591"/>
      <point x="528" y="546"/>
      <point x="528" y="487" type="curve" smooth="yes"/>
      <point x="528" y="388"/>
      <point x="393" y="212"/>
    </contour>
    <contour>
      <point x="303" y="0" type="move" name="bottom"/>
    </contour>
    <contour>
      <point x="303" y="700" type="move" name="top"/>
    </contour>
    <contour>
      <point x="-29" y="700" type="move" name="topleft"/>
    </contour>
  </outline>
</glyph>
<glyph name="Z" format="1">
  <advance width="701"/>
  <unicode hex="005A"/>
  <outline>
    <contour>
      <point x="371" y="401" type="curve"/>
      <point x="467" y="484"/>
      <point x="564" y="600"/>
      <point x="663" y="676" type="curve"/>
      <point x="641" y="704" type="line"/>
      <point x="531" y="685"/>
      <point x="466" y="676"/>
      <point x="413" y="676" type="curve" smooth="yes"/>
      <point x="304" y="676"/>
      <point x="196" y="716"/>
      <point x="145" y="716" type="curve"/>
      <point x="147" y="715"/>
      <point x="63" y="659"/>
      <point x="20" y="598" type="curve"/>
      <point x="41" y="577" type="line"/>
      <point x="77" y="605"/>
      <point x="112" y="612"/>
      <point x="141" y="612" type="curve" smooth="yes"/>
      <point x="198" y="612"/>
      <point x="279" y="586"/>
      <point x="354" y="586" type="curve" smooth="yes"/>
      <point x="398" y="586"/>
      <point x="448" y="591"/>
      <point x="499" y="600" type="curve"/>
      <point x="387" y="459"/>
      <point x="275" y="370"/>
      <point x="66" y="273" type="curve"/>
      <point x="85" y="232" type="line"/>
      <point x="131" y="253"/>
      <point x="230" y="304"/>
      <point x="236" y="304" type="curve" smooth="yes"/>
      <point x="364" y="304"/>
      <point x="518" y="262"/>
      <point x="518" y="140" type="curve" smooth="yes"/>
      <point x="518" y="71"/>
      <point x="478" y="3"/>
      <point x="424" y="-43" type="curve" smooth="yes"/>
      <point x="373" y="-86"/>
      <point x="279" y="-134"/>
      <point x="264" y="-134" type="curve" smooth="yes"/>
      <point x="246" y="-134"/>
      <point x="179" y="-56"/>
      <point x="173" y="-56" type="curve"/>
      <point x="144" y="-75"/>
      <point x="86" y="-127"/>
      <point x="66" y="-142" type="curve"/>
      <point x="76" y="-163"/>
      <point x="131" y="-218"/>
      <point x="178" y="-240" type="curve"/>
      <point x="236" y="-214"/>
      <point x="294" y="-182"/>
      <point x="393" y="-117" type="curve" smooth="yes"/>
      <point x="505" y="-43"/>
      <point x="666" y="58"/>
      <point x="666" y="192" type="curve" smooth="yes"/>
      <point x="666" y="326"/>
      <point x="488" y="394"/>
    </contour>
    <contour>
      <point x="331" y="0" type="move" name="bottom"/>
    </contour>
    <contour>
      <point x="331" y="700" type="move" name="top"/>
    </contour>
  </outline>
</glyph>
<glyph name="a" format="1">
  <advance width="423"/>
  <unicode hex="0061"/>
  <outline>
    <contour>
      <point x="398" y="42" type="curve"/>
      <point x="397" y="61" type="line"/>
      <point x="376" y="74"/>
      <point x="362" y="89"/>
      <point x="362" y="124" type="curve" smooth="yes"/>
      <point x="362" y="154"/>
      <point x="368" y="298"/>
      <point x="368" y="328" type="curve" smooth="yes"/>
      <point x="368" y="391"/>
      <point x="309" y="451"/>
      <point x="241" y="451" type="curve"/>
      <point x="194" y="440"/>
      <point x="102" y="394"/>
      <point x="31" y="350" type="curve"/>
      <point x="47" y="320" type="line"/>
      <point x="92" y="349"/>
      <point x="137" y="378"/>
      <point x="180" y="378" type="curve" smooth="yes"/>
      <point x="236" y="378"/>
      <point x="259" y="343"/>
      <point x="259" y="319" type="curve" smooth="yes"/>
      <point x="259" y="304" type="line"/>
      <point x="180" y="245"/>
      <point x="56" y="144"/>
      <point x="5" y="94" type="curve"/>
      <point x="36" y="65"/>
      <point x="64" y="17"/>
      <point x="91" y="-20" type="curve"/>
      <point x="136" y="4"/>
      <point x="210" y="45"/>
      <point x="258" y="69" type="curve"/>
      <point x="258" y="41"/>
      <point x="270" y="9"/>
      <point x="291" y="-21" type="curve"/>
      <point x="328" y="-8"/>
      <point x="376" y="24"/>
    </contour>
    <contour>
      <point x="131" y="136" type="curve" smooth="yes"/>
      <point x="131" y="165"/>
      <point x="182" y="211"/>
      <point x="259" y="256" type="curve"/>
      <point x="259" y="208"/>
      <point x="258" y="146"/>
      <point x="258" y="105" type="curve"/>
      <point x="240" y="90"/>
      <point x="219" y="78"/>
      <point x="199" y="78" type="curve" smooth="yes"/>
      <point x="160" y="78"/>
      <point x="131" y="103"/>
    </contour>
    <contour>
      <point x="212" y="0" type="move" name="bottom"/>
    </contour>
    <contour>
      <point x="376" y="2" type="move" name="ogonek"/>
    </contour>
    <contour>
      <point x="212" y="430" type="move" name="top"/>
    </contour>
  </outline>
</glyph>
<glyph name="b" format="1">
  <advance width="498"/>
  <unicode hex="0062"/>
  <outline>
    <contour>
      <point x="305" y="450" type="curve"/>
      <point x="173" y="348" type="line"/>
      <point x="182" y="718" type="line"/>
      <point x="174" y="722" type="line"/>
      <point x="58" y="670" type="line"/>
      <point x="58" y="424" type="line" smooth="yes"/>
      <point x="59" y="400"/>
      <point x="33" y="370"/>
      <point x="10" y="336" type="curve"/>
      <point x="10" y="328" type="line"/>
      <point x="33" y="320"/>
      <point x="58" y="304"/>
      <point x="58" y="270" type="curve" smooth="yes"/>
      <point x="58" y="69" type="line"/>
      <point x="87" y="45"/>
      <point x="133" y="17"/>
      <point x="190" y="-20" type="curve"/>
      <point x="275" y="5"/>
      <point x="366" y="55"/>
      <point x="413" y="85" type="curve"/>
      <point x="435" y="109"/>
      <point x="473" y="150"/>
      <point x="473" y="230" type="curve" smooth="yes"/>
      <point x="473" y="341"/>
      <point x="419" y="450"/>
    </contour>
    <contour>
      <point x="275" y="79" type="curve" smooth="yes"/>
      <point x="228" y="79"/>
      <point x="173" y="107"/>
      <point x="173" y="175" type="curve" smooth="yes"/>
      <point x="173" y="218"/>
      <point x="169" y="278"/>
      <point x="181" y="322" type="curve"/>
      <point x="199" y="331"/>
      <point x="220" y="341"/>
      <point x="245" y="341" type="curve" smooth="yes"/>
      <point x="311" y="341"/>
      <point x="359" y="294"/>
      <point x="359" y="213" type="curve" smooth="yes"/>
      <point x="359" y="141"/>
      <point x="332" y="79"/>
    </contour>
    <contour>
      <point x="247" y="0" type="move" name="bottom"/>
    </contour>
    <contour>
      <point x="247" y="430" type="move" name="top"/>
    </contour>
  </outline>
</glyph>
<glyph name="d" format="1">
  <advance width="515"/>
  <unicode hex="0064"/>
  <outline>
    <contour>
      <point x="460" y="719" type="move"/>
    </contour>
    <contour>
      <point x="456" y="127" type="curve"/>
      <point x="456" y="127" type="line"/>
      <point x="456" y="342"/>
      <point x="459" y="592"/>
      <point x="466" y="714" type="curve"/>
      <point x="460" y="719" type="line"/>
      <point x="288" y="640" type="line"/>
      <point x="297" y="619" type="line"/>
      <point x="316" y="627" type="line"/>
      <point x="352" y="603"/>
      <point x="353" y="559"/>
      <point x="357" y="447" type="curve"/>
      <point x="357" y="443" type="line"/>
      <point x="99" y="312" type="line" smooth="yes"/>
      <point x="56" y="290"/>
      <point x="25" y="252"/>
      <point x="25" y="168" type="curve"/>
      <point x="25" y="73"/>
      <point x="81" y="-10"/>
      <point x="202" y="-20" type="curve"/>
      <point x="252" y="9"/>
      <point x="306" y="46"/>
      <point x="354" y="75" type="curve"/>
      <point x="354" y="69" type="line" smooth="yes"/>
      <point x="353" y="24"/>
      <point x="376" y="-19"/>
      <point x="422" y="-19" type="curve"/>
      <point x="437" y="-19"/>
      <point x="473" y="31"/>
      <point x="500" y="53" type="curve"/>
      <point x="500" y="70" type="line"/>
      <point x="466" y="75"/>
      <point x="456" y="92"/>
    </contour>
    <contour>
      <point x="253" y="76" type="curve"/>
      <point x="253" y="76" type="line"/>
      <point x="199" y="76"/>
      <point x="142" y="118"/>
      <point x="142" y="198" type="curve"/>
      <point x="142" y="277"/>
      <point x="192" y="332"/>
      <point x="254" y="332" type="curve"/>
      <point x="286" y="332"/>
      <point x="351" y="319"/>
      <point x="356" y="231" type="curve"/>
      <point x="356" y="209"/>
      <point x="355" y="185"/>
      <point x="355" y="160" type="curve"/>
      <point x="333" y="104"/>
      <point x="294" y="76"/>
    </contour>
    <contour>
      <point x="258" y="0" type="move" name="bottom"/>
    </contour>
    <contour>
      <point x="258" y="215" type="move" name="center"/>
    </contour>
    <contour>
      <point x="258" y="430" type="move" name="top"/>
    </contour>
    <contour>
      <point x="485" y="430" type="move" name="topright"/>
    </contour>
  </outline>
</glyph>
<glyph name="e" format="1">
  <advance width="401"/>
  <unicode hex="0065"/>
  <outline>
    <contour>
      <point x="391" y="326" type="curve" smooth="yes"/>
      <point x="391" y="346"/>
      <point x="312" y="450"/>
      <point x="281" y="450" type="curve" smooth="yes"/>
      <point x="253" y="450"/>
      <point x="88" y="372"/>
      <point x="67" y="352" type="curve" smooth="yes"/>
      <point x="50" y="336"/>
      <point x="30" y="284"/>
      <point x="30" y="182" type="curve" smooth="yes"/>
      <point x="30" y="73"/>
      <point x="108" y="-20"/>
      <point x="207" y="-20" type="curve" smooth="yes"/>
      <point x="243" y="-20"/>
      <point x="320" y="26"/>
      <point x="371" y="52" type="curve"/>
      <point x="368" y="82" type="line"/>
      <point x="348" y="78"/>
      <point x="295" y="73"/>
      <point x="276" y="74" type="curve" smooth="yes"/>
      <point x="221" y="77"/>
      <point x="190" y="99"/>
      <point x="172" y="130" type="curve"/>
      <point x="254" y="196"/>
      <point x="391" y="314"/>
    </contour>
    <contour>
      <point x="158" y="165" type="curve"/>
      <point x="151" y="192"/>
      <point x="149" y="222"/>
      <point x="149" y="253" type="curve" smooth="yes"/>
      <point x="149" y="296"/>
      <point x="154" y="367"/>
      <point x="191" y="367" type="curve" smooth="yes"/>
      <point x="237" y="367"/>
      <point x="261" y="316"/>
      <point x="261" y="292" type="curve" smooth="yes"/>
      <point x="261" y="246"/>
      <point x="208" y="197"/>
    </contour>
    <contour>
      <point x="208" y="0" type="move" name="bottom"/>
    </contour>
    <contour>
      <point x="358" y="10" type="move" name="ogonek"/>
    </contour>
    <contour>
      <point x="208" y="430" type="move" name="top"/>
    </contour>
  </outline>
</glyph>
<glyph name="f" format="1">
  <advance width="304"/>
  <unicode hex="0066"/>
  <outline>
    <contour>
      <point x="72" y="-20" type="line"/>
      <point x="178" y="9" type="line"/>
      <point x="178" y="321" type="line"/>
      <point x="304" y="321" type="line"/>
      <point x="304" y="408" type="line"/>
      <point x="178" y="408" type="line"/>
      <point x="178" y="600" type="line"/>
      <point x="192" y="610"/>
      <point x="207" y="612"/>
      <point x="221" y="612" type="curve" smooth="yes"/>
      <point x="248" y="612"/>
      <point x="281" y="590"/>
      <point x="307" y="561" type="curve"/>
      <point x="315" y="562" type="line"/>
      <point x="394" y="640" type="line"/>
      <point x="394" y="646" type="line"/>
      <point x="352" y="681"/>
      <point x="287" y="699"/>
      <point x="251" y="699" type="curve" smooth="yes"/>
      <point x="242" y="699"/>
      <point x="107" y="610"/>
      <point x="77" y="589" type="curve" smooth="yes"/>
      <point x="63" y="579"/>
      <point x="62" y="578"/>
      <point x="64" y="562" type="curve" smooth="yes"/>
      <point x="72" y="482"/>
      <point x="53" y="421"/>
      <point x="20" y="357" type="curve"/>
      <point x="20" y="350" type="line"/>
      <point x="43" y="333"/>
      <point x="66" y="323"/>
      <point x="66" y="279" type="curve" smooth="yes"/>
      <point x="66" y="-17" type="line"/>
    </contour>
    <contour>
      <point x="166" y="0" type="move" name="bottom"/>
    </contour>
    <contour>
      <point x="166" y="430" type="move" name="top"/>
    </contour>
  </outline>
</glyph>
<glyph name="g" format="1">
  <advance width="523"/>
  <unicode hex="0067"/>
  <outline>
    <contour>
      <point x="324" y="140" type="curve"/>
      <point x="363" y="184"/>
      <point x="397" y="244"/>
      <point x="427" y="287" type="curve"/>
      <point x="448" y="293"/>
      <point x="488" y="294"/>
      <point x="508" y="295" type="curve"/>
      <point x="495" y="390" type="line"/>
      <point x="325" y="405"/>
      <point x="321" y="415"/>
      <point x="241" y="454" type="curve"/>
      <point x="199" y="441"/>
      <point x="98" y="363"/>
      <point x="50" y="317" type="curve"/>
      <point x="30" y="282"/>
      <point x="15" y="239"/>
      <point x="15" y="200" type="curve" smooth="yes"/>
      <point x="15" y="98"/>
      <point x="74" y="54"/>
      <point x="156" y="34" type="curve"/>
      <point x="119" y="10"/>
      <point x="65" y="-30"/>
      <point x="44" y="-49" type="curve"/>
      <point x="19" y="-184"/>
      <point x="126" y="-228"/>
      <point x="208" y="-240" type="curve"/>
      <point x="268" y="-231"/>
      <point x="331" y="-214"/>
      <point x="386" y="-193" type="curve"/>
      <point x="428" y="-167"/>
      <point x="486" y="-124"/>
      <point x="486" y="-38" type="curve" smooth="yes"/>
      <point x="486" y="39"/>
      <point x="438" y="106"/>
    </contour>
    <contour>
      <point x="111" y="231" type="curve" smooth="yes"/>
      <point x="111" y="279"/>
      <point x="129" y="308"/>
      <point x="139" y="325" type="curve"/>
      <point x="215" y="384"/>
      <point x="319" y="322"/>
      <point x="319" y="241" type="curve" smooth="yes"/>
      <point x="319" y="208"/>
      <point x="309" y="173"/>
      <point x="278" y="140" type="curve"/>
      <point x="187" y="106"/>
      <point x="111" y="154"/>
    </contour>
    <contour>
      <point x="286" y="-179" type="curve" smooth="yes"/>
      <point x="227" y="-179"/>
      <point x="157" y="-144"/>
      <point x="157" y="-59" type="curve" smooth="yes"/>
      <point x="157" y="-20"/>
      <point x="182" y="17"/>
      <point x="204" y="39" type="curve"/>
      <point x="303" y="62"/>
      <point x="377" y="14"/>
      <point x="381" y="-61" type="curve" smooth="yes"/>
      <point x="384" y="-125"/>
      <point x="348" y="-179"/>
    </contour>
    <contour>
      <point x="286" y="0" type="move" name="bottom"/>
    </contour>
    <contour>
      <point x="286" y="430" type="move" name="top"/>
    </contour>
  </outline>
</glyph>
<glyph name="i" format="1">
  <advance width="236"/>
  <unicode hex="0069"/>
  <outline>
    <contour>
      <point x="111" y="550" type="line"/>
      <point x="114" y="550" type="line"/>
      <point x="191" y="714" type="line"/>
      <point x="191" y="717" type="line"/>
      <point x="153" y="733" type="line"/>
      <point x="150" y="732" type="line"/>
      <point x="104" y="588" type="line"/>
    </contour>
    <contour>
      <point x="75" y="-14" type="line"/>
      <point x="187" y="11" type="line"/>
      <point x="184" y="115"/>
      <point x="186" y="238"/>
      <point x="186" y="332" type="curve" smooth="yes"/>
      <point x="186" y="418"/>
      <point x="140" y="464"/>
      <point x="72" y="445" type="curve"/>
      <point x="10" y="362" type="line"/>
      <point x="10" y="342" type="line"/>
      <point x="40" y="334"/>
      <point x="68" y="331"/>
      <point x="70" y="282" type="curve" smooth="yes"/>
      <point x="72" y="200"/>
      <point x="72" y="103"/>
      <point x="68" y="-10" type="curve"/>
    </contour>
    <contour>
      <point x="108" y="0" type="move" name="bottom"/>
    </contour>
  </outline>
</glyph>
<glyph name="k" format="1">
  <advance width="435"/>
  <unicode hex="006B"/>
  <outline>
    <contour>
      <point x="265" y="231" type="curve"/>
      <point x="265" y="231" type="line"/>
      <point x="295" y="255"/>
      <point x="326" y="277"/>
      <point x="357" y="305" type="curve"/>
      <point x="417" y="390"/>
      <point x="308" y="450"/>
      <point x="278" y="450" type="curve"/>
      <point x="258" y="450"/>
      <point x="204" y="405"/>
      <point x="157" y="368" type="curve"/>
      <point x="159" y="452"/>
      <point x="162" y="563"/>
      <point x="167" y="718" type="curve"/>
      <point x="159" y="720" type="line"/>
      <point x="47" y="686" type="line"/>
      <point x="61" y="592"/>
      <point x="61" y="511"/>
      <point x="61" y="445" type="curve"/>
      <point x="61" y="413"/>
      <point x="47" y="379"/>
      <point x="10" y="341" type="curve"/>
      <point x="10" y="332" type="line"/>
      <point x="30" y="311"/>
      <point x="62" y="282"/>
      <point x="62" y="215" type="curve"/>
      <point x="62" y="155"/>
      <point x="59" y="46"/>
      <point x="39" y="26" type="curve"/>
      <point x="40" y="-1" type="line"/>
      <point x="159" y="0" type="line"/>
      <point x="158" y="64"/>
      <point x="156" y="102"/>
      <point x="156" y="159" type="curve"/>
      <point x="166" y="163" type="line"/>
      <point x="280" y="153"/>
      <point x="363" y="87"/>
      <point x="317" y="21" type="curve"/>
      <point x="321" y="18" type="line"/>
      <point x="382" y="-15" type="line"/>
      <point x="421" y="0" type="line"/>
      <point x="425" y="20"/>
      <point x="430" y="48"/>
      <point x="430" y="79" type="curve"/>
      <point x="430" y="147"/>
      <point x="363" y="213"/>
    </contour>
    <contour>
      <point x="186" y="211" type="curve"/>
      <point x="186" y="211" type="line"/>
      <point x="155" y="191" type="line"/>
      <point x="155" y="228"/>
      <point x="155" y="274"/>
      <point x="156" y="335" type="curve"/>
      <point x="208" y="366"/>
      <point x="271" y="352"/>
      <point x="271" y="296" type="curve"/>
      <point x="271" y="262"/>
      <point x="228" y="238"/>
    </contour>
  </outline>
</glyph>
<glyph name="m" format="1">
  <advance width="701"/>
  <unicode hex="006D"/>
  <outline>
    <contour>
      <point x="533" y="-2" type="curve"/>
      <point x="656" y="0" type="line"/>
      <point x="653" y="115"/>
      <point x="653" y="229"/>
      <point x="653" y="344" type="curve"/>
      <point x="653" y="430"/>
      <point x="582" y="450"/>
      <point x="518" y="450" type="curve"/>
      <point x="507" y="450"/>
      <point x="478" y="404"/>
      <point x="421" y="349" type="curve"/>
      <point x="418" y="431"/>
      <point x="349" y="450"/>
      <point x="286" y="450" type="curve"/>
      <point x="275" y="450"/>
      <point x="247" y="405"/>
      <point x="191" y="351" type="curve"/>
      <point x="189" y="415"/>
      <point x="136" y="450"/>
      <point x="83" y="450" type="curve"/>
      <point x="77" y="450"/>
      <point x="44" y="397"/>
      <point x="10" y="357" type="curve"/>
      <point x="10" y="332" type="line"/>
      <point x="43" y="332"/>
      <point x="76" y="329"/>
      <point x="76" y="271" type="curve"/>
      <point x="76" y="-5" type="line"/>
      <point x="80" y="-7" type="line"/>
      <point x="195" y="0" type="line"/>
      <point x="191" y="105"/>
      <point x="190" y="205"/>
      <point x="191" y="310" type="curve"/>
      <point x="191" y="311" type="line"/>
      <point x="204" y="323"/>
      <point x="224" y="337"/>
      <point x="244" y="337" type="curve"/>
      <point x="262" y="337"/>
      <point x="294" y="328"/>
      <point x="298" y="300" type="curve"/>
      <point x="302" y="271"/>
      <point x="305" y="94"/>
      <point x="301" y="-4" type="curve"/>
      <point x="305" y="-6" type="line"/>
      <point x="424" y="0" type="line"/>
      <point x="421" y="104"/>
      <point x="421" y="206"/>
      <point x="421" y="310" type="curve"/>
      <point x="434" y="322"/>
      <point x="455" y="337"/>
      <point x="476" y="337" type="curve"/>
      <point x="494" y="337"/>
      <point x="528" y="328"/>
      <point x="530" y="300" type="curve"/>
      <point x="532" y="271"/>
      <point x="537" y="96"/>
    </contour>
    <contour>
      <point x="338" y="0" type="move" name="bottom"/>
    </contour>
    <contour>
      <point x="338" y="430" type="move" name="top"/>
    </contour>
  </outline>
</glyph>
<glyph name="n" format="1">
  <advance width="474"/>
  <unicode hex="006E"/>
  <outline>
    <contour>
      <point x="426" y="341" type="curve"/>
      <point x="426" y="341" type="line"/>
      <point x="426" y="427"/>
      <point x="360" y="450"/>
      <point x="296" y="450" type="curve"/>
      <point x="285" y="450"/>
      <point x="253" y="403"/>
      <point x="191" y="345" type="curve"/>
      <point x="187" y="407"/>
      <point x="135" y="450"/>
      <point x="83" y="450" type="curve"/>
      <point x="77" y="450"/>
      <point x="44" y="397"/>
      <point x="10" y="357" type="curve"/>
      <point x="10" y="332" type="line"/>
      <point x="43" y="332"/>
      <point x="76" y="329"/>
      <point x="76" y="271" type="curve"/>
      <point x="76" y="-5" type="line"/>
      <point x="80" y="-7" type="line"/>
      <point x="195" y="0" type="line"/>
      <point x="191" y="93"/>
      <point x="190" y="173"/>
      <point x="191" y="302" type="curve"/>
      <point x="203" y="314"/>
      <point x="231" y="337"/>
      <point x="257" y="337" type="curve"/>
      <point x="280" y="337"/>
      <point x="311" y="329"/>
      <point x="311" y="293" type="curve"/>
      <point x="311" y="-4" type="line"/>
      <point x="315" y="-6" type="line"/>
      <point x="429" y="-3" type="line"/>
      <point x="426" y="112"/>
      <point x="426" y="226"/>
    </contour>
    <contour>
      <point x="230" y="0" type="move" name="bottom"/>
    </contour>
    <contour>
      <point x="230" y="430" type="move" name="top"/>
    </contour>
  </outline>
</glyph>
<glyph name="o" format="1">
  <advance width="474"/>
  <unicode hex="006F"/>
  <outline>
    <contour>
      <point x="206" y="-21" type="curve"/>
      <point x="245" y="-21"/>
      <point x="358" y="64"/>
      <point x="403" y="100" type="curve"/>
      <point x="433" y="132"/>
      <point x="449" y="198"/>
      <point x="449" y="234" type="curve" smooth="yes"/>
      <point x="449" y="365"/>
      <point x="346" y="441"/>
      <point x="272" y="450" type="curve"/>
      <point x="235" y="440"/>
      <point x="110" y="349"/>
      <point x="82" y="330" type="curve"/>
      <point x="54" y="302"/>
      <point x="25" y="252"/>
      <point x="25" y="194" type="curve" smooth="yes"/>
      <point x="25" y="79"/>
      <point x="113" y="-11"/>
    </contour>
    <contour>
      <point x="288" y="68" type="curve" smooth="yes"/>
      <point x="265" y="60"/>
      <point x="133" y="90"/>
      <point x="133" y="247" type="curve" smooth="yes"/>
      <point x="133" y="311"/>
      <point x="166" y="351"/>
      <point x="189" y="355" type="curve" smooth="yes"/>
      <point x="235" y="362"/>
      <point x="333" y="318"/>
      <point x="333" y="183" type="curve" smooth="yes"/>
      <point x="333" y="124"/>
      <point x="310" y="76"/>
    </contour>
    <contour>
      <point x="238" y="0" type="move" name="bottom"/>
    </contour>
    <contour>
      <point x="238" y="215" type="move" name="center"/>
    </contour>
    <contour>
      <point x="419" y="10" type="move" name="ogonek"/>
    </contour>
    <contour>
      <point x="238" y="430" type="move" name="top"/>
    </contour>
    <contour>
      <point x="444" y="430" type="move" name="topright"/>
    </contour>
  </outline>
</glyph>
<glyph name="p" format="1">
  <advance width="534"/>
  <unicode hex="0070"/>
  <outline>
    <contour>
      <point x="77" y="-244" type="line"/>
      <point x="218" y="-192" type="line"/>
      <point x="218" y="-171" type="line"/>
      <point x="203" y="-159"/>
      <point x="190" y="-153"/>
      <point x="188" y="-132" type="curve" smooth="yes"/>
      <point x="187" y="-117"/>
      <point x="183" y="-61"/>
      <point x="184" y="-13" type="curve"/>
      <point x="194" y="-12"/>
      <point x="262" y="-13"/>
      <point x="272" y="-9" type="curve" smooth="yes"/>
      <point x="290" y="-2"/>
      <point x="474" y="113"/>
      <point x="477" y="120" type="curve" smooth="yes"/>
      <point x="488" y="146"/>
      <point x="510" y="182"/>
      <point x="509" y="261" type="curve" smooth="yes"/>
      <point x="508" y="373"/>
      <point x="402" y="451"/>
      <point x="313" y="451" type="curve" smooth="yes"/>
      <point x="304" y="451"/>
      <point x="229" y="383"/>
      <point x="175" y="336" type="curve"/>
      <point x="183" y="466" type="line"/>
      <point x="173" y="470" type="line"/>
      <point x="147" y="454"/>
      <point x="48" y="394"/>
      <point x="15" y="377" type="curve"/>
      <point x="16" y="357" type="line"/>
      <point x="42" y="334"/>
      <point x="69" y="310"/>
      <point x="70" y="281" type="curve" smooth="yes"/>
      <point x="73" y="124" type="line" smooth="yes"/>
      <point x="73" y="112"/>
      <point x="59" y="86"/>
      <point x="18" y="27" type="curve"/>
      <point x="18" y="25" type="line"/>
      <point x="59" y="13"/>
      <point x="73" y="5"/>
      <point x="73" y="-10" type="curve" smooth="yes"/>
      <point x="73" y="-100"/>
      <point x="72" y="-170"/>
      <point x="70" y="-239" type="curve"/>
    </contour>
    <contour>
      <point x="303" y="73" type="curve" smooth="yes"/>
      <point x="241" y="72"/>
      <point x="200" y="114"/>
      <point x="193" y="136" type="curve" smooth="yes"/>
      <point x="177" y="186"/>
      <point x="180" y="260"/>
      <point x="187" y="300" type="curve"/>
      <point x="211" y="330"/>
      <point x="230" y="344"/>
      <point x="267" y="344" type="curve" smooth="yes"/>
      <point x="340" y="346"/>
      <point x="383" y="279"/>
      <point x="384" y="204" type="curve" smooth="yes"/>
      <point x="386" y="126"/>
      <point x="358" y="74"/>
    </contour>
    <contour>
      <point x="264" y="0" type="move" name="bottom"/>
    </contour>
    <contour>
      <point x="264" y="430" type="move" name="top"/>
    </contour>
  </outline>
</glyph>
<glyph name="q" format="1">
  <advance width="506"/>
  <unicode hex="0071"/>
  <outline>
    <contour>
      <point x="362" y="-240" type="curve" smooth="yes"/>
      <point x="362" y="-244"/>
      <point x="478" y="-226"/>
      <point x="476" y="-203" type="curve" smooth="yes"/>
      <point x="452" y="73"/>
      <point x="472" y="396"/>
      <point x="462" y="398" type="curve" smooth="yes"/>
      <point x="426" y="405"/>
      <point x="308" y="433"/>
      <point x="264" y="445" type="curve" smooth="yes"/>
      <point x="251" y="449"/>
      <point x="134" y="366"/>
      <point x="72" y="318" type="curve" smooth="yes"/>
      <point x="45" y="297"/>
      <point x="25" y="258"/>
      <point x="25" y="181" type="curve" smooth="yes"/>
      <point x="25" y="83"/>
      <point x="89" y="-19"/>
      <point x="224" y="-19" type="curve" smooth="yes"/>
      <point x="256" y="-19"/>
      <point x="303" y="44"/>
      <point x="356" y="93" type="curve"/>
      <point x="358" y="-49"/>
      <point x="362" y="-224"/>
    </contour>
    <contour>
      <point x="272" y="88" type="curve" smooth="yes"/>
      <point x="213" y="88"/>
      <point x="151" y="125"/>
      <point x="151" y="224" type="curve" smooth="yes"/>
      <point x="151" y="265"/>
      <point x="159" y="308"/>
      <point x="179" y="338" type="curve"/>
      <point x="294" y="346"/>
      <point x="358" y="286"/>
      <point x="360" y="152" type="curve"/>
      <point x="340" y="113"/>
      <point x="308" y="88"/>
    </contour>
    <contour>
      <point x="253" y="0" type="move" name="bottom"/>
    </contour>
    <contour>
      <point x="253" y="430" type="move" name="top"/>
    </contour>
  </outline>
</glyph>
<glyph name="r" format="1">
  <advance width="345"/>
  <unicode hex="0072"/>
  <outline>
    <contour>
      <point x="271" y="450" type="curve" smooth="yes"/>
      <point x="245" y="428"/>
      <point x="211" y="392"/>
      <point x="186" y="369" type="curve"/>
      <point x="172" y="402"/>
      <point x="127" y="434"/>
      <point x="83" y="450" type="curve" smooth="yes"/>
      <point x="76" y="453"/>
      <point x="44" y="404"/>
      <point x="10" y="364" type="curve"/>
      <point x="10" y="339" type="line"/>
      <point x="43" y="339"/>
      <point x="76" y="336"/>
      <point x="76" y="278" type="curve" smooth="yes"/>
      <point x="76" y="-5" type="line"/>
      <point x="80" y="-7" type="line"/>
      <point x="195" y="0" type="line"/>
      <point x="191" y="102"/>
      <point x="190" y="200"/>
      <point x="191" y="302" type="curve" smooth="yes"/>
      <point x="191" y="328" type="line"/>
      <point x="211" y="345"/>
      <point x="211" y="345"/>
      <point x="253" y="305" type="curve" smooth="yes"/>
      <point x="258" y="301"/>
      <point x="345" y="376"/>
      <point x="345" y="380" type="curve" smooth="yes"/>
      <point x="345" y="389"/>
      <point x="277" y="455"/>
    </contour>
    <contour>
      <point x="165" y="0" type="move" name="bottom"/>
    </contour>
    <contour>
      <point x="165" y="430" type="move" name="top"/>
    </contour>
  </outline>
</glyph>
<glyph name="s" format="1">
  <advance width="445"/>
  <unicode hex="0073"/>
  <outline>
    <contour>
      <point x="152" y="-20" type="curve"/>
      <point x="152" y="-20" type="line"/>
      <point x="192" y="-20"/>
      <point x="289" y="7"/>
      <point x="337" y="37" type="curve"/>
      <point x="381" y="70"/>
      <point x="420" y="109"/>
      <point x="420" y="159" type="curve"/>
      <point x="420" y="225"/>
      <point x="369" y="271"/>
      <point x="315" y="281" type="curve"/>
      <point x="298" y="281"/>
      <point x="247" y="227"/>
      <point x="200" y="227" type="curve"/>
      <point x="167" y="227"/>
      <point x="130" y="261"/>
      <point x="130" y="305" type="curve"/>
      <point x="130" y="338"/>
      <point x="148" y="365"/>
      <point x="187" y="380" type="curve"/>
      <point x="229" y="363"/>
      <point x="261" y="319"/>
      <point x="282" y="289" type="curve"/>
      <point x="313" y="299"/>
      <point x="365" y="338"/>
      <point x="405" y="370" type="curve"/>
      <point x="397" y="386" type="line"/>
      <point x="315" y="371"/>
      <point x="307" y="452"/>
      <point x="296" y="452" type="curve"/>
      <point x="221" y="452"/>
      <point x="34" y="386"/>
      <point x="34" y="266" type="curve"/>
      <point x="34" y="214"/>
      <point x="65" y="173"/>
      <point x="116" y="151" type="curve"/>
      <point x="143" y="168"/>
      <point x="195" y="196"/>
      <point x="205" y="196" type="curve"/>
      <point x="266" y="198"/>
      <point x="305" y="166"/>
      <point x="305" y="119" type="curve"/>
      <point x="305" y="71"/>
      <point x="274" y="38"/>
      <point x="230" y="33" type="curve"/>
      <point x="188" y="33"/>
      <point x="151" y="81"/>
      <point x="141" y="125" type="curve"/>
      <point x="137" y="127" type="line"/>
      <point x="31" y="100" type="line"/>
      <point x="30" y="98" type="line"/>
      <point x="26" y="41"/>
      <point x="99" y="-10"/>
    </contour>
    <contour>
      <point x="223" y="0" type="move" name="bottom"/>
    </contour>
    <contour>
      <point x="223" y="430" type="move" name="top"/>
    </contour>
  </outline>
</glyph>
<glyph name="t" format="1">
  <advance width="297"/>
  <unicode hex="0074"/>
  <outline>
    <contour>
      <point x="147" y="-20" type="curve"/>
      <point x="147" y="-20" type="line"/>
      <point x="183" y="-20"/>
      <point x="227" y="32"/>
      <point x="269" y="67" type="curve"/>
      <point x="268" y="84" type="line"/>
      <point x="245" y="80"/>
      <point x="222" y="80"/>
      <point x="216" y="81" type="curve"/>
      <point x="195" y="84"/>
      <point x="169" y="105"/>
      <point x="168" y="122" type="curve"/>
      <point x="163" y="195"/>
      <point x="163" y="269"/>
      <point x="166" y="342" type="curve"/>
      <point x="297" y="341" type="line"/>
      <point x="297" y="430" type="line"/>
      <point x="167" y="430" type="line"/>
      <point x="167" y="529" type="line"/>
      <point x="153" y="530" type="line"/>
      <point x="112" y="475"/>
      <point x="71" y="430"/>
      <point x="10" y="375" type="curve"/>
      <point x="11" y="362" type="line"/>
      <point x="41" y="353"/>
      <point x="53" y="343"/>
      <point x="53" y="325" type="curve"/>
      <point x="55" y="239"/>
      <point x="55" y="152"/>
      <point x="53" y="66" type="curve"/>
      <point x="52" y="31"/>
      <point x="117" y="-20"/>
    </contour>
    <contour>
      <point x="149" y="0" type="move" name="bottom"/>
    </contour>
    <contour>
      <point x="149" y="215" type="move" name="center"/>
    </contour>
    <contour>
      <point x="149" y="430" type="move" name="top"/>
    </contour>
    <contour>
      <point x="277" y="430" type="move" name="topright"/>
    </contour>
  </outline>
</glyph>
<glyph name="v" format="1">
  <advance width="534"/>
  <unicode hex="0076"/>
  <outline>
    <contour>
      <point x="304" y="-19" type="curve"/>
      <point x="320" y="-19" type="line"/>
      <point x="403" y="110"/>
      <point x="529" y="293"/>
      <point x="529" y="347" type="curve" smooth="yes"/>
      <point x="529" y="389"/>
      <point x="453" y="449"/>
      <point x="439" y="449" type="curve" smooth="yes"/>
      <point x="424" y="449"/>
      <point x="327" y="358"/>
      <point x="263" y="319" type="curve"/>
      <point x="229" y="378" type="line" smooth="yes"/>
      <point x="203" y="423"/>
      <point x="181" y="450"/>
      <point x="102" y="450" type="curve" smooth="yes"/>
      <point x="85" y="450"/>
      <point x="15" y="321"/>
      <point x="-15" y="272" type="curve"/>
      <point x="6" y="258" type="line"/>
      <point x="23" y="283"/>
      <point x="48" y="326"/>
      <point x="67" y="326" type="curve" smooth="yes"/>
      <point x="100" y="326"/>
      <point x="135" y="304"/>
      <point x="160" y="258" type="curve" smooth="yes"/>
      <point x="190" y="202"/>
      <point x="240" y="106"/>
    </contour>
    <contour>
      <point x="368" y="116" type="curve"/>
      <point x="281" y="290" type="line"/>
      <point x="299" y="310"/>
      <point x="330" y="330"/>
      <point x="341" y="330" type="curve" smooth="yes"/>
      <point x="381" y="330"/>
      <point x="428" y="298"/>
      <point x="428" y="250" type="curve" smooth="yes"/>
      <point x="428" y="211"/>
      <point x="405" y="166"/>
    </contour>
    <contour>
      <point x="257" y="0" type="move" name="bottom"/>
    </contour>
    <contour>
      <point x="257" y="430" type="move" name="top"/>
    </contour>
  </outline>
</glyph>
<glyph name="w" format="1">
  <advance width="772"/>
  <unicode hex="0077"/>
  <outline>
    <contour>
      <point x="438" y="240" type="move"/>
    </contour>
    <contour>
      <point x="621" y="451" type="curve" smooth="yes"/>
      <point x="606" y="451"/>
      <point x="557" y="371"/>
      <point x="530" y="332" type="curve"/>
      <point x="506" y="377" type="line" smooth="yes"/>
      <point x="482" y="423"/>
      <point x="458" y="449"/>
      <point x="379" y="449" type="curve" smooth="yes"/>
      <point x="366" y="449"/>
      <point x="320" y="370"/>
      <point x="287" y="313" type="curve"/>
      <point x="283" y="319" type="line"/>
      <point x="249" y="378" type="line" smooth="yes"/>
      <point x="223" y="423"/>
      <point x="201" y="450"/>
      <point x="122" y="450" type="curve" smooth="yes"/>
      <point x="105" y="450"/>
      <point x="35" y="321"/>
      <point x="5" y="272" type="curve"/>
      <point x="26" y="258" type="line"/>
      <point x="43" y="283"/>
      <point x="68" y="326"/>
      <point x="87" y="326" type="curve" smooth="yes"/>
      <point x="120" y="326"/>
      <point x="155" y="304"/>
      <point x="180" y="258" type="curve" smooth="yes"/>
      <point x="210" y="202"/>
      <point x="260" y="106"/>
      <point x="324" y="-19" type="curve"/>
      <point x="340" y="-19" type="line"/>
      <point x="399" y="72"/>
      <point x="445" y="140"/>
      <point x="475" y="186" type="curve"/>
      <point x="503" y="132"/>
      <point x="540" y="62"/>
      <point x="582" y="-20" type="curve"/>
      <point x="598" y="-20" type="line"/>
      <point x="681" y="109"/>
      <point x="767" y="263"/>
      <point x="767" y="317" type="curve" smooth="yes"/>
      <point x="767" y="386"/>
      <point x="703" y="451"/>
    </contour>
    <contour>
      <point x="645" y="134" type="curve"/>
      <point x="548" y="299" type="line"/>
      <point x="566" y="326"/>
      <point x="588" y="334"/>
      <point x="599" y="334" type="curve" smooth="yes"/>
      <point x="639" y="334"/>
      <point x="685" y="297"/>
      <point x="685" y="239" type="curve" smooth="yes"/>
      <point x="685" y="220"/>
      <point x="682" y="184"/>
    </contour>
    <contour>
      <point x="389" y="129" type="curve"/>
      <point x="302" y="285" type="line"/>
      <point x="316" y="306"/>
      <point x="334" y="325"/>
      <point x="354" y="325" type="curve" smooth="yes"/>
      <point x="387" y="325"/>
      <point x="412" y="303"/>
      <point x="437" y="257" type="curve" smooth="yes"/>
      <point x="442" y="248"/>
      <point x="447" y="238"/>
      <point x="453" y="226" type="curve"/>
      <point x="437" y="200"/>
      <point x="414" y="163"/>
    </contour>
  </outline>
</glyph>
<glyph name="x" format="1">
  <advance width="425"/>
  <unicode hex="0078"/>
  <outline>
    <contour>
      <point x="21" y="-116" type="line"/>
      <point x="58" y="-32"/>
      <point x="112" y="24"/>
      <point x="140" y="83" type="curve"/>
      <point x="185" y="14"/>
      <point x="231" y="-28"/>
      <point x="284" y="-28" type="curve" smooth="yes"/>
      <point x="296" y="-28"/>
      <point x="367" y="25"/>
      <point x="408" y="51" type="curve"/>
      <point x="400" y="79" type="line"/>
      <point x="347" y="71"/>
      <point x="280" y="85"/>
      <point x="251" y="124" type="curve" smooth="yes"/>
      <point x="216" y="171"/>
      <point x="218" y="242"/>
      <point x="218" y="276" type="curve" smooth="yes"/>
      <point x="218" y="305"/>
      <point x="220" y="317"/>
      <point x="221" y="323" type="curve"/>
      <point x="257" y="343"/>
      <point x="280" y="322"/>
      <point x="314" y="293" type="curve"/>
      <point x="322" y="293" type="line"/>
      <point x="420" y="372" type="line"/>
      <point x="419" y="381" type="line"/>
      <point x="394" y="393"/>
      <point x="353" y="450"/>
      <point x="336" y="450" type="curve" smooth="yes"/>
      <point x="316" y="450"/>
      <point x="251" y="381"/>
      <point x="210" y="352" type="curve"/>
      <point x="190" y="394"/>
      <point x="135" y="451"/>
      <point x="82" y="451" type="curve" smooth="yes"/>
      <point x="60" y="451"/>
      <point x="24" y="391"/>
      <point x="5" y="362" type="curve"/>
      <point x="5" y="341" type="line"/>
      <point x="36" y="344"/>
      <point x="53" y="343"/>
      <point x="66" y="337" type="curve" smooth="yes"/>
      <point x="103" y="320"/>
      <point x="116" y="269"/>
      <point x="116" y="214" type="curve" smooth="yes"/>
      <point x="116" y="99"/>
      <point x="60" y="42"/>
      <point x="24" y="-42" type="curve" smooth="yes"/>
      <point x="18" y="-56"/>
      <point x="15" y="-90"/>
      <point x="11" y="-115" type="curve"/>
    </contour>
    <contour>
      <point x="213" y="0" type="move" name="bottom"/>
    </contour>
    <contour>
      <point x="213" y="430" type="move" name="top"/>
    </contour>
  </outline>
</glyph>
<glyph name="y" format="1">
  <advance width="429"/>
  <unicode hex="0079"/>
  <outline>
    <contour>
      <point x="45" y="-214" type="line"/>
      <point x="177" y="-80"/>
      <point x="424" y="244"/>
      <point x="424" y="305" type="curve" smooth="yes"/>
      <point x="424" y="415"/>
      <point x="351" y="446"/>
      <point x="270" y="446" type="curve" smooth="yes"/>
      <point x="259" y="446"/>
      <point x="224" y="381"/>
      <point x="186" y="339" type="curve"/>
      <point x="186" y="348" type="line" smooth="yes"/>
      <point x="186" y="409"/>
      <point x="136" y="450"/>
      <point x="78" y="450" type="curve" smooth="yes"/>
      <point x="72" y="450"/>
      <point x="39" y="397"/>
      <point x="5" y="357" type="curve"/>
      <point x="5" y="332" type="line"/>
      <point x="38" y="332"/>
      <point x="71" y="329"/>
      <point x="71" y="271" type="curve" smooth="yes"/>
      <point x="76" y="-9" type="line" smooth="yes"/>
      <point x="76" y="-88"/>
      <point x="62" y="-136"/>
      <point x="24" y="-193" type="curve"/>
    </contour>
    <contour>
      <point x="190" y="7" type="curve"/>
      <point x="186" y="305" type="line"/>
      <point x="213" y="327"/>
      <point x="226" y="339"/>
      <point x="250" y="339" type="curve" smooth="yes"/>
      <point x="307" y="339"/>
      <point x="321" y="303"/>
      <point x="321" y="263" type="curve" smooth="yes"/>
      <point x="321" y="183"/>
      <point x="262" y="117"/>
    </contour>
    <contour>
      <point x="220" y="0" type="move" name="bottom"/>
    </contour>
    <contour>
      <point x="220" y="430" type="move" name="top"/>
    </contour>
  </outline>
</glyph>
<glyph name="z" format="1">
  <advance width="311"/>
  <unicode hex="007A"/>
  <outline>
    <contour>
      <point x="61" y="-239" type="curve" smooth="yes"/>
      <point x="120" y="-239"/>
      <point x="301" y="-79"/>
      <point x="301" y="50" type="curve" smooth="yes"/>
      <point x="301" y="134"/>
      <point x="241" y="180"/>
      <point x="164" y="189" type="curve"/>
      <point x="199" y="246"/>
      <point x="260" y="304"/>
      <point x="260" y="328" type="curve" smooth="yes"/>
      <point x="260" y="389"/>
      <point x="222" y="446"/>
      <point x="143" y="446" type="curve" smooth="yes"/>
      <point x="121" y="446"/>
      <point x="68" y="385"/>
      <point x="26" y="346" type="curve"/>
      <point x="40" y="325" type="line"/>
      <point x="40" y="325"/>
      <point x="65" y="338"/>
      <point x="89" y="338" type="curve" smooth="yes"/>
      <point x="119" y="338"/>
      <point x="139" y="300"/>
      <point x="139" y="261" type="curve" smooth="yes"/>
      <point x="139" y="237"/>
      <point x="130" y="205"/>
      <point x="109" y="180" type="curve" smooth="yes"/>
      <point x="89" y="156"/>
      <point x="52" y="125"/>
      <point x="22" y="97" type="curve"/>
      <point x="42" y="79" type="line"/>
      <point x="52" y="86"/>
      <point x="62" y="95"/>
      <point x="69" y="95" type="curve" smooth="yes"/>
      <point x="126" y="95"/>
      <point x="193" y="58"/>
      <point x="193" y="-25" type="curve" smooth="yes"/>
      <point x="193" y="-84"/>
      <point x="169" y="-142"/>
      <point x="136" y="-142" type="curve" smooth="yes"/>
      <point x="108" y="-142"/>
      <point x="94" y="-115"/>
      <point x="88" y="-115" type="curve" smooth="yes"/>
      <point x="53" y="-115"/>
      <point x="10" y="-141"/>
      <point x="10" y="-184" type="curve" smooth="yes"/>
      <point x="10" y="-213"/>
      <point x="26" y="-239"/>
    </contour>
  </outline>
</glyph>
<glyph name="section" format="1">
  <advance width="510"/>
  <unicode hex="00A7"/>
  <outline>
    <contour>
      <point x="399" y="622" type="curve"/>
      <point x="399" y="622" type="line"/>
      <point x="372" y="612"/>
      <point x="152" y="516"/>
      <point x="115" y="495" type="curve"/>
      <point x="66" y="467"/>
      <point x="20" y="410"/>
      <point x="20" y="316" type="curve"/>
      <point x="20" y="188"/>
      <point x="144" y="111"/>
      <point x="193" y="69" type="curve"/>
      <point x="242" y="27"/>
      <point x="345" y="-34"/>
      <point x="345" y="-75" type="curve"/>
      <point x="336" y="-105"/>
      <point x="319" y="-134"/>
      <point x="296" y="-164" type="curve"/>
      <point x="320" y="-171" type="line"/>
      <point x="369" y="-108"/>
      <point x="420" y="-61"/>
      <point x="420" y="-16" type="curve"/>
      <point x="420" y="4"/>
      <point x="309" y="92"/>
      <point x="248" y="141" type="curve"/>
      <point x="299" y="181"/>
      <point x="375" y="217"/>
      <point x="375" y="286" type="curve"/>
      <point x="375" y="388"/>
      <point x="286" y="498"/>
      <point x="294" y="535" type="curve"/>
      <point x="377" y="562"/>
      <point x="409" y="554"/>
      <point x="452" y="491" type="curve"/>
      <point x="480" y="507"/>
      <point x="530" y="538"/>
      <point x="550" y="559" type="curve"/>
      <point x="523" y="589"/>
      <point x="443" y="622"/>
    </contour>
    <contour>
      <point x="218" y="166" type="curve"/>
      <point x="218" y="166" type="line"/>
      <point x="164" y="209"/>
      <point x="115" y="261"/>
      <point x="115" y="337" type="curve"/>
      <point x="115" y="393"/>
      <point x="133" y="443"/>
      <point x="186" y="483" type="curve"/>
      <point x="234" y="432"/>
      <point x="276" y="329"/>
      <point x="276" y="264" type="curve"/>
      <point x="276" y="215"/>
      <point x="244" y="182"/>
    </contour>
  </outline>
</glyph>
<glyph name="a_macr" format="1">
  <advance width="423"/>
  <unicode hex="0101"/>
  <outline>
    <contour>
      <point x="304" y="553" type="curve"/>
      <point x="329" y="578"/>
      <point x="341" y="602"/>
      <point x="366" y="634" type="curve"/>
      <point x="344" y="645" type="line"/>
      <point x="330" y="639"/>
      <point x="317" y="637"/>
      <point x="295" y="637" type="curve" smooth="yes"/>
      <point x="272" y="637"/>
      <point x="216" y="641"/>
      <point x="192" y="641" type="curve"/>
      <point x="168" y="604"/>
      <point x="103" y="536"/>
      <point x="97" y="514" type="curve"/>
      <point x="116" y="506" type="line"/>
      <point x="147" y="580"/>
      <point x="181" y="553"/>
    </contour>
    <contour>
      <point x="398" y="42" type="curve"/>
      <point x="397" y="61" type="line"/>
      <point x="376" y="74"/>
      <point x="362" y="89"/>
      <point x="362" y="124" type="curve" smooth="yes"/>
      <point x="362" y="154"/>
      <point x="368" y="298"/>
      <point x="368" y="328" type="curve" smooth="yes"/>
      <point x="368" y="391"/>
      <point x="309" y="451"/>
      <point x="241" y="451" type="curve"/>
      <point x="194" y="440"/>
      <point x="102" y="394"/>
      <point x="31" y="350" type="curve"/>
      <point x="47" y="320" type="line"/>
      <point x="92" y="349"/>
      <point x="137" y="378"/>
      <point x="180" y="378" type="curve" smooth="yes"/>
      <point x="236" y="378"/>
      <point x="259" y="343"/>
      <point x="259" y="319" type="curve" smooth="yes"/>
      <point x="259" y="304" type="line"/>
      <point x="180" y="245"/>
      <point x="56" y="144"/>
      <point x="5" y="94" type="curve"/>
      <point x="36" y="65"/>
      <point x="64" y="17"/>
      <point x="91" y="-20" type="curve"/>
      <point x="136" y="4"/>
      <point x="210" y="45"/>
      <point x="258" y="69" type="curve"/>
      <point x="258" y="41"/>
      <point x="270" y="9"/>
      <point x="291" y="-21" type="curve"/>
      <point x="328" y="-8"/>
      <point x="376" y="24"/>
    </contour>
    <contour>
      <point x="131" y="136" type="curve" smooth="yes"/>
      <point x="131" y="165"/>
      <point x="182" y="211"/>
      <point x="259" y="256" type="curve"/>
      <point x="259" y="208"/>
      <point x="258" y="146"/>
      <point x="258" y="105" type="curve"/>
      <point x="240" y="90"/>
      <point x="219" y="78"/>
      <point x="199" y="78" type="curve" smooth="yes"/>
      <point x="160" y="78"/>
      <point x="131" y="103"/>
    </contour>
    <contour>
      <point x="212" y="0" type="move" name="bottom"/>
    </contour>
    <contour>
      <point x="381" y="10" type="move" name="ogonek"/>
    </contour>
    <contour>
      <point x="212" y="430" type="move" name="top"/>
    </contour>
  </outline>
</glyph>
<glyph name="d_strok" format="1">
  <advance width="511"/>
  <unicode hex="0111"/>
  <outline>
    <contour>
      <point x="482" y="386" type="curve" smooth="yes"/>
      <point x="466" y="422"/>
      <point x="392" y="447"/>
      <point x="313" y="466" type="curve"/>
      <point x="382" y="528"/>
      <point x="453" y="605"/>
      <point x="453" y="617" type="curve" smooth="yes"/>
      <point x="453" y="681"/>
      <point x="418" y="720"/>
      <point x="369" y="720" type="curve" smooth="yes"/>
      <point x="345" y="720"/>
      <point x="284" y="672"/>
      <point x="236" y="643" type="curve"/>
      <point x="244" y="626" type="line"/>
      <point x="256" y="629"/>
      <point x="281" y="636"/>
      <point x="299" y="636" type="curve" smooth="yes"/>
      <point x="322" y="636"/>
      <point x="341" y="619"/>
      <point x="341" y="589" type="curve" smooth="yes"/>
      <point x="341" y="551"/>
      <point x="302" y="507"/>
      <point x="271" y="476" type="curve"/>
      <point x="178" y="496" type="line" smooth="yes"/>
      <point x="133" y="506"/>
      <point x="145" y="538"/>
      <point x="179" y="571" type="curve"/>
      <point x="164" y="585" type="line"/>
      <point x="121" y="554"/>
      <point x="20" y="499"/>
      <point x="20" y="460" type="curve" smooth="yes"/>
      <point x="20" y="417"/>
      <point x="90" y="394"/>
      <point x="167" y="376" type="curve"/>
      <point x="93" y="334"/>
      <point x="42" y="267"/>
      <point x="42" y="231" type="curve" smooth="yes"/>
      <point x="42" y="96"/>
      <point x="145" y="-19"/>
      <point x="205" y="-19" type="curve" smooth="yes"/>
      <point x="264" y="-19"/>
      <point x="426" y="80"/>
      <point x="461" y="130" type="curve" smooth="yes"/>
      <point x="486" y="166"/>
      <point x="502" y="339"/>
    </contour>
    <contour>
      <point x="308" y="73" type="curve" smooth="yes"/>
      <point x="301" y="68"/>
      <point x="271" y="69"/>
      <point x="255" y="75" type="curve" smooth="yes"/>
      <point x="209" y="92"/>
      <point x="168" y="167"/>
      <point x="168" y="240" type="curve" smooth="yes"/>
      <point x="168" y="304"/>
      <point x="185" y="340"/>
      <point x="208" y="367" type="curve"/>
      <point x="279" y="352"/>
      <point x="348" y="339"/>
      <point x="364" y="316" type="curve" smooth="yes"/>
      <point x="379" y="295"/>
      <point x="355" y="107"/>
    </contour>
    <contour>
      <point x="256" y="0" type="move" name="bottom"/>
    </contour>
    <contour>
      <point x="256" y="215" type="move" name="center"/>
    </contour>
    <contour>
      <point x="256" y="430" type="move" name="top"/>
    </contour>
    <contour>
      <point x="491" y="430" type="move" name="topright"/>
    </contour>
  </outline>
</glyph>
<glyph name="e_macr" format="1">
  <advance width="401"/>
  <unicode hex="0113"/>
  <outline>
    <contour>
      <point x="181" y="550" type="curve"/>
      <point x="181" y="550" type="line"/>
      <point x="208" y="550"/>
      <point x="276" y="543"/>
      <point x="304" y="543" type="curve"/>
      <point x="319" y="543"/>
      <point x="360" y="604"/>
      <point x="389" y="636" type="curve"/>
      <point x="356" y="645" type="line"/>
      <point x="340" y="639"/>
      <point x="325" y="637"/>
      <point x="300" y="637" type="curve"/>
      <point x="273" y="637"/>
      <point x="208" y="641"/>
      <point x="180" y="641" type="curve"/>
      <point x="166" y="641"/>
      <point x="103" y="568"/>
      <point x="72" y="536" type="curve"/>
      <point x="101" y="525" type="line"/>
      <point x="120" y="537"/>
      <point x="156" y="550"/>
    </contour>
    <contour>
      <point x="391" y="326" type="curve"/>
      <point x="391" y="326" type="line"/>
      <point x="391" y="346"/>
      <point x="312" y="450"/>
      <point x="281" y="450" type="curve"/>
      <point x="253" y="450"/>
      <point x="88" y="372"/>
      <point x="67" y="352" type="curve"/>
      <point x="50" y="336"/>
      <point x="30" y="284"/>
      <point x="30" y="182" type="curve"/>
      <point x="30" y="73"/>
      <point x="108" y="-20"/>
      <point x="207" y="-20" type="curve"/>
      <point x="243" y="-20"/>
      <point x="320" y="26"/>
      <point x="371" y="52" type="curve"/>
      <point x="368" y="82" type="line"/>
      <point x="348" y="78"/>
      <point x="295" y="73"/>
      <point x="276" y="74" type="curve"/>
      <point x="221" y="77"/>
      <point x="190" y="99"/>
      <point x="172" y="130" type="curve"/>
      <point x="254" y="196"/>
      <point x="391" y="314"/>
    </contour>
    <contour>
      <point x="158" y="165" type="curve"/>
      <point x="158" y="165" type="line"/>
      <point x="151" y="192"/>
      <point x="149" y="222"/>
      <point x="149" y="253" type="curve"/>
      <point x="149" y="296"/>
      <point x="154" y="367"/>
      <point x="191" y="367" type="curve"/>
      <point x="237" y="367"/>
      <point x="261" y="316"/>
      <point x="261" y="292" type="curve"/>
      <point x="261" y="246"/>
      <point x="208" y="197"/>
    </contour>
    <contour>
      <point x="189" y="0" type="move" name="bottom"/>
    </contour>
    <contour>
      <point x="339" y="10" type="move" name="ogonek"/>
    </contour>
    <contour>
      <point x="189" y="430" type="move" name="top"/>
    </contour>
  </outline>
</glyph>
<glyph name="o_macr" format="1">
  <advance width="474"/>
  <unicode hex="014D"/>
  <outline>
    <contour>
      <point x="101" y="559" type="curve"/>
      <point x="129" y="550" type="line"/>
      <point x="146" y="564"/>
      <point x="180" y="579"/>
      <point x="204" y="581" type="curve"/>
      <point x="230" y="582"/>
      <point x="296" y="580"/>
      <point x="323" y="582" type="curve"/>
      <point x="337" y="583"/>
      <point x="372" y="647"/>
      <point x="397" y="680" type="curve"/>
      <point x="366" y="687" type="line"/>
      <point x="350" y="680"/>
      <point x="336" y="677"/>
      <point x="312" y="675" type="curve"/>
      <point x="286" y="674"/>
      <point x="223" y="673"/>
      <point x="197" y="671" type="curve"/>
      <point x="183" y="670"/>
      <point x="127" y="593"/>
    </contour>
    <contour>
      <point x="206" y="-21" type="curve"/>
      <point x="206" y="-21" type="line"/>
      <point x="245" y="-21"/>
      <point x="358" y="64"/>
      <point x="403" y="100" type="curve"/>
      <point x="433" y="132"/>
      <point x="449" y="198"/>
      <point x="449" y="234" type="curve"/>
      <point x="449" y="365"/>
      <point x="346" y="441"/>
      <point x="272" y="450" type="curve"/>
      <point x="235" y="440"/>
      <point x="110" y="349"/>
      <point x="82" y="330" type="curve"/>
      <point x="54" y="302"/>
      <point x="25" y="252"/>
      <point x="25" y="194" type="curve"/>
      <point x="25" y="79"/>
      <point x="113" y="-11"/>
    </contour>
    <contour>
      <point x="288" y="68" type="curve"/>
      <point x="288" y="68" type="line"/>
      <point x="265" y="60"/>
      <point x="133" y="90"/>
      <point x="133" y="247" type="curve"/>
      <point x="133" y="311"/>
      <point x="166" y="351"/>
      <point x="189" y="355" type="curve"/>
      <point x="235" y="362"/>
      <point x="333" y="318"/>
      <point x="333" y="183" type="curve"/>
      <point x="333" y="124"/>
      <point x="310" y="76"/>
    </contour>
    <contour>
      <point x="238" y="0" type="move" name="bottom"/>
    </contour>
    <contour>
      <point x="238" y="215" type="move" name="center"/>
    </contour>
    <contour>
      <point x="419" y="10" type="move" name="ogonek"/>
    </contour>
    <contour>
      <point x="238" y="430" type="move" name="top"/>
    </contour>
    <contour>
      <point x="444" y="430" type="move" name="topright"/>
    </contour>
  </outline>
</glyph>
<glyph name="a_hook" format="1">
  <advance width="423"/>
  <unicode hex="1EA3"/>
  <outline>
    <contour>
      <point x="198" y="487" type="curve"/>
      <point x="218" y="470" type="line"/>
      <point x="297" y="534"/>
      <point x="328" y="553"/>
      <point x="348" y="567" type="curve"/>
      <point x="386" y="632"/>
      <point x="356" y="700"/>
      <point x="293" y="721" type="curve"/>
      <point x="287" y="721" type="line"/>
      <point x="189" y="661" type="line"/>
      <point x="189" y="642" type="line"/>
      <point x="224" y="634"/>
      <point x="246" y="619"/>
      <point x="246" y="580" type="curve"/>
      <point x="246" y="544"/>
      <point x="228" y="516"/>
    </contour>
    <contour>
      <point x="398" y="42" type="curve"/>
      <point x="398" y="42" type="line"/>
      <point x="397" y="61" type="line"/>
      <point x="376" y="74"/>
      <point x="362" y="89"/>
      <point x="362" y="124" type="curve"/>
      <point x="362" y="154"/>
      <point x="368" y="298"/>
      <point x="368" y="328" type="curve"/>
      <point x="368" y="391"/>
      <point x="309" y="451"/>
      <point x="241" y="451" type="curve"/>
      <point x="194" y="440"/>
      <point x="102" y="394"/>
      <point x="31" y="350" type="curve"/>
      <point x="47" y="320" type="line"/>
      <point x="92" y="349"/>
      <point x="137" y="378"/>
      <point x="180" y="378" type="curve"/>
      <point x="236" y="378"/>
      <point x="259" y="343"/>
      <point x="259" y="319" type="curve"/>
      <point x="259" y="304" type="line"/>
      <point x="180" y="245"/>
      <point x="56" y="144"/>
      <point x="5" y="94" type="curve"/>
      <point x="36" y="65"/>
      <point x="64" y="17"/>
      <point x="91" y="-20" type="curve"/>
      <point x="136" y="4"/>
      <point x="210" y="45"/>
      <point x="258" y="69" type="curve"/>
      <point x="258" y="41"/>
      <point x="270" y="9"/>
      <point x="291" y="-21" type="curve"/>
      <point x="328" y="-8"/>
      <point x="376" y="24"/>
    </contour>
    <contour>
      <point x="131" y="136" type="curve"/>
      <point x="131" y="136" type="line"/>
      <point x="131" y="165"/>
      <point x="182" y="211"/>
      <point x="259" y="256" type="curve"/>
      <point x="259" y="208"/>
      <point x="258" y="146"/>
      <point x="258" y="105" type="curve"/>
      <point x="240" y="90"/>
      <point x="219" y="78"/>
      <point x="199" y="78" type="curve"/>
      <point x="160" y="78"/>
      <point x="131" y="103"/>
    </contour>
    <contour>
      <point x="212" y="0" type="move" name="bottom"/>
    </contour>
    <contour>
      <point x="381" y="10" type="move" name="ogonek"/>
    </contour>
    <contour>
      <point x="212" y="430" type="move" name="top"/>
    </contour>
  </outline>
</glyph>
<glyph name="p_bardes" format="1">
  <advance width="544"/>
  <unicode hex="A750"/>
  <outline>
    <contour>
      <point x="519" y="261" type="curve"/>
      <point x="519" y="261" type="line"/>
      <point x="518" y="373"/>
      <point x="412" y="451"/>
      <point x="323" y="451" type="curve"/>
      <point x="314" y="451"/>
      <point x="239" y="383"/>
      <point x="185" y="336" type="curve"/>
      <point x="193" y="466" type="line"/>
      <point x="183" y="470" type="line"/>
      <point x="157" y="454"/>
      <point x="58" y="394"/>
      <point x="25" y="377" type="curve"/>
      <point x="26" y="357" type="line"/>
      <point x="52" y="334"/>
      <point x="79" y="310"/>
      <point x="80" y="281" type="curve"/>
      <point x="83" y="124" type="line" smooth="yes"/>
      <point x="83" y="112"/>
      <point x="69" y="86"/>
      <point x="28" y="27" type="curve"/>
      <point x="28" y="25" type="line"/>
      <point x="69" y="13"/>
      <point x="83" y="5"/>
      <point x="83" y="-10" type="curve"/>
      <point x="83" y="-71"/>
      <point x="83" y="-123"/>
      <point x="82" y="-172" type="curve"/>
      <point x="15" y="-236" type="line"/>
      <point x="15" y="-251" type="line"/>
      <point x="143" y="-242"/>
      <point x="230" y="-243"/>
      <point x="378" y="-244" type="curve"/>
      <point x="433" y="-185" type="line"/>
      <point x="433" y="-166" type="line"/>
      <point x="356" y="-166"/>
      <point x="290" y="-168"/>
      <point x="222" y="-166" type="curve"/>
      <point x="210" y="-157"/>
      <point x="200" y="-150"/>
      <point x="198" y="-132" type="curve"/>
      <point x="197" y="-117"/>
      <point x="193" y="-61"/>
      <point x="194" y="-13" type="curve"/>
      <point x="204" y="-12"/>
      <point x="272" y="-13"/>
      <point x="282" y="-9" type="curve"/>
      <point x="300" y="-2"/>
      <point x="484" y="113"/>
      <point x="487" y="120" type="curve"/>
      <point x="498" y="146"/>
      <point x="520" y="182"/>
    </contour>
    <contour>
      <point x="313" y="73" type="curve"/>
      <point x="313" y="73" type="line"/>
      <point x="251" y="72"/>
      <point x="210" y="114"/>
      <point x="203" y="136" type="curve"/>
      <point x="187" y="186"/>
      <point x="190" y="260"/>
      <point x="197" y="300" type="curve"/>
      <point x="221" y="330"/>
      <point x="240" y="344"/>
      <point x="277" y="344" type="curve"/>
      <point x="350" y="346"/>
      <point x="393" y="279"/>
      <point x="394" y="204" type="curve"/>
      <point x="396" y="126"/>
      <point x="368" y="74"/>
    </contour>
    <contour>
      <point x="274" y="0" type="move" name="bottom"/>
    </contour>
    <contour>
      <point x="98" y="0" type="move" name="bottom_1"/>
    </contour>
    <contour>
      <point x="274" y="0" type="move" name="bottom_2"/>
    </contour>
    <contour>
      <point x="450" y="0" type="move" name="bottom_3"/>
    </contour>
    <contour>
      <point x="186" y="0" type="move" name="caret_1"/>
    </contour>
    <contour>
      <point x="362" y="0" type="move" name="caret_2"/>
    </contour>
    <contour>
      <point x="274" y="430" type="move" name="top"/>
    </contour>
    <contour>
      <point x="98" y="430" type="move" name="top_1"/>
    </contour>
    <contour>
      <point x="274" y="430" type="move" name="top_2"/>
    </contour>
    <contour>
      <point x="450" y="430" type="move" name="top_3"/>
    </contour>
  </outline>
</glyph>
<glyph name="p_flour" format="1">
  <advance width="541"/>
  <unicode hex="A753"/>
  <outline>
    <contour>
      <point x="516" y="261" type="curve"/>
      <point x="516" y="261" type="line"/>
      <point x="515" y="373"/>
      <point x="409" y="451"/>
      <point x="320" y="451" type="curve"/>
      <point x="311" y="451"/>
      <point x="236" y="383"/>
      <point x="182" y="336" type="curve"/>
      <point x="190" y="466" type="line"/>
      <point x="180" y="470" type="line"/>
      <point x="154" y="454"/>
      <point x="55" y="394"/>
      <point x="22" y="377" type="curve"/>
      <point x="23" y="357" type="line"/>
      <point x="49" y="334"/>
      <point x="76" y="310"/>
      <point x="77" y="281" type="curve"/>
      <point x="80" y="124" type="line" smooth="yes"/>
      <point x="80" y="119"/>
      <point x="77" y="110"/>
      <point x="70" y="98" type="curve"/>
      <point x="31" y="34"/>
      <point x="-110" y="-31"/>
      <point x="-110" y="-124" type="curve"/>
      <point x="-110" y="-179"/>
      <point x="-69" y="-218"/>
      <point x="-38" y="-218" type="curve"/>
      <point x="-32" y="-218"/>
      <point x="47" y="-186"/>
      <point x="78" y="-182" type="curve"/>
      <point x="78" y="-201"/>
      <point x="78" y="-220"/>
      <point x="77" y="-239" type="curve"/>
      <point x="84" y="-244" type="line"/>
      <point x="225" y="-192" type="line"/>
      <point x="225" y="-171" type="line"/>
      <point x="210" y="-159"/>
      <point x="197" y="-153"/>
      <point x="195" y="-132" type="curve"/>
      <point x="194" y="-117"/>
      <point x="190" y="-61"/>
      <point x="191" y="-13" type="curve"/>
      <point x="201" y="-12"/>
      <point x="269" y="-13"/>
      <point x="279" y="-9" type="curve"/>
      <point x="297" y="-2"/>
      <point x="481" y="113"/>
      <point x="484" y="120" type="curve"/>
      <point x="495" y="146"/>
      <point x="517" y="182"/>
    </contour>
    <contour>
      <point x="310" y="73" type="curve"/>
      <point x="310" y="73" type="line"/>
      <point x="248" y="72"/>
      <point x="207" y="114"/>
      <point x="200" y="136" type="curve"/>
      <point x="184" y="186"/>
      <point x="187" y="260"/>
      <point x="194" y="300" type="curve"/>
      <point x="218" y="330"/>
      <point x="237" y="344"/>
      <point x="274" y="344" type="curve"/>
      <point x="347" y="346"/>
      <point x="390" y="279"/>
      <point x="391" y="204" type="curve"/>
      <point x="393" y="126"/>
      <point x="365" y="74"/>
    </contour>
    <contour>
      <point x="36" y="-165" type="curve"/>
      <point x="36" y="-165" type="line"/>
      <point x="-6" y="-165"/>
      <point x="-34" y="-127"/>
      <point x="-34" y="-81" type="curve"/>
      <point x="-34" y="-31"/>
      <point x="10" y="9"/>
      <point x="38" y="9" type="curve"/>
      <point x="45" y="9"/>
      <point x="64" y="1"/>
      <point x="80" y="-6" type="curve"/>
      <point x="80" y="-10" type="line" smooth="yes"/>
      <point x="80" y="-63"/>
      <point x="80" y="-109"/>
      <point x="79" y="-152" type="curve"/>
      <point x="65" y="-162"/>
      <point x="50" y="-165"/>
    </contour>
    <contour>
      <point x="271" y="0" type="move" name="bottom"/>
    </contour>
    <contour>
      <point x="271" y="430" type="move" name="top"/>
    </contour>
  </outline>
</glyph>
<glyph name="q_strok" format="1">
  <advance width="743"/>
  <unicode hex="A759"/>
  <outline>
    <contour>
      <point x="723" y="316" type="curve"/>
      <point x="723" y="316" type="line"/>
      <point x="723" y="390"/>
      <point x="659" y="440"/>
      <point x="607" y="461" type="curve"/>
      <point x="570" y="442"/>
      <point x="515" y="412"/>
      <point x="463" y="396" type="curve"/>
      <point x="463" y="397"/>
      <point x="462" y="398"/>
      <point x="462" y="398" type="curve"/>
      <point x="426" y="405"/>
      <point x="308" y="433"/>
      <point x="264" y="445" type="curve"/>
      <point x="251" y="449"/>
      <point x="134" y="366"/>
      <point x="72" y="318" type="curve"/>
      <point x="45" y="297"/>
      <point x="25" y="258"/>
      <point x="25" y="181" type="curve"/>
      <point x="25" y="83"/>
      <point x="89" y="-19"/>
      <point x="224" y="-19" type="curve"/>
      <point x="256" y="-19"/>
      <point x="303" y="44"/>
      <point x="356" y="93" type="curve"/>
      <point x="359" y="-63" type="line"/>
      <point x="292" y="-111"/>
      <point x="219" y="-159"/>
      <point x="150" y="-208" type="curve"/>
      <point x="176" y="-242" type="line"/>
      <point x="235" y="-197"/>
      <point x="298" y="-152"/>
      <point x="359" y="-107" type="curve"/>
      <point x="361" y="-177"/>
      <point x="362" y="-231"/>
      <point x="362" y="-240" type="curve"/>
      <point x="362" y="-244"/>
      <point x="478" y="-226"/>
      <point x="476" y="-203" type="curve"/>
      <point x="471" y="-145"/>
      <point x="468" y="-85"/>
      <point x="466" y="-26" type="curve"/>
      <point x="610" y="89"/>
      <point x="723" y="204"/>
    </contour>
    <contour>
      <point x="465" y="19" type="curve"/>
      <point x="465" y="19" type="line"/>
      <point x="462" y="161"/>
      <point x="465" y="290"/>
      <point x="465" y="354" type="curve"/>
      <point x="531" y="385"/>
      <point x="614" y="339"/>
      <point x="614" y="255" type="curve"/>
      <point x="614" y="171"/>
      <point x="553" y="94"/>
    </contour>
    <contour>
      <point x="272" y="88" type="curve"/>
      <point x="272" y="88" type="line"/>
      <point x="213" y="88"/>
      <point x="151" y="125"/>
      <point x="151" y="224" type="curve"/>
      <point x="151" y="265"/>
      <point x="159" y="308"/>
      <point x="179" y="338" type="curve"/>
      <point x="294" y="346"/>
      <point x="358" y="286"/>
      <point x="360" y="152" type="curve"/>
      <point x="340" y="113"/>
      <point x="308" y="88"/>
    </contour>
    <contour>
      <point x="253" y="0" type="move" name="bottom"/>
    </contour>
    <contour>
      <point x="194" y="0" type="move" name="bottom_1"/>
    </contour>
    <contour>
      <point x="560" y="0" type="move" name="bottom_2"/>
    </contour>
    <contour>
      <point x="377" y="0" type="move" name="caret_1"/>
    </contour>
    <contour>
      <point x="253" y="430" type="move" name="top"/>
    </contour>
    <contour>
      <point x="194" y="430" type="move" name="top_1"/>
    </contour>
    <contour>
      <point x="560" y="430" type="move" name="top_2"/>
    </contour>
  </outline>
</glyph>
<glyph name="v_hook" format="1">
  <advance width="624"/>
  <unicode hex="A75F"/>
  <outline>
    <contour>
      <point x="529" y="449" type="curve"/>
      <point x="529" y="449" type="line"/>
      <point x="514" y="449"/>
      <point x="405" y="353"/>
      <point x="340" y="314" type="curve"/>
      <point x="331" y="336" type="line" smooth="yes"/>
      <point x="327" y="345"/>
      <point x="322" y="354"/>
      <point x="317" y="363" type="curve"/>
      <point x="426" y="480"/>
      <point x="533" y="597"/>
      <point x="532" y="605" type="curve"/>
      <point x="530" y="619"/>
      <point x="497" y="662"/>
      <point x="458" y="696" type="curve"/>
      <point x="452" y="695" type="line"/>
      <point x="350" y="626" type="line"/>
      <point x="350" y="621" type="line"/>
      <point x="385" y="607"/>
      <point x="410" y="589"/>
      <point x="414" y="550" type="curve"/>
      <point x="415" y="535"/>
      <point x="361" y="470"/>
      <point x="296" y="397" type="curve"/>
      <point x="244" y="478"/>
      <point x="162" y="570"/>
      <point x="102" y="570" type="curve"/>
      <point x="85" y="570"/>
      <point x="15" y="441"/>
      <point x="-15" y="392" type="curve"/>
      <point x="6" y="378" type="line"/>
      <point x="23" y="403"/>
      <point x="48" y="446"/>
      <point x="67" y="446" type="curve"/>
      <point x="93" y="446"/>
      <point x="165" y="385"/>
      <point x="212" y="305" type="curve"/>
      <point x="147" y="235"/>
      <point x="89" y="174"/>
      <point x="78" y="161" type="curve"/>
      <point x="104" y="141" type="line"/>
      <point x="126" y="162"/>
      <point x="174" y="212"/>
      <point x="230" y="271" type="curve"/>
      <point x="235" y="260"/>
      <point x="239" y="249"/>
      <point x="243" y="238" type="curve"/>
      <point x="269" y="162"/>
      <point x="277" y="108"/>
      <point x="284" y="-19" type="curve"/>
      <point x="300" y="-19" type="line"/>
      <point x="393" y="51"/>
      <point x="619" y="293"/>
      <point x="619" y="347" type="curve"/>
      <point x="619" y="389"/>
      <point x="543" y="449"/>
    </contour>
    <contour>
      <point x="378" y="107" type="curve"/>
      <point x="378" y="107" type="line"/>
      <point x="377" y="162"/>
      <point x="369" y="220"/>
      <point x="354" y="273" type="curve"/>
      <point x="372" y="293"/>
      <point x="428" y="330"/>
      <point x="439" y="330" type="curve"/>
      <point x="479" y="330"/>
      <point x="498" y="298"/>
      <point x="498" y="250" type="curve"/>
      <point x="498" y="211"/>
      <point x="415" y="137"/>
    </contour>
    <contour>
      <point x="141" y="0" type="move" name="bottom_1"/>
    </contour>
    <contour>
      <point x="463" y="0" type="move" name="bottom_2"/>
    </contour>
    <contour>
      <point x="302" y="0" type="move" name="caret_1"/>
    </contour>
    <contour>
      <point x="141" y="430" type="move" name="top_1"/>
    </contour>
    <contour>
      <point x="463" y="430" type="move" name="top_2"/>
    </contour>
  </outline>
</glyph>
<glyph name="l_strok" format="1">
  <advance width="232"/>
  <unicode hex="A769"/>
  <outline>
    <contour>
      <point x="387" y="621" type="curve"/>
      <point x="387" y="621" type="line"/>
      <point x="387" y="635"/>
      <point x="378" y="681"/>
      <point x="342" y="718" type="curve"/>
      <point x="336" y="718" type="line"/>
      <point x="208" y="688" type="line"/>
      <point x="208" y="677" type="line"/>
      <point x="243" y="660"/>
      <point x="274" y="644"/>
      <point x="274" y="605" type="curve"/>
      <point x="274" y="577"/>
      <point x="217" y="521"/>
      <point x="166" y="477" type="curve"/>
      <point x="167" y="555"/>
      <point x="169" y="635"/>
      <point x="170" y="718" type="curve"/>
      <point x="162" y="720" type="line"/>
      <point x="47" y="666" type="line"/>
      <point x="58" y="582"/>
      <point x="61" y="511"/>
      <point x="61" y="445" type="curve"/>
      <point x="61" y="413"/>
      <point x="47" y="379"/>
      <point x="10" y="341" type="curve"/>
      <point x="10" y="332" type="line"/>
      <point x="30" y="311"/>
      <point x="62" y="282"/>
      <point x="62" y="215" type="curve"/>
      <point x="62" y="155"/>
      <point x="57" y="96"/>
      <point x="57" y="36" type="curve"/>
      <point x="57" y="13"/>
      <point x="103" y="-19"/>
      <point x="127" y="-19" type="curve"/>
      <point x="140" y="-19"/>
      <point x="180" y="17"/>
      <point x="208" y="36" type="curve"/>
      <point x="208" y="55" type="line"/>
      <point x="174" y="71"/>
      <point x="173" y="83"/>
      <point x="172" y="103" type="curve"/>
      <point x="166" y="213"/>
      <point x="165" y="321"/>
      <point x="166" y="430" type="curve"/>
      <point x="255" y="502"/>
      <point x="387" y="609"/>
    </contour>
    <contour>
      <point x="184" y="0" type="move" name="bottom"/>
    </contour>
    <contour>
      <point x="184" y="215" type="move" name="center"/>
    </contour>
    <contour>
      <point x="184" y="430" type="move" name="top"/>
    </contour>
    <contour>
      <point x="372" y="430" type="move" name="topright"/>
    </contour>
  </outline>
</glyph>
<glyph name="con" format="1">
  <advance width="439"/>
  <unicode hex="A76F"/>
  <outline>
    <contour>
      <point x="174" y="-16" type="curve" smooth="yes"/>
      <point x="242" y="-16"/>
      <point x="414" y="68"/>
      <point x="414" y="272" type="curve" smooth="yes"/>
      <point x="414" y="417"/>
      <point x="318" y="450"/>
      <point x="230" y="450" type="curve" smooth="yes"/>
      <point x="142" y="450"/>
      <point x="59" y="382"/>
      <point x="10" y="286" type="curve"/>
      <point x="23" y="258"/>
      <point x="49" y="229"/>
      <point x="49" y="201" type="curve" smooth="yes"/>
      <point x="49" y="169"/>
      <point x="32" y="155"/>
      <point x="26" y="145" type="curve"/>
      <point x="54" y="127" type="line"/>
      <point x="78" y="163"/>
      <point x="139" y="202"/>
      <point x="139" y="252" type="curve" smooth="yes"/>
      <point x="139" y="297"/>
      <point x="105" y="322"/>
      <point x="101" y="333" type="curve"/>
      <point x="127" y="345"/>
      <point x="164" y="353"/>
      <point x="219" y="353" type="curve" smooth="yes"/>
      <point x="318" y="353"/>
      <point x="362" y="276"/>
      <point x="362" y="211" type="curve" smooth="yes"/>
      <point x="362" y="128"/>
      <point x="279" y="66"/>
      <point x="223" y="66" type="curve" smooth="yes"/>
      <point x="192" y="66"/>
      <point x="179" y="101"/>
      <point x="165" y="117" type="curve"/>
      <point x="132" y="107"/>
      <point x="82" y="77"/>
      <point x="59" y="49" type="curve"/>
      <point x="82" y="28"/>
      <point x="131" y="-16"/>
    </contour>
  </outline>
</glyph>
<glyph name="us" format="1">
  <advance width="480"/>
  <unicode hex="A770"/>
  <outline>
    <contour>
      <point x="136" y="-100" type="curve"/>
      <point x="136" y="-100" type="line"/>
      <point x="189" y="-100"/>
      <point x="212" y="-48"/>
      <point x="204" y="-15" type="curve"/>
      <point x="178" y="-10"/>
      <point x="147" y="13"/>
      <point x="147" y="45" type="curve"/>
      <point x="147" y="80"/>
      <point x="172" y="115"/>
      <point x="240" y="185" type="curve"/>
      <point x="291" y="237"/>
      <point x="460" y="386"/>
      <point x="460" y="520" type="curve"/>
      <point x="460" y="671"/>
      <point x="285" y="721"/>
      <point x="230" y="721" type="curve"/>
      <point x="219" y="721"/>
      <point x="154" y="664"/>
      <point x="80" y="593" type="curve"/>
      <point x="59" y="573"/>
      <point x="20" y="535"/>
      <point x="20" y="458" type="curve"/>
      <point x="20" y="334"/>
      <point x="153" y="305"/>
      <point x="158" y="305" type="curve"/>
      <point x="167" y="305"/>
      <point x="232" y="328"/>
      <point x="316" y="355" type="curve"/>
      <point x="318" y="352" type="line"/>
      <point x="262" y="270"/>
      <point x="47" y="53"/>
      <point x="47" y="40" type="curve"/>
      <point x="47" y="-24"/>
      <point x="91" y="-100"/>
    </contour>
    <contour>
      <point x="260" y="385" type="curve"/>
      <point x="260" y="385" type="line"/>
      <point x="198" y="385"/>
      <point x="133" y="433"/>
      <point x="133" y="516" type="curve"/>
      <point x="133" y="564"/>
      <point x="157" y="601"/>
      <point x="190" y="601" type="curve"/>
      <point x="270" y="601"/>
      <point x="339" y="549"/>
      <point x="339" y="480" type="curve"/>
      <point x="339" y="405"/>
      <point x="300" y="385"/>
    </contour>
  </outline>
</glyph>
<glyph name="rum" format="1">
  <advance width="685"/>
  <unicode hex="A775"/>
  <outline>
    <contour>
      <point x="644" y="211" type="curve"/>
      <point x="616" y="175" type="line"/>
      <point x="635" y="165"/>
      <point x="644" y="145"/>
      <point x="643" y="135" type="curve"/>
      <point x="623" y="109"/>
      <point x="588" y="97"/>
      <point x="547" y="97" type="curve" smooth="yes"/>
      <point x="503" y="97"/>
      <point x="466" y="124"/>
      <point x="423" y="139" type="curve"/>
      <point x="471" y="240"/>
      <point x="540" y="361"/>
      <point x="540" y="368" type="curve" smooth="yes"/>
      <point x="540" y="377"/>
      <point x="441" y="450"/>
      <point x="432" y="450" type="curve" smooth="yes"/>
      <point x="426" y="450"/>
      <point x="323" y="380"/>
      <point x="254" y="347" type="curve"/>
      <point x="246" y="411"/>
      <point x="206" y="449"/>
      <point x="142" y="449" type="curve" smooth="yes"/>
      <point x="129" y="449"/>
      <point x="73" y="403"/>
      <point x="20" y="356" type="curve"/>
      <point x="30" y="331" type="line"/>
      <point x="98" y="357"/>
      <point x="151" y="335"/>
      <point x="151" y="242" type="curve" smooth="yes"/>
      <point x="151" y="132"/>
      <point x="39" y="24"/>
      <point x="21" y="2" type="curve"/>
      <point x="44" y="-18" type="line"/>
      <point x="130" y="35"/>
      <point x="227" y="36"/>
      <point x="330" y="36" type="curve"/>
      <point x="286" y="-48"/>
      <point x="241" y="-124"/>
      <point x="202" y="-180" type="curve"/>
      <point x="271" y="-180" type="line"/>
      <point x="295" y="-127"/>
      <point x="341" y="-30"/>
      <point x="374" y="35" type="curve"/>
      <point x="423" y="27"/>
      <point x="509" y="-18"/>
      <point x="525" y="-19" type="curve"/>
      <point x="566" y="14"/>
      <point x="643" y="92"/>
      <point x="675" y="138" type="curve"/>
      <point x="677" y="173"/>
      <point x="666" y="195"/>
    </contour>
    <contour>
      <point x="135" y="87" type="curve"/>
      <point x="177" y="131"/>
      <point x="240" y="241"/>
      <point x="253" y="304" type="curve"/>
      <point x="279" y="326"/>
      <point x="310" y="341"/>
      <point x="342" y="341" type="curve" smooth="yes"/>
      <point x="386" y="341"/>
      <point x="430" y="313"/>
      <point x="430" y="267" type="curve" smooth="yes"/>
      <point x="430" y="233"/>
      <point x="396" y="170"/>
      <point x="382" y="149" type="curve"/>
      <point x="371" y="149" type="line" smooth="yes"/>
      <point x="295" y="149"/>
      <point x="208" y="117"/>
    </contour>
  </outline>
</glyph>
<glyph name="m_macr" format="1">
  <advance width="676"/>
  <unicode hex="E5B8"/>
  <outline>
    <contour>
      <point x="323" y="550" type="curve"/>
      <point x="323" y="550" type="line"/>
      <point x="346" y="550"/>
      <point x="405" y="543"/>
      <point x="429" y="543" type="curve"/>
      <point x="442" y="543"/>
      <point x="477" y="604"/>
      <point x="502" y="636" type="curve"/>
      <point x="474" y="645" type="line"/>
      <point x="460" y="639"/>
      <point x="447" y="637"/>
      <point x="425" y="637" type="curve"/>
      <point x="402" y="637"/>
      <point x="346" y="641"/>
      <point x="322" y="641" type="curve"/>
      <point x="310" y="641"/>
      <point x="255" y="568"/>
      <point x="229" y="536" type="curve"/>
      <point x="254" y="525" type="line"/>
      <point x="270" y="537"/>
      <point x="301" y="550"/>
    </contour>
    <contour>
      <point x="533" y="-2" type="curve"/>
      <point x="656" y="0" type="line"/>
      <point x="653" y="115"/>
      <point x="653" y="229"/>
      <point x="653" y="344" type="curve"/>
      <point x="653" y="430"/>
      <point x="582" y="450"/>
      <point x="518" y="450" type="curve"/>
      <point x="507" y="450"/>
      <point x="478" y="404"/>
      <point x="421" y="349" type="curve"/>
      <point x="418" y="431"/>
      <point x="349" y="450"/>
      <point x="286" y="450" type="curve"/>
      <point x="275" y="450"/>
      <point x="247" y="405"/>
      <point x="191" y="351" type="curve"/>
      <point x="189" y="415"/>
      <point x="136" y="450"/>
      <point x="83" y="450" type="curve"/>
      <point x="77" y="450"/>
      <point x="44" y="397"/>
      <point x="10" y="357" type="curve"/>
      <point x="10" y="332" type="line"/>
      <point x="43" y="332"/>
      <point x="76" y="329"/>
      <point x="76" y="271" type="curve"/>
      <point x="76" y="-5" type="line"/>
      <point x="80" y="-7" type="line"/>
      <point x="195" y="0" type="line"/>
      <point x="191" y="105"/>
      <point x="190" y="205"/>
      <point x="191" y="310" type="curve"/>
      <point x="191" y="311" type="line"/>
      <point x="204" y="323"/>
      <point x="224" y="337"/>
      <point x="244" y="337" type="curve"/>
      <point x="262" y="337"/>
      <point x="294" y="328"/>
      <point x="298" y="300" type="curve"/>
      <point x="302" y="271"/>
      <point x="305" y="94"/>
      <point x="301" y="-4" type="curve"/>
      <point x="305" y="-6" type="line"/>
      <point x="424" y="0" type="line"/>
      <point x="421" y="104"/>
      <point x="421" y="206"/>
      <point x="421" y="310" type="curve"/>
      <point x="434" y="322"/>
      <point x="455" y="337"/>
      <point x="476" y="337" type="curve"/>
      <point x="494" y="337"/>
      <point x="528" y="328"/>
      <point x="530" y="300" type="curve"/>
      <point x="532" y="271"/>
      <point x="537" y="96"/>
    </contour>
    <contour>
      <point x="338" y="0" type="move" name="bottom"/>
    </contour>
    <contour>
      <point x="338" y="430" type="move" name="top"/>
    </contour>
  </outline>
</glyph>
<glyph name="n_macr" format="1">
  <advance width="479"/>
  <unicode hex="E5DC"/>
  <outline>
    <contour>
      <point x="203" y="598" type="curve"/>
      <point x="203" y="598" type="line"/>
      <point x="230" y="600"/>
      <point x="300" y="598"/>
      <point x="329" y="600" type="curve"/>
      <point x="344" y="601"/>
      <point x="381" y="664"/>
      <point x="408" y="698" type="curve"/>
      <point x="374" y="705" type="line"/>
      <point x="358" y="698"/>
      <point x="343" y="695"/>
      <point x="317" y="693" type="curve"/>
      <point x="290" y="691"/>
      <point x="223" y="691"/>
      <point x="195" y="689" type="curve"/>
      <point x="181" y="688"/>
      <point x="121" y="611"/>
      <point x="93" y="577" type="curve"/>
      <point x="123" y="568" type="line"/>
      <point x="141" y="581"/>
      <point x="177" y="597"/>
    </contour>
    <contour>
      <point x="431" y="344" type="curve"/>
      <point x="431" y="344" type="line"/>
      <point x="431" y="430"/>
      <point x="360" y="450"/>
      <point x="296" y="450" type="curve"/>
      <point x="285" y="450"/>
      <point x="253" y="403"/>
      <point x="191" y="345" type="curve"/>
      <point x="187" y="407"/>
      <point x="135" y="450"/>
      <point x="83" y="450" type="curve"/>
      <point x="77" y="450"/>
      <point x="44" y="397"/>
      <point x="10" y="357" type="curve"/>
      <point x="10" y="332" type="line"/>
      <point x="43" y="332"/>
      <point x="76" y="329"/>
      <point x="76" y="271" type="curve"/>
      <point x="76" y="-5" type="line"/>
      <point x="80" y="-7" type="line"/>
      <point x="195" y="0" type="line"/>
      <point x="191" y="93"/>
      <point x="190" y="173"/>
      <point x="191" y="302" type="curve"/>
      <point x="203" y="314"/>
      <point x="231" y="337"/>
      <point x="257" y="337" type="curve"/>
      <point x="280" y="337"/>
      <point x="311" y="329"/>
      <point x="311" y="293" type="curve"/>
      <point x="311" y="-4" type="line"/>
      <point x="315" y="-6" type="line"/>
      <point x="434" y="0" type="line"/>
      <point x="431" y="115"/>
      <point x="431" y="229"/>
    </contour>
    <contour>
      <point x="230" y="0" type="move" name="bottom"/>
    </contour>
    <contour>
      <point x="230" y="430" type="move" name="top"/>
    </contour>
  </outline>
</glyph>
<glyph name="p_macr" format="1">
  <advance width="534"/>
  <unicode hex="E665"/>
  <outline>
    <contour>
      <point x="48" y="546" type="line"/>
      <point x="66" y="559"/>
      <point x="103" y="574"/>
      <point x="130" y="576" type="curve" smooth="yes"/>
      <point x="157" y="577"/>
      <point x="230" y="575"/>
      <point x="259" y="576" type="curve" smooth="yes"/>
      <point x="275" y="577"/>
      <point x="312" y="640"/>
      <point x="340" y="674" type="curve"/>
      <point x="305" y="681" type="line"/>
      <point x="289" y="674"/>
      <point x="273" y="671"/>
      <point x="246" y="670" type="curve" smooth="yes"/>
      <point x="218" y="668"/>
      <point x="150" y="668"/>
      <point x="121" y="667" type="curve" smooth="yes"/>
      <point x="106" y="666"/>
      <point x="45" y="589"/>
      <point x="16" y="555" type="curve"/>
    </contour>
    <contour>
      <point x="77" y="-244" type="line"/>
      <point x="218" y="-192" type="line"/>
      <point x="218" y="-171" type="line"/>
      <point x="203" y="-159"/>
      <point x="190" y="-153"/>
      <point x="188" y="-132" type="curve" smooth="yes"/>
      <point x="187" y="-117"/>
      <point x="183" y="-61"/>
      <point x="184" y="-13" type="curve"/>
      <point x="194" y="-12"/>
      <point x="262" y="-13"/>
      <point x="272" y="-9" type="curve" smooth="yes"/>
      <point x="290" y="-2"/>
      <point x="474" y="113"/>
      <point x="477" y="120" type="curve" smooth="yes"/>
      <point x="488" y="146"/>
      <point x="510" y="182"/>
      <point x="509" y="261" type="curve" smooth="yes"/>
      <point x="508" y="373"/>
      <point x="402" y="451"/>
      <point x="313" y="451" type="curve" smooth="yes"/>
      <point x="304" y="451"/>
      <point x="229" y="383"/>
      <point x="175" y="336" type="curve"/>
      <point x="183" y="466" type="line"/>
      <point x="173" y="470" type="line"/>
      <point x="147" y="454"/>
      <point x="48" y="394"/>
      <point x="15" y="377" type="curve"/>
      <point x="16" y="357" type="line"/>
      <point x="42" y="334"/>
      <point x="69" y="310"/>
      <point x="70" y="281" type="curve" smooth="yes"/>
      <point x="73" y="124" type="line" smooth="yes"/>
      <point x="73" y="112"/>
      <point x="59" y="86"/>
      <point x="18" y="27" type="curve"/>
      <point x="18" y="25" type="line"/>
      <point x="59" y="13"/>
      <point x="73" y="5"/>
      <point x="73" y="-10" type="curve" smooth="yes"/>
      <point x="73" y="-100"/>
      <point x="72" y="-170"/>
      <point x="70" y="-239" type="curve"/>
    </contour>
    <contour>
      <point x="303" y="73" type="curve" smooth="yes"/>
      <point x="241" y="72"/>
      <point x="200" y="114"/>
      <point x="193" y="136" type="curve" smooth="yes"/>
      <point x="177" y="186"/>
      <point x="180" y="260"/>
      <point x="187" y="300" type="curve"/>
      <point x="211" y="330"/>
      <point x="230" y="344"/>
      <point x="267" y="344" type="curve" smooth="yes"/>
      <point x="340" y="346"/>
      <point x="383" y="279"/>
      <point x="384" y="204" type="curve" smooth="yes"/>
      <point x="386" y="126"/>
      <point x="358" y="74"/>
    </contour>
    <contour>
      <point x="256" y="0" type="move" name="bottom"/>
    </contour>
    <contour>
      <point x="256" y="430" type="move" name="top"/>
    </contour>
  </outline>
</glyph>
<glyph name="t_acute" format="1">
  <advance width="555"/>
  <unicode hex="E6E2"/>
  <outline>
    <contour>
      <point x="267" y="594" type="curve"/>
      <point x="225" y="505" type="line"/>
      <point x="291" y="503"/>
      <point x="365" y="503"/>
      <point x="422" y="505" type="curve"/>
      <point x="473" y="549"/>
      <point x="525" y="577"/>
      <point x="555" y="628" type="curve"/>
      <point x="555" y="653"/>
      <point x="548" y="697"/>
      <point x="526" y="715" type="curve"/>
      <point x="428" y="683" type="line"/>
      <point x="422" y="668" type="line"/>
      <point x="454" y="653"/>
      <point x="471" y="623"/>
      <point x="467" y="582" type="curve"/>
      <point x="422" y="581"/>
      <point x="306" y="594"/>
    </contour>
    <contour>
      <point x="147" y="-20" type="curve"/>
      <point x="147" y="-20" type="line"/>
      <point x="183" y="-20"/>
      <point x="227" y="32"/>
      <point x="269" y="67" type="curve"/>
      <point x="268" y="84" type="line"/>
      <point x="245" y="80"/>
      <point x="222" y="80"/>
      <point x="216" y="81" type="curve"/>
      <point x="195" y="84"/>
      <point x="169" y="105"/>
      <point x="168" y="122" type="curve"/>
      <point x="163" y="195"/>
      <point x="163" y="269"/>
      <point x="166" y="342" type="curve"/>
      <point x="297" y="341" type="line"/>
      <point x="297" y="430" type="line"/>
      <point x="167" y="430" type="line"/>
      <point x="167" y="529" type="line"/>
      <point x="153" y="530" type="line"/>
      <point x="112" y="475"/>
      <point x="71" y="430"/>
      <point x="10" y="375" type="curve"/>
      <point x="11" y="362" type="line"/>
      <point x="41" y="353"/>
      <point x="53" y="343"/>
      <point x="53" y="325" type="curve"/>
      <point x="55" y="239"/>
      <point x="55" y="152"/>
      <point x="53" y="66" type="curve"/>
      <point x="52" y="31"/>
      <point x="117" y="-20"/>
    </contour>
    <contour>
      <point x="277" y="0" type="move" name="bottom"/>
    </contour>
    <contour>
      <point x="277" y="215" type="move" name="center"/>
    </contour>
    <contour>
      <point x="277" y="430" type="move" name="top"/>
    </contour>
    <contour>
      <point x="533" y="430" type="move" name="topright"/>
    </contour>
  </outline>
</glyph>
<glyph name="q_etfin" format="1">
  <advance width="787"/>
  <unicode hex="E8BF"/>
  <outline>
    <contour>
      <point x="612" y="271" type="curve"/>
      <point x="612" y="271" type="line"/>
      <point x="648" y="314"/>
      <point x="679" y="336"/>
      <point x="718" y="365" type="curve"/>
      <point x="725" y="416"/>
      <point x="666" y="479"/>
      <point x="597" y="489" type="curve"/>
      <point x="566" y="461"/>
      <point x="520" y="429"/>
      <point x="463" y="394" type="curve"/>
      <point x="463" y="397"/>
      <point x="463" y="398"/>
      <point x="462" y="398" type="curve"/>
      <point x="426" y="405"/>
      <point x="308" y="433"/>
      <point x="264" y="445" type="curve"/>
      <point x="251" y="449"/>
      <point x="134" y="366"/>
      <point x="72" y="318" type="curve"/>
      <point x="45" y="297"/>
      <point x="25" y="258"/>
      <point x="25" y="181" type="curve"/>
      <point x="25" y="83"/>
      <point x="89" y="-19"/>
      <point x="224" y="-19" type="curve"/>
      <point x="256" y="-19"/>
      <point x="303" y="44"/>
      <point x="356" y="93" type="curve"/>
      <point x="358" y="-49"/>
      <point x="362" y="-224"/>
      <point x="362" y="-240" type="curve"/>
      <point x="362" y="-244"/>
      <point x="478" y="-226"/>
      <point x="476" y="-203" type="curve"/>
      <point x="457" y="16"/>
      <point x="466" y="265"/>
      <point x="465" y="359" type="curve"/>
      <point x="469" y="353" type="line"/>
      <point x="492" y="375"/>
      <point x="512" y="387"/>
      <point x="535" y="387" type="curve"/>
      <point x="565" y="387"/>
      <point x="600" y="365"/>
      <point x="600" y="331" type="curve"/>
      <point x="600" y="295"/>
      <point x="584" y="274"/>
      <point x="505" y="204" type="curve"/>
      <point x="513" y="183" type="line"/>
      <point x="619" y="200"/>
      <point x="689" y="138"/>
      <point x="693" y="59" type="curve"/>
      <point x="696" y="1"/>
      <point x="664" y="-36"/>
      <point x="631" y="-49" type="curve"/>
      <point x="606" y="-49"/>
      <point x="581" y="-37"/>
      <point x="562" y="-13" type="curve"/>
      <point x="541" y="-23"/>
      <point x="519" y="-51"/>
      <point x="508" y="-69" type="curve"/>
      <point x="505" y="-93"/>
      <point x="531" y="-130"/>
      <point x="561" y="-139" type="curve"/>
      <point x="639" y="-94"/>
      <point x="777" y="-7"/>
      <point x="777" y="112" type="curve"/>
      <point x="777" y="209"/>
      <point x="703" y="265"/>
    </contour>
    <contour>
      <point x="272" y="88" type="curve"/>
      <point x="272" y="88" type="line"/>
      <point x="213" y="88"/>
      <point x="151" y="125"/>
      <point x="151" y="224" type="curve"/>
      <point x="151" y="265"/>
      <point x="159" y="308"/>
      <point x="179" y="338" type="curve"/>
      <point x="294" y="346"/>
      <point x="358" y="286"/>
      <point x="360" y="152" type="curve"/>
      <point x="340" y="113"/>
      <point x="308" y="88"/>
    </contour>
    <contour>
      <point x="253" y="0" type="move" name="bottom"/>
    </contour>
    <contour>
      <point x="213" y="0" type="move" name="bottom_1"/>
    </contour>
    <contour>
      <point x="616" y="0" type="move" name="bottom_2"/>
    </contour>
    <contour>
      <point x="415" y="0" type="move" name="caret_1"/>
    </contour>
    <contour>
      <point x="253" y="430" type="move" name="top"/>
    </contour>
    <contour>
      <point x="213" y="430" type="move" name="top_1"/>
    </contour>
    <contour>
      <point x="616" y="430" type="move" name="top_2"/>
    </contour>
  </outline>
</glyph>
<glyph name="c_t" format="1">
  <advance width="613"/>
  <unicode hex="EEC5"/>
  <outline>
    <contour>
      <point x="160" y="-20" type="curve" smooth="yes"/>
      <point x="168" y="-20"/>
      <point x="279" y="11"/>
      <point x="363" y="65" type="curve"/>
      <point x="368" y="30"/>
      <point x="434" y="-20"/>
      <point x="463" y="-20" type="curve" smooth="yes"/>
      <point x="499" y="-20"/>
      <point x="543" y="35"/>
      <point x="585" y="70" type="curve"/>
      <point x="584" y="93" type="line"/>
      <point x="530" y="84"/>
      <point x="488" y="93"/>
      <point x="484" y="131" type="curve" smooth="yes"/>
      <point x="477" y="201"/>
      <point x="477" y="272"/>
      <point x="482" y="342" type="curve"/>
      <point x="613" y="341" type="line"/>
      <point x="613" y="430" type="line"/>
      <point x="483" y="430" type="line"/>
      <point x="481" y="549" type="line" smooth="yes"/>
      <point x="480" y="609"/>
      <point x="453" y="660"/>
      <point x="389" y="660" type="curve" smooth="yes"/>
      <point x="332" y="660"/>
      <point x="201" y="605"/>
      <point x="97" y="538" type="curve"/>
      <point x="104" y="510" type="line"/>
      <point x="174" y="559"/>
      <point x="238" y="577"/>
      <point x="288" y="577" type="curve" smooth="yes"/>
      <point x="336" y="577"/>
      <point x="372" y="551"/>
      <point x="371" y="497" type="curve" smooth="yes"/>
      <point x="370" y="404" type="line" smooth="yes"/>
      <point x="370" y="391"/>
      <point x="350" y="372"/>
      <point x="336" y="372" type="curve" smooth="yes"/>
      <point x="279" y="372"/>
      <point x="259" y="451"/>
      <point x="243" y="451" type="curve" smooth="yes"/>
      <point x="221" y="451"/>
      <point x="74" y="356"/>
      <point x="55" y="341" type="curve" smooth="yes"/>
      <point x="42" y="330"/>
      <point x="25" y="224"/>
      <point x="25" y="125" type="curve" smooth="yes"/>
      <point x="25" y="91"/>
      <point x="109" y="-20"/>
    </contour>
    <contour>
      <point x="203" y="97" type="curve" smooth="yes"/>
      <point x="164" y="113"/>
      <point x="150" y="165"/>
      <point x="150" y="265" type="curve" smooth="yes"/>
      <point x="150" y="292"/>
      <point x="155" y="333"/>
      <point x="159" y="353" type="curve"/>
      <point x="204" y="347"/>
      <point x="223" y="299"/>
      <point x="229" y="299" type="curve" smooth="yes"/>
      <point x="237" y="299"/>
      <point x="337" y="347"/>
      <point x="350" y="347" type="curve" smooth="yes"/>
      <point x="363" y="347"/>
      <point x="368" y="340"/>
      <point x="369" y="330" type="curve" smooth="yes"/>
      <point x="372" y="274"/>
      <point x="371" y="193"/>
      <point x="365" y="97" type="curve"/>
      <point x="292" y="82"/>
      <point x="233" y="84"/>
    </contour>
    <contour>
      <point x="135" y="0" type="move" name="bottom_1"/>
    </contour>
    <contour>
      <point x="454" y="0" type="move" name="bottom_2"/>
    </contour>
    <contour>
      <point x="294" y="0" type="move" name="caret_1"/>
    </contour>
    <contour>
      <point x="135" y="430" type="move" name="top_1"/>
    </contour>
    <contour>
      <point x="454" y="430" type="move" name="top_2"/>
    </contour>
  </outline>
</glyph>
<glyph name="p_p_flour" format="1">
  <advance width="794"/>
  <unicode hex="EED7"/>
  <outline>
    <contour>
      <point x="769" y="261" type="curve"/>
      <point x="769" y="261" type="line"/>
      <point x="768" y="373"/>
      <point x="665" y="451"/>
      <point x="576" y="451" type="curve"/>
      <point x="559" y="451"/>
      <point x="518" y="399"/>
      <point x="469" y="354" type="curve"/>
      <point x="472" y="449" type="line"/>
      <point x="458" y="453" type="line"/>
      <point x="439" y="452"/>
      <point x="237" y="369"/>
      <point x="178" y="343" type="curve"/>
      <point x="183" y="466" type="line"/>
      <point x="173" y="470" type="line"/>
      <point x="147" y="454"/>
      <point x="48" y="394"/>
      <point x="15" y="377" type="curve"/>
      <point x="16" y="357" type="line"/>
      <point x="53" y="344"/>
      <point x="70" y="310"/>
      <point x="70" y="281" type="curve"/>
      <point x="73" y="117" type="line" smooth="yes"/>
      <point x="73" y="113"/>
      <point x="69" y="105"/>
      <point x="59" y="89" type="curve"/>
      <point x="13" y="28"/>
      <point x="-115" y="-35"/>
      <point x="-115" y="-124" type="curve"/>
      <point x="-115" y="-179"/>
      <point x="-74" y="-218"/>
      <point x="-43" y="-218" type="curve"/>
      <point x="-38" y="-218"/>
      <point x="39" y="-187"/>
      <point x="72" y="-182" type="curve"/>
      <point x="71" y="-201"/>
      <point x="71" y="-220"/>
      <point x="70" y="-239" type="curve"/>
      <point x="77" y="-244" type="line"/>
      <point x="218" y="-192" type="line"/>
      <point x="218" y="-171" type="line"/>
      <point x="203" y="-159"/>
      <point x="189" y="-153"/>
      <point x="188" y="-132" type="curve"/>
      <point x="187" y="-117"/>
      <point x="183" y="-61"/>
      <point x="184" y="-13" type="curve"/>
      <point x="194" y="-10"/>
      <point x="292" y="29"/>
      <point x="317" y="29" type="curve"/>
      <point x="326" y="29"/>
      <point x="354" y="6"/>
      <point x="354" y="-4" type="curve"/>
      <point x="354" y="-96"/>
      <point x="353" y="-170"/>
      <point x="351" y="-239" type="curve"/>
      <point x="358" y="-244" type="line"/>
      <point x="511" y="-192" type="line"/>
      <point x="511" y="-171" type="line"/>
      <point x="496" y="-159"/>
      <point x="483" y="-153"/>
      <point x="481" y="-132" type="curve"/>
      <point x="479" y="-117"/>
      <point x="476" y="-58"/>
      <point x="477" y="-10" type="curve"/>
      <point x="538" y="14"/>
      <point x="705" y="86"/>
      <point x="737" y="120" type="curve"/>
      <point x="755" y="139"/>
      <point x="770" y="182"/>
    </contour>
    <contour>
      <point x="566" y="73" type="curve"/>
      <point x="566" y="73" type="line"/>
      <point x="530" y="72"/>
      <point x="500" y="92"/>
      <point x="482" y="111" type="curve"/>
      <point x="460" y="163"/>
      <point x="464" y="270"/>
      <point x="471" y="314" type="curve"/>
      <point x="490" y="330"/>
      <point x="514" y="344"/>
      <point x="540" y="344" type="curve"/>
      <point x="603" y="344"/>
      <point x="646" y="289"/>
      <point x="647" y="224" type="curve"/>
      <point x="649" y="126"/>
      <point x="611" y="74"/>
    </contour>
    <contour>
      <point x="343" y="74" type="curve"/>
      <point x="343" y="74" type="line"/>
      <point x="260" y="63"/>
      <point x="212" y="78"/>
      <point x="193" y="136" type="curve"/>
      <point x="177" y="186"/>
      <point x="180" y="264"/>
      <point x="187" y="304" type="curve"/>
      <point x="211" y="319"/>
      <point x="240" y="335"/>
      <point x="277" y="335" type="curve"/>
      <point x="335" y="335"/>
      <point x="359" y="284"/>
      <point x="360" y="231" type="curve"/>
      <point x="361" y="182"/>
      <point x="358" y="123"/>
    </contour>
    <contour>
      <point x="31" y="-165" type="curve"/>
      <point x="31" y="-165" type="line"/>
      <point x="-11" y="-165"/>
      <point x="-39" y="-127"/>
      <point x="-39" y="-81" type="curve"/>
      <point x="-39" y="-31"/>
      <point x="5" y="9"/>
      <point x="33" y="9" type="curve"/>
      <point x="40" y="9"/>
      <point x="57" y="2"/>
      <point x="71" y="-5" type="curve"/>
      <point x="72" y="-8"/>
      <point x="73" y="-13"/>
      <point x="73" y="-18" type="curve"/>
      <point x="74" y="-66"/>
      <point x="74" y="-111"/>
      <point x="73" y="-153" type="curve"/>
      <point x="59" y="-162"/>
      <point x="45" y="-165"/>
    </contour>
    <contour>
      <point x="131" y="0" type="move" name="bottom_1"/>
    </contour>
    <contour>
      <point x="394" y="0" type="move" name="bottom_2"/>
    </contour>
    <contour>
      <point x="657" y="0" type="move" name="bottom_3"/>
    </contour>
    <contour>
      <point x="262.667" y="0" type="move" name="caret_1"/>
    </contour>
    <contour>
      <point x="525.333" y="0" type="move" name="caret_2"/>
    </contour>
    <contour>
      <point x="131" y="430" type="move" name="top_1"/>
    </contour>
    <contour>
      <point x="394" y="430" type="move" name="top_2"/>
    </contour>
    <contour>
      <point x="657" y="430" type="move" name="top_3"/>
    </contour>
  </outline>
</glyph>
<glyph name="f_i" format="1">
  <advance width="473"/>
  <unicode hex="FB01"/>
  <outline>
    <contour>
      <point x="393" y="97" type="curve" smooth="yes"/>
      <point x="392" y="178"/>
      <point x="392" y="243"/>
      <point x="393" y="312" type="curve" smooth="yes"/>
      <point x="394" y="370"/>
      <point x="397" y="413"/>
      <point x="402" y="442" type="curve"/>
      <point x="386" y="452" type="line"/>
      <point x="349" y="433"/>
      <point x="312" y="414"/>
      <point x="275" y="408" type="curve"/>
      <point x="178" y="408" type="line"/>
      <point x="178" y="600" type="line"/>
      <point x="192" y="610"/>
      <point x="207" y="612"/>
      <point x="221" y="612" type="curve" smooth="yes"/>
      <point x="248" y="612"/>
      <point x="281" y="590"/>
      <point x="307" y="561" type="curve"/>
      <point x="315" y="562" type="line"/>
      <point x="394" y="640" type="line"/>
      <point x="394" y="646" type="line"/>
      <point x="352" y="681"/>
      <point x="287" y="699"/>
      <point x="251" y="699" type="curve" smooth="yes"/>
      <point x="242" y="699"/>
      <point x="107" y="610"/>
      <point x="77" y="589" type="curve" smooth="yes"/>
      <point x="63" y="579"/>
      <point x="62" y="578"/>
      <point x="64" y="562" type="curve" smooth="yes"/>
      <point x="72" y="482"/>
      <point x="53" y="421"/>
      <point x="20" y="357" type="curve"/>
      <point x="20" y="350" type="line"/>
      <point x="43" y="333"/>
      <point x="66" y="323"/>
      <point x="66" y="279" type="curve" smooth="yes"/>
      <point x="66" y="-17" type="line"/>
      <point x="72" y="-20" type="line"/>
      <point x="178" y="9" type="line"/>
      <point x="178" y="321" type="line"/>
      <point x="259" y="321" type="line"/>
      <point x="271" y="316"/>
      <point x="276" y="301"/>
      <point x="277" y="279" type="curve" smooth="yes"/>
      <point x="278" y="240"/>
      <point x="278" y="108"/>
      <point x="278" y="85" type="curve" smooth="yes"/>
      <point x="278" y="2"/>
      <point x="323" y="-20"/>
      <point x="347" y="-20" type="curve" smooth="yes"/>
      <point x="360" y="-20"/>
      <point x="400" y="16"/>
      <point x="428" y="35" type="curve"/>
      <point x="428" y="54" type="line"/>
      <point x="397" y="68"/>
      <point x="394" y="80"/>
    </contour>
    <contour>
      <point x="166" y="0" type="move" name="bottom"/>
    </contour>
    <contour>
      <point x="112" y="0" type="move" name="bottom_1"/>
    </contour>
    <contour>
      <point x="336" y="0" type="move" name="bottom_2"/>
    </contour>
    <contour>
      <point x="224" y="0" type="move" name="caret_1"/>
    </contour>
    <contour>
      <point x="166" y="430" type="move" name="top"/>
    </contour>
    <contour>
      <point x="112" y="430" type="move" name="top_1"/>
    </contour>
    <contour>
      <point x="336" y="430" type="move" name="top_2"/>
    </contour>
  </outline>
</glyph>
<glyph name="A.ss01" format="1">
  <advance width="580"/>
  <outline>
    <contour>
      <point x="491" y="183" type="curve"/>
      <point x="491" y="183" type="line"/>
      <point x="493" y="578" type="line" smooth="yes"/>
      <point x="493" y="651"/>
      <point x="407" y="717"/>
      <point x="334" y="717" type="curve"/>
      <point x="277" y="717"/>
      <point x="219" y="680"/>
      <point x="72" y="579" type="curve"/>
      <point x="92" y="552" type="line"/>
      <point x="163" y="599"/>
      <point x="206" y="634"/>
      <point x="261" y="634" type="curve"/>
      <point x="317" y="634"/>
      <point x="377" y="601"/>
      <point x="377" y="530" type="curve"/>
      <point x="377" y="497" type="line"/>
      <point x="124" y="270" type="line" smooth="yes"/>
      <point x="73" y="225"/>
      <point x="40" y="164"/>
      <point x="40" y="98" type="curve"/>
      <point x="40" y="29"/>
      <point x="69" y="-20"/>
      <point x="143" y="-20" type="curve"/>
      <point x="203" y="-20"/>
      <point x="290" y="64"/>
      <point x="366" y="165" type="curve"/>
      <point x="371" y="102"/>
      <point x="412" y="29"/>
      <point x="447" y="-20" type="curve"/>
      <point x="464" y="-20"/>
      <point x="526" y="33"/>
      <point x="550" y="64" type="curve"/>
      <point x="550" y="86" type="line"/>
      <point x="518" y="95"/>
      <point x="491" y="116"/>
    </contour>
    <contour>
      <point x="197" y="108" type="curve"/>
      <point x="197" y="108" type="line"/>
      <point x="153" y="108"/>
      <point x="137" y="127"/>
      <point x="137" y="165" type="curve"/>
      <point x="137" y="243"/>
      <point x="252" y="323"/>
      <point x="376" y="445" type="curve"/>
      <point x="375" y="373"/>
      <point x="373" y="277"/>
      <point x="370" y="225" type="curve"/>
      <point x="336" y="168"/>
      <point x="248" y="108"/>
    </contour>
    <contour>
      <point x="299" y="0" type="move" name="bottom"/>
    </contour>
    <contour>
      <point x="540" y="10" type="move" name="ogonek"/>
    </contour>
    <contour>
      <point x="299" y="700" type="move" name="top"/>
    </contour>
  </outline>
</glyph>
<glyph name="C.ss01" format="1">
  <advance width="704"/>
  <outline>
    <contour>
      <point x="403" y="-20" type="curve"/>
      <point x="484" y="0"/>
      <point x="568" y="46"/>
      <point x="674" y="105" type="curve"/>
      <point x="660" y="135" type="line"/>
      <point x="587" y="103"/>
      <point x="539" y="79"/>
      <point x="451" y="79" type="curve" smooth="yes"/>
      <point x="303" y="79"/>
      <point x="173" y="191"/>
      <point x="173" y="377" type="curve" smooth="yes"/>
      <point x="173" y="496"/>
      <point x="211" y="593"/>
      <point x="345" y="650" type="curve"/>
      <point x="464" y="638"/>
      <point x="542" y="610"/>
      <point x="585" y="543" type="curve"/>
      <point x="601" y="539" type="line"/>
      <point x="672" y="602" type="line"/>
      <point x="673" y="671"/>
      <point x="616" y="706"/>
      <point x="568" y="720" type="curve"/>
      <point x="265" y="720"/>
      <point x="40" y="580"/>
      <point x="40" y="315" type="curve" smooth="yes"/>
      <point x="40" y="125"/>
      <point x="195" y="-20"/>
    </contour>
    <contour>
      <point x="360" y="0" type="move" name="bottom"/>
    </contour>
    <contour>
      <point x="-79" y="-60" type="move" name="new anchor"/>
    </contour>
    <contour>
      <point x="360" y="700" type="move" name="top"/>
    </contour>
  </outline>
</glyph>
<glyph name="M.ss01" format="1">
  <advance width="878"/>
  <outline>
    <contour>
      <point x="642" y="726" type="curve"/>
      <point x="642" y="726" type="line"/>
      <point x="579" y="681"/>
      <point x="511" y="597"/>
      <point x="465" y="555" type="curve"/>
      <point x="421" y="633"/>
      <point x="362" y="689"/>
      <point x="334" y="717" type="curve"/>
      <point x="314" y="717"/>
      <point x="121" y="582"/>
      <point x="108" y="563" type="curve"/>
      <point x="81" y="518"/>
      <point x="40" y="432"/>
      <point x="40" y="334" type="curve"/>
      <point x="40" y="146"/>
      <point x="147" y="42"/>
      <point x="228" y="-22" type="curve"/>
      <point x="308" y="25"/>
      <point x="396" y="93"/>
      <point x="431" y="126" type="curve"/>
      <point x="466" y="174"/>
      <point x="519" y="261"/>
      <point x="519" y="357" type="curve"/>
      <point x="519" y="416"/>
      <point x="505" y="469"/>
      <point x="484" y="516" type="curve"/>
      <point x="521" y="562"/>
      <point x="555" y="590"/>
      <point x="594" y="620" type="curve"/>
      <point x="672" y="548"/>
      <point x="719" y="452"/>
      <point x="719" y="314" type="curve"/>
      <point x="719" y="116"/>
      <point x="598" y="-34"/>
      <point x="557" y="-34" type="curve"/>
      <point x="536" y="-34"/>
      <point x="505" y="-15"/>
      <point x="492" y="-6" type="curve"/>
      <point x="475" y="-26"/>
      <point x="423" y="-76"/>
      <point x="376" y="-127" type="curve"/>
      <point x="383" y="-138" type="line"/>
      <point x="507" y="-138"/>
      <point x="583" y="-81"/>
      <point x="681" y="19" type="curve"/>
      <point x="784" y="124"/>
      <point x="838" y="213"/>
      <point x="838" y="335" type="curve"/>
      <point x="838" y="510"/>
      <point x="768" y="633"/>
    </contour>
    <contour>
      <point x="292" y="75" type="curve"/>
      <point x="292" y="75" type="line"/>
      <point x="243" y="98"/>
      <point x="157" y="225"/>
      <point x="157" y="359" type="curve"/>
      <point x="157" y="491"/>
      <point x="219" y="576"/>
      <point x="264" y="613" type="curve"/>
      <point x="323" y="565"/>
      <point x="398" y="483"/>
      <point x="398" y="330" type="curve"/>
      <point x="398" y="222"/>
      <point x="335" y="122"/>
    </contour>
    <contour>
      <point x="456" y="0" type="move" name="bottom"/>
    </contour>
    <contour>
      <point x="456" y="700" type="move" name="top"/>
    </contour>
  </outline>
</glyph>
<glyph name="P.ss01" format="1">
  <advance width="664"/>
  <outline>
    <contour>
      <point x="73" y="-210" type="curve"/>
      <point x="78" y="-241" type="line"/>
      <point x="133" y="-209"/>
      <point x="211" y="-179"/>
      <point x="291" y="-155" type="curve"/>
      <point x="289" y="-122" type="line"/>
      <point x="275" y="-126"/>
      <point x="261" y="-127"/>
      <point x="243" y="-131" type="curve"/>
      <point x="243" y="22" type="line"/>
      <point x="302" y="42"/>
      <point x="396" y="-12"/>
      <point x="438" y="-12" type="curve"/>
      <point x="454" y="-12"/>
      <point x="624" y="145"/>
      <point x="624" y="211" type="curve"/>
      <point x="624" y="302"/>
      <point x="319" y="536"/>
      <point x="368" y="702" type="curve"/>
      <point x="348" y="708" type="line"/>
      <point x="267" y="633"/>
      <point x="140" y="536"/>
      <point x="20" y="459" type="curve"/>
      <point x="31" y="428" type="line"/>
      <point x="115" y="476" type="line"/>
      <point x="124" y="445"/>
      <point x="127" y="401"/>
      <point x="127" y="352" type="curve"/>
      <point x="128" y="61" type="line"/>
      <point x="116" y="45"/>
      <point x="92" y="16"/>
      <point x="71" y="-15" type="curve"/>
      <point x="76" y="-36" type="line"/>
      <point x="127" y="5" type="line"/>
      <point x="127" y="-42"/>
      <point x="122" y="-95"/>
      <point x="121" y="-121" type="curve"/>
      <point x="119" y="-173"/>
      <point x="124" y="-171"/>
    </contour>
    <contour>
      <point x="494" y="91" type="curve"/>
      <point x="494" y="91" type="line"/>
      <point x="439" y="85"/>
      <point x="355" y="119"/>
      <point x="279" y="138" type="curve"/>
      <point x="267" y="138"/>
      <point x="255" y="132"/>
      <point x="247" y="129" type="curve"/>
      <point x="247" y="492" type="line" smooth="yes"/>
      <point x="247" y="536"/>
      <point x="255" y="562"/>
      <point x="265" y="581" type="curve"/>
      <point x="302" y="503"/>
      <point x="361" y="400"/>
      <point x="411" y="330" type="curve"/>
      <point x="468" y="251"/>
      <point x="528" y="199"/>
      <point x="528" y="157" type="curve"/>
      <point x="528" y="122"/>
      <point x="507" y="99"/>
    </contour>
    <contour>
      <point x="318" y="0" type="move" name="bottom"/>
    </contour>
    <contour>
      <point x="318" y="700" type="move" name="top"/>
    </contour>
  </outline>
</glyph>
<glyph name="Q.ss01" format="1">
  <advance width="846"/>
  <outline>
    <contour>
      <point x="806" y="106" type="line"/>
      <point x="778" y="99"/>
      <point x="760" y="102"/>
      <point x="736" y="115" type="curve" smooth="yes"/>
      <point x="642" y="165" type="line"/>
      <point x="672" y="204"/>
      <point x="784" y="309"/>
      <point x="789" y="430" type="curve" smooth="yes"/>
      <point x="796" y="600"/>
      <point x="694" y="715"/>
      <point x="486" y="715" type="curve" smooth="yes"/>
      <point x="338" y="715"/>
      <point x="40" y="546"/>
      <point x="40" y="290" type="curve" smooth="yes"/>
      <point x="40" y="115"/>
      <point x="184" y="-8"/>
      <point x="341" y="-18" type="curve"/>
      <point x="398" y="13"/>
      <point x="473" y="69"/>
      <point x="517" y="110" type="curve"/>
      <point x="639" y="31"/>
      <point x="697" y="-20"/>
      <point x="705" y="-20" type="curve" smooth="yes"/>
      <point x="714" y="-20"/>
      <point x="760" y="41"/>
      <point x="821" y="82" type="curve"/>
    </contour>
    <contour>
      <point x="369" y="119" type="curve" smooth="yes"/>
      <point x="234" y="119"/>
      <point x="162" y="248"/>
      <point x="162" y="367" type="curve" smooth="yes"/>
      <point x="162" y="544"/>
      <point x="297" y="617"/>
      <point x="407" y="617" type="curve" smooth="yes"/>
      <point x="581" y="617"/>
      <point x="673" y="492"/>
      <point x="673" y="388" type="curve" smooth="yes"/>
      <point x="673" y="302"/>
      <point x="643" y="234"/>
      <point x="605" y="185" type="curve"/>
      <point x="548" y="215" type="line"/>
      <point x="500" y="158"/>
      <point x="437" y="119"/>
    </contour>
    <contour>
      <point x="446" y="0" type="move" name="bottom"/>
    </contour>
    <contour>
      <point x="446" y="700" type="move" name="top"/>
    </contour>
  </outline>
</glyph>
<glyph name="Q.ss02" format="1">
  <advance width="697"/>
  <outline>
    <contour>
      <point x="589" y="-18" type="curve"/>
      <point x="617" y="26"/>
      <point x="651" y="67"/>
      <point x="687" y="122" type="curve"/>
      <point x="668" y="132" type="line"/>
      <point x="653" y="111"/>
      <point x="647" y="96"/>
      <point x="622" y="96" type="curve" smooth="yes"/>
      <point x="573" y="96"/>
      <point x="571" y="182"/>
      <point x="544" y="244" type="curve" smooth="yes"/>
      <point x="527" y="282"/>
      <point x="482" y="313"/>
      <point x="444" y="347" type="curve"/>
      <point x="470" y="383"/>
      <point x="496" y="409"/>
      <point x="523" y="459" type="curve"/>
      <point x="543" y="627"/>
      <point x="463" y="736"/>
      <point x="277" y="713" type="curve" smooth="yes"/>
      <point x="243" y="709"/>
      <point x="102" y="600"/>
      <point x="60" y="546" type="curve"/>
      <point x="42" y="496"/>
      <point x="40" y="450"/>
      <point x="40" y="408" type="curve" smooth="yes"/>
      <point x="40" y="266"/>
      <point x="148" y="176"/>
      <point x="255" y="153" type="curve"/>
      <point x="290" y="190"/>
      <point x="319" y="222"/>
      <point x="363" y="267" type="curve"/>
      <point x="409" y="237"/>
      <point x="434" y="207"/>
      <point x="446" y="171" type="curve" smooth="yes"/>
      <point x="494" y="26"/>
      <point x="503" y="-10"/>
    </contour>
    <contour>
      <point x="311" y="273" type="curve"/>
      <point x="222" y="296"/>
      <point x="146" y="343"/>
      <point x="146" y="459" type="curve" smooth="yes"/>
      <point x="146" y="530"/>
      <point x="166" y="604"/>
      <point x="242" y="640" type="curve"/>
      <point x="340" y="640"/>
      <point x="429" y="574"/>
      <point x="429" y="458" type="curve" smooth="yes"/>
      <point x="429" y="353"/>
      <point x="357" y="291"/>
    </contour>
    <contour>
      <point x="359" y="0" type="move" name="bottom"/>
    </contour>
    <contour>
      <point x="359" y="700" type="move" name="top"/>
    </contour>
  </outline>
</glyph>
<glyph name="Q.ss03" format="1">
  <advance width="1153"/>
  <outline>
    <contour>
      <point x="909" y="-20" type="curve"/>
      <point x="925" y="-20"/>
      <point x="1056" y="71"/>
      <point x="1143" y="138" type="curve"/>
      <point x="1125" y="160" type="line"/>
      <point x="1062" y="123"/>
      <point x="1030" y="106"/>
      <point x="994" y="106" type="curve" smooth="yes"/>
      <point x="910" y="106"/>
      <point x="726" y="364"/>
      <point x="525" y="364" type="curve" smooth="yes"/>
      <point x="464" y="364"/>
      <point x="420" y="361"/>
      <point x="390" y="357" type="curve"/>
      <point x="422" y="424"/>
      <point x="477" y="503"/>
      <point x="480" y="561" type="curve" smooth="yes"/>
      <point x="485" y="651"/>
      <point x="408" y="714"/>
      <point x="332" y="714" type="curve" smooth="yes"/>
      <point x="281" y="714"/>
      <point x="255" y="704"/>
      <point x="225" y="685" type="curve"/>
      <point x="72" y="542" type="line"/>
      <point x="51" y="517"/>
      <point x="40" y="482"/>
      <point x="40" y="440" type="curve" smooth="yes"/>
      <point x="40" y="330"/>
      <point x="120" y="276"/>
      <point x="212" y="256" type="curve"/>
      <point x="234" y="267"/>
      <point x="297" y="344"/>
      <point x="328" y="378" type="curve"/>
      <point x="312" y="390" type="line"/>
      <point x="295" y="381"/>
      <point x="277" y="369"/>
      <point x="260" y="369" type="curve" smooth="yes"/>
      <point x="170" y="369"/>
      <point x="144" y="441"/>
      <point x="144" y="498" type="curve" smooth="yes"/>
      <point x="144" y="566"/>
      <point x="195" y="610"/>
      <point x="248" y="610" type="curve" smooth="yes"/>
      <point x="336" y="610"/>
      <point x="380" y="542"/>
      <point x="380" y="468" type="curve" smooth="yes"/>
      <point x="380" y="387"/>
      <point x="334" y="329"/>
      <point x="286" y="252" type="curve"/>
      <point x="294" y="237" type="line"/>
      <point x="328" y="245"/>
      <point x="381" y="255"/>
      <point x="449" y="255" type="curve" smooth="yes"/>
      <point x="648" y="255"/>
      <point x="738" y="62"/>
    </contour>
    <contour>
      <point x="580" y="0" type="move" name="bottom"/>
    </contour>
    <contour>
      <point x="580" y="700" type="move" name="top"/>
    </contour>
  </outline>
</glyph>
<glyph name="S.ss01" format="1">
  <advance width="874"/>
  <outline>
    <contour>
      <point x="292" y="-57" type="line"/>
      <point x="382" y="19"/>
      <point x="434" y="59"/>
      <point x="459" y="59" type="curve" smooth="yes"/>
      <point x="489" y="59"/>
      <point x="527" y="38"/>
      <point x="567" y="-20" type="curve"/>
      <point x="651" y="33"/>
      <point x="706" y="60"/>
      <point x="773" y="100" type="curve" smooth="yes"/>
      <point x="832" y="135"/>
      <point x="849" y="196"/>
      <point x="849" y="249" type="curve" smooth="yes"/>
      <point x="849" y="384"/>
      <point x="726" y="472"/>
      <point x="605" y="472" type="curve" smooth="yes"/>
      <point x="475" y="472"/>
      <point x="369" y="394"/>
      <point x="269" y="394" type="curve" smooth="yes"/>
      <point x="167" y="394"/>
      <point x="93" y="491"/>
      <point x="143" y="576" type="curve"/>
      <point x="185" y="567"/>
      <point x="237" y="555"/>
      <point x="290" y="555" type="curve" smooth="yes"/>
      <point x="330" y="555"/>
      <point x="397" y="639"/>
      <point x="449" y="698" type="curve"/>
      <point x="427" y="720" type="line"/>
      <point x="381" y="690"/>
      <point x="341" y="672"/>
      <point x="311" y="672" type="curve" smooth="yes"/>
      <point x="266" y="672"/>
      <point x="233" y="711"/>
      <point x="217" y="721" type="curve"/>
      <point x="199" y="721"/>
      <point x="32" y="527"/>
      <point x="25" y="462" type="curve" smooth="yes"/>
      <point x="19" y="410"/>
      <point x="66" y="276"/>
      <point x="250" y="276" type="curve" smooth="yes"/>
      <point x="363" y="276"/>
      <point x="463" y="342"/>
      <point x="567" y="342" type="curve" smooth="yes"/>
      <point x="668" y="342"/>
      <point x="734" y="281"/>
      <point x="734" y="208" type="curve" smooth="yes"/>
      <point x="734" y="160"/>
      <point x="715" y="108"/>
      <point x="670" y="82" type="curve"/>
      <point x="635" y="126"/>
      <point x="600" y="179"/>
      <point x="550" y="179" type="curve" smooth="yes"/>
      <point x="480" y="179"/>
      <point x="372" y="61"/>
      <point x="270" y="-31" type="curve"/>
    </contour>
    <contour>
      <point x="436" y="0" type="move" name="bottom"/>
    </contour>
    <contour>
      <point x="436" y="700" type="move" name="top"/>
    </contour>
  </outline>
</glyph>
<glyph name="V.ss01" format="1">
  <advance width="1240"/>
  <outline>
    <contour>
      <point x="932" y="685" type="curve"/>
      <point x="932" y="685" type="line"/>
      <point x="878" y="685"/>
      <point x="835" y="671"/>
      <point x="797" y="653" type="curve"/>
      <point x="750" y="576"/>
      <point x="690" y="496"/>
      <point x="690" y="465" type="curve"/>
      <point x="690" y="405"/>
      <point x="731" y="374"/>
      <point x="763" y="350" type="curve"/>
      <point x="788" y="360"/>
      <point x="827" y="377"/>
      <point x="869" y="407" type="curve"/>
      <point x="869" y="413" type="line"/>
      <point x="793" y="452"/>
      <point x="779" y="495"/>
      <point x="779" y="562" type="curve"/>
      <point x="802" y="578"/>
      <point x="836" y="588"/>
      <point x="871" y="588" type="curve"/>
      <point x="1016" y="588"/>
      <point x="1085" y="487"/>
      <point x="1085" y="357" type="curve"/>
      <point x="1085" y="219"/>
      <point x="963" y="93"/>
      <point x="943" y="93" type="curve"/>
      <point x="878" y="111"/>
      <point x="775" y="151"/>
      <point x="693" y="151" type="curve"/>
      <point x="675" y="151"/>
      <point x="655" y="149"/>
      <point x="632" y="146" type="curve"/>
      <point x="634" y="352"/>
      <point x="638" y="560"/>
      <point x="644" y="766" type="curve"/>
      <point x="604" y="768" type="line"/>
      <point x="602" y="140" type="line"/>
      <point x="551" y="129"/>
      <point x="496" y="112"/>
      <point x="455" y="91" type="curve"/>
      <point x="511" y="150"/>
      <point x="566" y="199"/>
      <point x="567" y="287" type="curve"/>
      <point x="569" y="431"/>
      <point x="562" y="574"/>
      <point x="570" y="718" type="curve"/>
      <point x="557" y="722" type="line"/>
      <point x="496" y="685"/>
      <point x="442" y="674"/>
      <point x="368" y="674" type="curve"/>
      <point x="296" y="674"/>
      <point x="204" y="700"/>
      <point x="189" y="700" type="curve"/>
      <point x="151" y="672"/>
      <point x="101" y="586"/>
      <point x="36" y="538" type="curve"/>
      <point x="30" y="499"/>
      <point x="11" y="404"/>
      <point x="98" y="365" type="curve"/>
      <point x="131" y="383"/>
      <point x="166" y="419"/>
      <point x="180" y="454" type="curve"/>
      <point x="140" y="482"/>
      <point x="106" y="518"/>
      <point x="116" y="575" type="curve"/>
      <point x="254" y="547"/>
      <point x="390" y="543"/>
      <point x="460" y="577" type="curve"/>
      <point x="454" y="549"/>
      <point x="444" y="509"/>
      <point x="442" y="462" type="curve"/>
      <point x="438" y="380"/>
      <point x="447" y="274"/>
      <point x="444" y="202" type="curve"/>
      <point x="440" y="121"/>
      <point x="370" y="69"/>
      <point x="306" y="0" type="curve"/>
      <point x="322" y="-19" type="line"/>
      <point x="409" y="16"/>
      <point x="474" y="35"/>
      <point x="561" y="35" type="curve"/>
      <point x="639" y="35"/>
      <point x="797" y="5"/>
      <point x="888" y="-16" type="curve"/>
      <point x="922" y="10"/>
      <point x="1053" y="115"/>
      <point x="1143" y="178" type="curve"/>
      <point x="1200" y="252"/>
      <point x="1200" y="357"/>
      <point x="1200" y="388" type="curve"/>
      <point x="1200" y="546"/>
      <point x="1107" y="685"/>
    </contour>
    <contour>
      <point x="611" y="0" type="move" name="bottom"/>
    </contour>
    <contour>
      <point x="1102" y="10" type="move" name="ogonek"/>
    </contour>
    <contour>
      <point x="611" y="700" type="move" name="top"/>
    </contour>
    <contour>
      <point x="1205" y="700" type="move" name="topright"/>
    </contour>
  </outline>
</glyph>
<glyph name="V.ss02" format="1">
  <advance width="854"/>
  <outline>
    <contour>
      <point x="685" y="463" type="curve" smooth="yes"/>
      <point x="655" y="463"/>
      <point x="637" y="454"/>
      <point x="629" y="447" type="curve" smooth="yes"/>
      <point x="501" y="329" type="line"/>
      <point x="457" y="400"/>
      <point x="392" y="445"/>
      <point x="317" y="465" type="curve" smooth="yes"/>
      <point x="218" y="492"/>
      <point x="148" y="510"/>
      <point x="147" y="581" type="curve" smooth="yes"/>
      <point x="146" y="633"/>
      <point x="181" y="656"/>
      <point x="224" y="656" type="curve" smooth="yes"/>
      <point x="281" y="656"/>
      <point x="297" y="616"/>
      <point x="295" y="583" type="curve"/>
      <point x="298" y="580" type="line"/>
      <point x="563" y="629" type="line"/>
      <point x="555" y="659" type="line"/>
      <point x="517" y="655"/>
      <point x="496" y="649"/>
      <point x="452" y="649" type="curve" smooth="yes"/>
      <point x="401" y="649"/>
      <point x="391" y="694"/>
      <point x="364" y="723" type="curve"/>
      <point x="301" y="713"/>
      <point x="141" y="669"/>
      <point x="105" y="664" type="curve"/>
      <point x="48" y="645"/>
      <point x="10" y="608"/>
      <point x="10" y="562" type="curve" smooth="yes"/>
      <point x="10" y="471"/>
      <point x="92" y="431"/>
      <point x="169" y="408" type="curve" smooth="yes"/>
      <point x="377" y="347"/>
      <point x="468" y="275"/>
      <point x="468" y="-4" type="curve"/>
      <point x="493" y="-21" type="line"/>
      <point x="554" y="30"/>
      <point x="724" y="146"/>
      <point x="789" y="199" type="curve"/>
      <point x="815" y="227"/>
      <point x="834" y="257"/>
      <point x="834" y="305" type="curve" smooth="yes"/>
      <point x="834" y="398"/>
      <point x="750" y="463"/>
    </contour>
    <contour>
      <point x="565" y="81" type="curve"/>
      <point x="564" y="168"/>
      <point x="547" y="240"/>
      <point x="519" y="298" type="curve"/>
      <point x="537" y="312"/>
      <point x="589" y="347"/>
      <point x="630" y="347" type="curve" smooth="yes"/>
      <point x="677" y="347"/>
      <point x="718" y="308"/>
      <point x="718" y="265" type="curve" smooth="yes"/>
      <point x="718" y="196"/>
      <point x="659" y="151"/>
    </contour>
    <contour>
      <point x="427" y="0" type="move" name="bottom"/>
    </contour>
    <contour>
      <point x="427" y="700" type="move" name="top"/>
    </contour>
  </outline>
</glyph>
<glyph name="b_e_macr" format="1">
  <advance width="750"/>
  <outline>
    <contour>
      <point x="740" y="326" type="curve" smooth="yes"/>
      <point x="740" y="346"/>
      <point x="661" y="450"/>
      <point x="630" y="450" type="curve" smooth="yes"/>
      <point x="607" y="450"/>
      <point x="493" y="398"/>
      <point x="440" y="368" type="curve"/>
      <point x="413" y="417"/>
      <point x="368" y="450"/>
      <point x="305" y="450" type="curve"/>
      <point x="173" y="348" type="line"/>
      <point x="182" y="718" type="line"/>
      <point x="174" y="722" type="line"/>
      <point x="58" y="670" type="line"/>
      <point x="58" y="424" type="line" smooth="yes"/>
      <point x="59" y="400"/>
      <point x="33" y="370"/>
      <point x="10" y="336" type="curve"/>
      <point x="10" y="328" type="line"/>
      <point x="33" y="320"/>
      <point x="58" y="304"/>
      <point x="58" y="270" type="curve" smooth="yes"/>
      <point x="58" y="69" type="line"/>
      <point x="87" y="45"/>
      <point x="133" y="17"/>
      <point x="190" y="-20" type="curve"/>
      <point x="270" y="3"/>
      <point x="355" y="49"/>
      <point x="404" y="79" type="curve"/>
      <point x="435" y="20"/>
      <point x="491" y="-20"/>
      <point x="556" y="-20" type="curve" smooth="yes"/>
      <point x="592" y="-20"/>
      <point x="669" y="26"/>
      <point x="720" y="52" type="curve"/>
      <point x="717" y="82" type="line"/>
      <point x="697" y="78"/>
      <point x="644" y="73"/>
      <point x="625" y="74" type="curve" smooth="yes"/>
      <point x="570" y="77"/>
      <point x="539" y="99"/>
      <point x="521" y="130" type="curve"/>
      <point x="603" y="196"/>
      <point x="740" y="314"/>
    </contour>
    <contour>
      <point x="642" y="583" type="curve"/>
      <point x="659" y="604"/>
      <point x="681" y="647"/>
      <point x="704" y="681" type="curve"/>
      <point x="670" y="688" type="line"/>
      <point x="654" y="681"/>
      <point x="639" y="678"/>
      <point x="613" y="676" type="curve" smooth="yes"/>
      <point x="586" y="674"/>
      <point x="509" y="674"/>
      <point x="481" y="672" type="curve"/>
      <point x="464" y="651"/>
      <point x="442" y="604"/>
      <point x="414" y="570" type="curve"/>
      <point x="444" y="561" type="line"/>
      <point x="488" y="592"/>
      <point x="536" y="579"/>
    </contour>
    <contour>
      <point x="507" y="165" type="curve"/>
      <point x="500" y="192"/>
      <point x="498" y="222"/>
      <point x="498" y="253" type="curve" smooth="yes"/>
      <point x="498" y="296"/>
      <point x="503" y="367"/>
      <point x="540" y="367" type="curve" smooth="yes"/>
      <point x="586" y="367"/>
      <point x="610" y="316"/>
      <point x="610" y="292" type="curve" smooth="yes"/>
      <point x="610" y="246"/>
      <point x="557" y="197"/>
    </contour>
    <contour>
      <point x="275" y="79" type="curve" smooth="yes"/>
      <point x="228" y="79"/>
      <point x="173" y="107"/>
      <point x="173" y="175" type="curve" smooth="yes"/>
      <point x="173" y="218"/>
      <point x="169" y="278"/>
      <point x="181" y="322" type="curve"/>
      <point x="199" y="331"/>
      <point x="220" y="341"/>
      <point x="245" y="341" type="curve" smooth="yes"/>
      <point x="311" y="341"/>
      <point x="359" y="294"/>
      <point x="359" y="213" type="curve" smooth="yes"/>
      <point x="359" y="141"/>
      <point x="332" y="79"/>
    </contour>
    <contour>
      <point x="247" y="0" type="move" name="bottom"/>
    </contour>
    <contour>
      <point x="121" y="0" type="move" name="bottom_1"/>
    </contour>
    <contour>
      <point x="363" y="0" type="move" name="bottom_2"/>
    </contour>
    <contour>
      <point x="605" y="0" type="move" name="bottom_3"/>
    </contour>
    <contour>
      <point x="242" y="0" type="move" name="caret_1"/>
    </contour>
    <contour>
      <point x="484" y="0" type="move" name="caret_2"/>
    </contour>
    <contour>
      <point x="707" y="10" type="move" name="ogonek"/>
    </contour>
    <contour>
      <point x="247" y="430" type="move" name="top"/>
    </contour>
    <contour>
      <point x="121" y="430" type="move" name="top_1"/>
    </contour>
    <contour>
      <point x="363" y="430" type="move" name="top_2"/>
    </contour>
    <contour>
      <point x="605" y="430" type="move" name="top_3"/>
    </contour>
  </outline>
</glyph>
<glyph name="b_o" format="1">
  <advance width="801"/>
  <outline>
    <contour>
      <point x="594" y="450" type="curve"/>
      <point x="594" y="450" type="line"/>
      <point x="580" y="450"/>
      <point x="491" y="376"/>
      <point x="441" y="335" type="curve"/>
      <point x="410" y="393"/>
      <point x="355" y="450"/>
      <point x="305" y="450" type="curve"/>
      <point x="295" y="450"/>
      <point x="213" y="385"/>
      <point x="163" y="348" type="curve"/>
      <point x="172" y="718" type="line"/>
      <point x="164" y="722" type="line"/>
      <point x="48" y="670" type="line"/>
      <point x="48" y="464" type="line" smooth="yes"/>
      <point x="48" y="426"/>
      <point x="23" y="370"/>
      <point x="10" y="336" type="curve"/>
      <point x="10" y="328" type="line"/>
      <point x="23" y="320"/>
      <point x="48" y="304"/>
      <point x="48" y="270" type="curve"/>
      <point x="48" y="69" type="line" smooth="yes"/>
      <point x="48" y="52"/>
      <point x="169" y="-20"/>
      <point x="180" y="-20" type="curve"/>
      <point x="198" y="-20"/>
      <point x="337" y="44"/>
      <point x="399" y="82" type="curve"/>
      <point x="438" y="25"/>
      <point x="501" y="-15"/>
      <point x="548" y="-21" type="curve"/>
      <point x="615" y="9"/>
      <point x="700" y="54"/>
      <point x="735" y="90" type="curve"/>
      <point x="765" y="121"/>
      <point x="776" y="204"/>
      <point x="776" y="240" type="curve"/>
      <point x="776" y="391"/>
      <point x="657" y="440"/>
    </contour>
    <contour>
      <point x="633" y="71" type="curve"/>
      <point x="633" y="71" type="line"/>
      <point x="549" y="70"/>
      <point x="476" y="118"/>
      <point x="476" y="228" type="curve"/>
      <point x="476" y="272"/>
      <point x="485" y="313"/>
      <point x="508" y="341" type="curve"/>
      <point x="568" y="351"/>
      <point x="677" y="311"/>
      <point x="677" y="202" type="curve"/>
      <point x="677" y="142"/>
      <point x="658" y="103"/>
    </contour>
    <contour>
      <point x="258" y="69" type="curve"/>
      <point x="258" y="69" type="line"/>
      <point x="211" y="69"/>
      <point x="168" y="105"/>
      <point x="158" y="131" type="curve"/>
      <point x="158" y="174"/>
      <point x="159" y="272"/>
      <point x="171" y="321" type="curve"/>
      <point x="188" y="328"/>
      <point x="210" y="333"/>
      <point x="235" y="333" type="curve"/>
      <point x="301" y="333"/>
      <point x="359" y="294"/>
      <point x="359" y="213" type="curve"/>
      <point x="359" y="141"/>
      <point x="315" y="69"/>
    </contour>
    <contour>
      <point x="192" y="0" type="move" name="bottom_1"/>
    </contour>
    <contour>
      <point x="595" y="0" type="move" name="bottom_2"/>
    </contour>
    <contour>
      <point x="393" y="0" type="move" name="caret_1"/>
    </contour>
    <contour>
      <point x="192" y="430" type="move" name="top_1"/>
    </contour>
    <contour>
      <point x="595" y="430" type="move" name="top_2"/>
    </contour>
  </outline>
</glyph>
<glyph name="b_s" format="1">
  <advance width="808"/>
  <outline>
    <contour>
      <point x="589" y="451" type="curve"/>
      <point x="589" y="451" type="line"/>
      <point x="455" y="337" type="line"/>
      <point x="430" y="402"/>
      <point x="381" y="450"/>
      <point x="305" y="450" type="curve"/>
      <point x="173" y="348" type="line"/>
      <point x="182" y="718" type="line"/>
      <point x="174" y="722" type="line"/>
      <point x="58" y="670" type="line"/>
      <point x="58" y="424" type="line" smooth="yes"/>
      <point x="59" y="400"/>
      <point x="33" y="370"/>
      <point x="10" y="336" type="curve"/>
      <point x="10" y="328" type="line"/>
      <point x="33" y="320"/>
      <point x="58" y="304"/>
      <point x="58" y="270" type="curve"/>
      <point x="58" y="69" type="line"/>
      <point x="87" y="45"/>
      <point x="133" y="17"/>
      <point x="190" y="-20" type="curve"/>
      <point x="275" y="5"/>
      <point x="366" y="55"/>
      <point x="413" y="85" type="curve"/>
      <point x="435" y="109"/>
      <point x="473" y="150"/>
      <point x="473" y="230" type="curve"/>
      <point x="473" y="256"/>
      <point x="470" y="281"/>
      <point x="464" y="305" type="curve"/>
      <point x="495" y="321"/>
      <point x="538" y="331"/>
      <point x="571" y="331" type="curve"/>
      <point x="636" y="331"/>
      <point x="696" y="283"/>
      <point x="696" y="208" type="curve"/>
      <point x="696" y="143"/>
      <point x="666" y="114"/>
      <point x="630" y="89" type="curve"/>
      <point x="482" y="99" type="line"/>
      <point x="440" y="9" type="line"/>
      <point x="445" y="0" type="line"/>
      <point x="497" y="2"/>
      <point x="548" y="-2"/>
      <point x="600" y="-10" type="curve"/>
      <point x="605" y="-10" type="line"/>
      <point x="700" y="56"/>
      <point x="783" y="196"/>
      <point x="783" y="246" type="curve"/>
      <point x="783" y="361"/>
      <point x="694" y="451"/>
    </contour>
    <contour>
      <point x="275" y="79" type="curve"/>
      <point x="275" y="79" type="line"/>
      <point x="228" y="79"/>
      <point x="173" y="107"/>
      <point x="173" y="175" type="curve"/>
      <point x="173" y="218"/>
      <point x="169" y="278"/>
      <point x="181" y="322" type="curve"/>
      <point x="199" y="331"/>
      <point x="220" y="341"/>
      <point x="245" y="341" type="curve"/>
      <point x="311" y="341"/>
      <point x="359" y="294"/>
      <point x="359" y="213" type="curve"/>
      <point x="359" y="141"/>
      <point x="332" y="79"/>
    </contour>
    <contour>
      <point x="247" y="0" type="move" name="bottom"/>
    </contour>
    <contour>
      <point x="247" y="430" type="move" name="top"/>
    </contour>
  </outline>
</glyph>
